<svg xmlns="http://www.w3.org/2000/svg" xmlns:xlink="http://www.w3.org/1999/xlink" width="1080" zoomAndPan="magnify" viewBox="0 0 810 809.999993" height="1080" preserveAspectRatio="xMidYMid meet" version="1.0"><defs><clipPath id="cc01f0eb0f"><path d="M 0.484375 26.832031 L 809.507812 26.832031 L 809.507812 782.832031 L 0.484375 782.832031 Z M 0.484375 26.832031 " clip-rule="nonzero"/></clipPath></defs><g clip-path="url(#cc01f0eb0f)"><path fill="#00aaff" d="M 693.199219 478.261719 C 691.832031 481.898438 691.039062 487.742188 690.585938 494.078125 C 676.71875 487.691406 734.214844 514.957031 587.582031 444.339844 C 600.160156 442.703125 600.402344 444.953125 609.496094 442.148438 C 613.082031 443.25 616.925781 444.570312 620.53125 446.070312 C 632.238281 450.949219 659.058594 460.707031 678.566406 461.679688 C 692.839844 462.390625 698.761719 462.847656 705.113281 463.609375 C 700.535156 467.265625 695.398438 472.398438 693.199219 478.261719 Z M 549.777344 564.914062 C 549.261719 555.035156 547.863281 548.492188 547.863281 548.492188 C 547.863281 548.492188 551.605469 543.425781 553.320312 537.433594 C 574.902344 549.15625 588.96875 556.863281 590.425781 557.808594 C 594.226562 560.28125 601.683594 561.859375 609.40625 562.394531 C 609.804688 567.25 611.390625 581.941406 613.4375 600.398438 Z M 499.582031 530.929688 C 499.277344 531.84375 498.46875 533.535156 497.378906 535.703125 L 331.328125 443.144531 C 330.949219 443.671875 331.113281 446.738281 330.714844 417.191406 C 376.253906 441.734375 436.089844 474.003906 486.871094 501.449219 C 491.425781 510.722656 496.65625 521.179688 496.65625 521.179688 C 496.65625 521.179688 501.046875 526.542969 499.582031 530.929688 Z M 331.703125 490.292969 C 331.640625 485.773438 331.5625 479.820312 331.472656 473.054688 L 350.851562 484.402344 Z M 315.820312 273.527344 C 311.839844 274.417969 298.917969 277.539062 297.414062 287.605469 C 293.964844 283.070312 291.648438 281.6875 286.742188 280.78125 C 284.15625 270.796875 282.433594 265.050781 278.160156 256.5 C 273.042969 246.273438 260.261719 234.949219 255.878906 228.738281 C 251.496094 222.53125 249.304688 223.625 244.925781 214.859375 C 240.539062 206.097656 236.523438 195.871094 236.160156 192.21875 C 235.597656 186.601562 241.210938 184.28125 247.457031 168.472656 C 381.484375 144.367188 453.890625 131.339844 492.972656 124.316406 C 494.402344 128.175781 497.019531 131.363281 500.15625 133.375 C 503.355469 135.425781 504.097656 135.589844 508.199219 138.296875 C 512.300781 141.003906 513.773438 140.675781 514.515625 142.316406 C 514.515625 142.316406 510.078125 151.679688 508.253906 157.886719 C 495.085938 202.65625 486.890625 183.253906 479.765625 223.625 C 478.667969 229.835938 478.300781 231.664062 478.300781 231.664062 C 478.300781 231.664062 471.730469 236.410156 464.421875 249.191406 C 458.816406 259.007812 454.292969 264.742188 452.164062 272.824219 C 440.320312 269.925781 424.375 272.316406 420.050781 274.210938 C 388.910156 287.835938 388.683594 281.769531 373.117188 283.886719 C 368.28125 284.550781 363.375 286.203125 358.683594 288.171875 C 357.796875 286.355469 355.664062 284.128906 354.472656 282.625 C 353.382812 281.25 351.652344 280.601562 349.703125 280.578125 C 349.054688 279.824219 348.808594 278.746094 347.066406 278.035156 C 345.976562 275.242188 343.15625 276.140625 341.5 276.058594 C 342.167969 272.859375 340.070312 271.792969 339.519531 271.082031 C 338.90625 270.296875 339.082031 270.121094 338.382812 268.722656 C 337.683594 267.320312 335.058594 266.972656 333.746094 268.195312 C 332.597656 269.269531 331.78125 270.277344 329.171875 272.167969 C 327.71875 272.097656 320.449219 272.5 315.820312 273.527344 Z M 228.195312 155.683594 C 227.472656 153.894531 226.378906 152.027344 226.378906 152.027344 L 230.070312 153.21875 C 230.070312 153.21875 230.4375 154.269531 230.941406 155.210938 C 230.03125 155.367188 229.113281 155.527344 228.195312 155.683594 Z M 808.558594 651.324219 C 808.203125 649.242188 807.167969 647.507812 805.929688 645.761719 C 802.453125 640.859375 797.53125 636.222656 791.597656 635.390625 C 790.453125 634.746094 789.347656 634.042969 788.34375 633.210938 C 787.898438 631.785156 787.398438 630.691406 786.128906 629.804688 C 781.851562 626.824219 776.371094 624.949219 771.8125 622.257812 C 768.183594 620.117188 764.164062 618.773438 760.589844 616.597656 C 757.527344 614.738281 756.34375 613.976562 753.652344 615.359375 C 752.398438 614.144531 751.207031 612.863281 750.09375 611.542969 C 748.761719 609.96875 748.015625 607.625 745.957031 606.917969 C 744.070312 606.269531 741.71875 606.800781 740.117188 607.894531 C 739.015625 608.644531 737.578125 610.277344 736.597656 611.902344 C 734.804688 608.097656 734.027344 602.730469 734.652344 593.359375 C 735.628906 578.726562 737.578125 552.390625 742.457031 542.148438 C 747.332031 531.90625 750.257812 508.011719 753.1875 493.867188 C 756.113281 479.722656 752.699219 476.796875 755.625 471.433594 C 758.550781 466.070312 759.527344 455.828125 761.476562 448.996094 C 763.429688 442.171875 760.015625 436.804688 755.136719 430.953125 C 750.710938 425.644531 750.300781 424.347656 742.238281 419.777344 C 734.027344 405.652344 714.65625 396.144531 704.902344 391.449219 C 691.734375 385.109375 692.710938 386.085938 681.980469 376.332031 C 674.714844 369.722656 650.894531 361.777344 636.273438 357.332031 C 633.949219 354.472656 627.316406 350.894531 617.601562 349.507812 C 609.101562 348.292969 586.484375 347.082031 579.054688 346.703125 C 577.496094 340.277344 574.128906 335.347656 568.347656 333.902344 C 563.328125 332.648438 552.671875 333.609375 543.234375 334.199219 C 535.1875 328.179688 520.234375 323.769531 507.503906 321.183594 C 506.046875 319.367188 503.839844 317.273438 501.4375 315.222656 C 504.628906 310.53125 510.207031 299.125 511.539062 286.8125 C 513 273.296875 513.730469 256.5 517.75 251.75 C 521.761719 247 523.957031 242.253906 525.417969 234.21875 C 526.878906 226.183594 534.910156 216.320312 535.644531 202.808594 C 536.375 189.292969 538.566406 156.789062 539.296875 150.214844 C 540.027344 143.640625 541.488281 140.71875 542.21875 134.878906 C 542.945312 129.03125 537.105469 120.632812 534.546875 119.535156 C 533.652344 119.152344 532.578125 118.316406 531.558594 117.398438 C 539.691406 115.953125 538.625 116.171875 538.632812 116.210938 C 541.378906 127.421875 546.09375 138.628906 552.886719 148.300781 C 561.078125 159.96875 572.871094 170.035156 586.75 172.648438 C 595.347656 174.273438 600.519531 172.617188 608.710938 170.851562 C 635.855469 165 648.832031 130.730469 645.667969 98.601562 C 645.640625 98.3125 644.78125 98.554688 653.539062 96.976562 C 658.125 96.140625 659.445312 88.902344 656.390625 84.25 C 656.390625 84.105469 654.175781 80.882812 651.066406 81.179688 C 649.964844 81.289062 642.871094 82.714844 642.808594 82.460938 C 635.503906 54.265625 613.699219 24.867188 585.503906 26.9375 C 583.921875 27.054688 574.953125 28.222656 572.425781 28.804688 C 552.996094 33.292969 541.628906 52.371094 537.46875 72.0625 C 535.441406 81.957031 535.046875 92.246094 536.183594 102.398438 C 536.183594 102.4375 537.03125 102.320312 534.367188 102.800781 C 534.554688 102.503906 534.703125 102.175781 534.777344 101.796875 C 535.101562 100.070312 535.429688 99.824219 533.625 98.269531 C 531.820312 96.707031 530.097656 96.054688 529.113281 97.035156 C 529.113281 97.035156 528.539062 96.378906 527.0625 95.5625 C 525.585938 94.742188 522.960938 95.726562 522.222656 96.054688 C 521.488281 96.378906 521.324219 97.363281 521.324219 97.363281 C 521.324219 97.363281 520.582031 96.953125 519.023438 96.871094 C 517.46875 96.789062 515.582031 98.023438 515.582031 98.023438 C 515.582031 98.023438 515.988281 95.316406 514.019531 93.507812 C 512.054688 91.707031 510.410156 92.445312 509.34375 93.097656 C 508.28125 93.753906 506.964844 98.1875 505.984375 99.335938 C 499.195312 102.390625 498.792969 97.171875 495.851562 109.492188 C 457.917969 116.042969 384.65625 128.679688 243.480469 153.046875 C 242.113281 150.585938 240.140625 147.378906 239.117188 145.839844 C 237.449219 143.339844 236.257812 144.648438 232.691406 143.339844 C 229.117188 142.03125 228.40625 141.316406 226.265625 139.414062 C 222.945312 136.464844 219.378906 141.273438 222.335938 146.554688 C 222.335938 146.554688 220.195312 145.480469 217.695312 146.074219 C 215.796875 146.53125 215.269531 146.570312 214.660156 147.714844 C 213.574219 146.640625 212.359375 145.953125 211.269531 146.316406 C 209.597656 146.871094 208.074219 147.511719 206.359375 148.886719 C 204.722656 147.285156 202.292969 146.742188 200.558594 147.863281 C 198.945312 148.902344 197.410156 150.1875 195.648438 152.21875 C 194.90625 152.027344 194.28125 151.839844 193.894531 151.667969 C 191.992188 150.835938 190.085938 151.433594 188.0625 153.574219 C 186.039062 155.714844 182.707031 158.453125 181.515625 160.121094 C 180.558594 161.464844 180.535156 162.355469 180.996094 163.832031 C 172.363281 165.324219 163.523438 166.847656 154.460938 168.414062 C 152.472656 158.835938 149.417969 148.1875 145.851562 138.710938 C 140.199219 123.738281 129.367188 102.140625 115.402344 95.003906 C 112.476562 93.507812 109.355469 92.585938 106.050781 92.75 C 105.242188 92.792969 92.183594 94.507812 90.542969 94.988281 C 78.234375 98.59375 74.03125 117.023438 73.128906 118.402344 C 71.222656 121.328125 69.769531 124.742188 68.667969 128.101562 C 64.554688 140.632812 64.617188 154.035156 64.3125 156.746094 C 63.390625 164.914062 63.578125 173.640625 64.4375 181.945312 C 1.226562 192.808594 2.925781 192.464844 2.476562 192.601562 C 1.675781 192.84375 1.21875 193.878906 0.976562 194.683594 C -0.109375 198.320312 0.75 204.378906 2.066406 208.277344 C 2.066406 208.632812 3.8125 213.269531 5.738281 213.84375 C 6.230469 213.992188 1.949219 214.679688 68.082031 202.734375 C 70.109375 210.882812 72.945312 219.300781 76.675781 226.78125 C 77.46875 228.359375 79.960938 235.328125 84.507812 243.164062 C 87.214844 247.867188 91.953125 254.789062 96.207031 258.191406 C 98.28125 259.996094 97.886719 259.324219 98.722656 260.441406 C 103.785156 267.15625 111.105469 274.558594 119.421875 275.539062 C 122.570312 275.914062 124.527344 275.269531 127.640625 274.601562 C 136.765625 272.632812 141.179688 272.714844 146.972656 265.472656 C 153.316406 257.441406 156.429688 244.988281 157.894531 234.84375 C 160.195312 218.640625 159.582031 200.945312 157.320312 184.683594 C 167.910156 182.777344 178.191406 180.929688 188.203125 179.125 C 189.179688 181.226562 190.851562 183.21875 193.058594 184.546875 C 196.714844 186.738281 205.113281 196.601562 206.574219 197.695312 C 208.035156 198.789062 208.402344 202.078125 208.402344 202.078125 C 206.882812 208.148438 214.320312 216.492188 216.070312 225.816406 C 217.164062 231.664062 219.722656 247.363281 220.820312 259.78125 C 221.914062 272.199219 222.644531 272.199219 227.027344 279.871094 C 231.410156 287.542969 235.0625 291.195312 238.347656 296.304688 C 240.34375 299.414062 242.746094 305.480469 245.550781 309.605469 C 246.335938 316.148438 247.546875 321.980469 249.667969 325.527344 C 252.957031 331.003906 255.148438 333.558594 255.148438 333.558594 C 255.148438 333.558594 253.195312 346.335938 261.957031 359.390625 C 259.761719 362.253906 259.644531 371.40625 259.894531 374.464844 L 259.53125 378.847656 C 259.53125 378.847656 264.878906 381.726562 274.195312 386.746094 C 281.570312 397.3125 290.566406 400.097656 303.179688 403.027344 L 305.730469 498.277344 L 242.511719 517.714844 L 242.546875 524.542969 L 239.15625 525.378906 L 239.15625 528.570312 L 259.117188 541.664062 L 279.554688 535.121094 L 279.554688 532.246094 L 273.796875 529.191406 L 369.195312 500.101562 L 377.109375 504.625 L 382.386719 502.863281 L 485.261719 563.09375 C 485.0625 564.019531 484.949219 564.851562 484.949219 565.558594 C 484.949219 573.359375 485.4375 590.921875 488.363281 595.796875 C 491.289062 600.675781 494.703125 631.886719 496.167969 645.542969 C 497.632812 659.195312 499.582031 661.148438 499.582031 669.4375 C 499.582031 676.019531 497.75 684.441406 498.9375 693.488281 C 497.765625 693.867188 497.511719 695.066406 496.972656 696.019531 C 495.734375 698.214844 495.082031 700.148438 494.882812 702.703125 C 494.394531 708.996094 494.648438 715.015625 496.652344 720.867188 C 496.035156 726.445312 494.863281 730.683594 493.164062 736.070312 C 490.09375 745.847656 491.945312 759.125 495.457031 764.4375 C 493.847656 766.265625 495.496094 771.242188 496.667969 772.542969 C 500.570312 776.867188 507.148438 779.035156 512.742188 780.191406 C 522.683594 782.25 535.8125 785.351562 545.453125 780.726562 C 549.679688 778.699219 549.558594 774.507812 549.863281 769.277344 C 549.890625 768.804688 549.878906 768.34375 549.851562 767.890625 C 551.503906 763.222656 552.332031 758.050781 552.539062 753.300781 C 552.902344 744.921875 552.144531 743.097656 548.792969 738.765625 C 549.175781 734.039062 546.222656 730.242188 545.320312 726.921875 C 544.660156 724.503906 543.832031 722.023438 543.371094 719.539062 C 542.613281 715.40625 543.589844 712.707031 541.308594 709.691406 C 541.417969 706.980469 541.121094 701.386719 539.578125 698.992188 C 538.191406 696.835938 536.726562 698.515625 535.023438 697.578125 C 534.667969 698.335938 534.328125 699.046875 534.003906 699.738281 C 534.007812 696.894531 534.132812 694.230469 534.695312 692.363281 C 536.160156 687.484375 534.695312 682.609375 532.257812 672.855469 C 529.816406 663.097656 528.84375 651.394531 530.792969 644.078125 C 532.660156 637.066406 539.90625 611.257812 544.800781 597.953125 L 617.980469 640.800781 C 622.203125 678.074219 626.386719 714.308594 626.386719 714.308594 L 669.304688 741.617188 L 690.273438 732.839844 L 690.757812 727.964844 L 668.816406 715.285156 L 649.746094 553.605469 C 664.808594 547.953125 683.734375 540.613281 694 536.617188 C 694.570312 538.847656 695.011719 540.992188 695.148438 542.636719 C 696.582031 559.828125 699.75 584.96875 697.246094 603.242188 C 695.832031 603.03125 694.382812 603.839844 693.703125 605.273438 C 693.070312 606.621094 692.949219 608.40625 692.855469 610.058594 C 692.277344 611.3125 691.703125 612.539062 691.40625 612.976562 C 689.988281 615.082031 688.1875 617.054688 687.117188 619.386719 C 685.726562 622.414062 685.84375 626.261719 685.839844 629.539062 C 685.832031 634.773438 687.75 639.15625 690.601562 643.382812 C 689.683594 645.480469 689.875 650.058594 690.433594 650.988281 C 692.511719 654.414062 702.652344 655.769531 706.75 655.851562 C 711.328125 655.9375 715.855469 656.035156 720.4375 655.808594 C 726.074219 655.53125 732.464844 654.976562 738.035156 655.914062 C 755.988281 658.933594 761.230469 664.445312 773.96875 667.515625 C 779 668.734375 784.753906 669.574219 790.191406 669.453125 C 794.015625 669.746094 798.042969 669.121094 801.648438 668.578125 C 803.683594 668.273438 805.648438 668.21875 807.441406 666.945312 C 809.390625 665.558594 809.425781 664.34375 809.425781 662.039062 C 809.425781 659.933594 809.878906 658.152344 808.621094 656.425781 C 808.925781 654.765625 808.769531 652.558594 808.558594 651.324219 " fill-opacity="1" fill-rule="nonzero"/></g></svg>