<svg xmlns="http://www.w3.org/2000/svg" xmlns:xlink="http://www.w3.org/1999/xlink" width="1080" zoomAndPan="magnify" viewBox="0 0 810 809.999993" height="1080" preserveAspectRatio="xMidYMid meet" version="1.0"><defs><clipPath id="f9cd05e589"><path d="M 25 52 L 784.71875 52 L 784.71875 810 L 25 810 Z M 25 52 " clip-rule="nonzero"/></clipPath><clipPath id="32cf8335c0"><path d="M 25 52 L 784.71875 52 L 784.71875 237 L 25 237 Z M 25 52 " clip-rule="nonzero"/></clipPath></defs><g clip-path="url(#f9cd05e589)"><path fill="#ffffff" d="M 747.851562 811.972656 L 62.140625 811.972656 C 41.753906 811.972656 25.214844 795.4375 25.214844 775.046875 L 25.214844 89.351562 C 25.214844 68.960938 41.753906 52.425781 62.140625 52.425781 L 747.835938 52.425781 C 768.226562 52.425781 784.761719 68.960938 784.761719 89.351562 L 784.761719 775.046875 C 784.761719 795.449219 768.238281 811.972656 747.851562 811.972656 Z M 747.851562 811.972656 " fill-opacity="1" fill-rule="nonzero"/></g><g clip-path="url(#32cf8335c0)"><path fill="#00aaff" d="M 784.761719 236.886719 L 25.230469 236.886719 L 25.230469 89.351562 C 25.230469 68.960938 41.765625 52.425781 62.15625 52.425781 L 747.851562 52.425781 C 768.238281 52.425781 784.777344 68.960938 784.777344 89.351562 L 784.777344 236.886719 Z M 784.761719 236.886719 " fill-opacity="1" fill-rule="nonzero"/></g><path fill="#082b3f" d="M 156.578125 101.257812 L 138.109375 101.257812 C 131.894531 101.257812 126.851562 96.210938 126.851562 90 L 126.851562 11.246094 C 126.851562 5.03125 131.894531 -0.0117188 138.109375 -0.0117188 L 156.578125 -0.0117188 C 162.792969 -0.0117188 167.835938 5.03125 167.835938 11.246094 L 167.835938 90 C 167.835938 96.210938 162.792969 101.257812 156.578125 101.257812 Z M 156.578125 101.257812 " fill-opacity="1" fill-rule="nonzero"/><path fill="#082b3f" d="M 228.746094 101.257812 L 210.273438 101.257812 C 204.0625 101.257812 199.015625 96.210938 199.015625 90 L 199.015625 11.246094 C 199.015625 5.03125 204.0625 -0.0117188 210.273438 -0.0117188 L 228.746094 -0.0117188 C 234.957031 -0.0117188 240.003906 5.03125 240.003906 11.246094 L 240.003906 90 C 240.003906 96.210938 234.957031 101.257812 228.746094 101.257812 Z M 228.746094 101.257812 " fill-opacity="1" fill-rule="nonzero"/><path fill="#082b3f" d="M 589.5625 101.257812 L 571.09375 101.257812 C 564.878906 101.257812 559.835938 96.210938 559.835938 90 L 559.835938 11.246094 C 559.835938 5.03125 564.878906 -0.0117188 571.09375 -0.0117188 L 589.5625 -0.0117188 C 595.773438 -0.0117188 600.820312 5.03125 600.820312 11.246094 L 600.820312 90 C 600.820312 96.210938 595.789062 101.257812 589.5625 101.257812 Z M 589.5625 101.257812 " fill-opacity="1" fill-rule="nonzero"/><path fill="#082b3f" d="M 661.726562 101.257812 L 643.257812 101.257812 C 637.046875 101.257812 632 96.210938 632 90 L 632 11.246094 C 632 5.03125 637.046875 -0.0117188 643.257812 -0.0117188 L 661.726562 -0.0117188 C 667.941406 -0.0117188 672.988281 5.03125 672.988281 11.246094 L 672.988281 90 C 672.988281 96.210938 667.953125 101.257812 661.726562 101.257812 Z M 661.726562 101.257812 " fill-opacity="1" fill-rule="nonzero"/><path fill="#e1e1e1" d="M 161.117188 358.960938 L 94.359375 358.960938 C 88.328125 358.960938 83.425781 354.074219 83.425781 348.027344 L 83.425781 281.269531 C 83.425781 275.242188 88.316406 270.335938 94.359375 270.335938 L 161.117188 270.335938 C 167.148438 270.335938 172.050781 275.226562 172.050781 281.269531 L 172.050781 348.027344 C 172.050781 354.074219 167.164062 358.960938 161.117188 358.960938 Z M 161.117188 358.960938 " fill-opacity="1" fill-rule="nonzero"/><path fill="#e1e1e1" d="M 273.984375 358.960938 L 207.226562 358.960938 C 201.195312 358.960938 196.292969 354.074219 196.292969 348.027344 L 196.292969 281.269531 C 196.292969 275.242188 201.183594 270.335938 207.226562 270.335938 L 273.984375 270.335938 C 280.015625 270.335938 284.917969 275.226562 284.917969 281.269531 L 284.917969 348.027344 C 284.90625 354.074219 280.015625 358.960938 273.984375 358.960938 Z M 273.984375 358.960938 " fill-opacity="1" fill-rule="nonzero"/><path fill="#e1e1e1" d="M 386.839844 358.960938 L 320.082031 358.960938 C 314.050781 358.960938 309.148438 354.074219 309.148438 348.027344 L 309.148438 281.269531 C 309.148438 275.242188 314.035156 270.335938 320.082031 270.335938 L 386.839844 270.335938 C 392.871094 270.335938 397.773438 275.226562 397.773438 281.269531 L 397.773438 348.027344 C 397.757812 354.074219 392.871094 358.960938 386.839844 358.960938 Z M 386.839844 358.960938 " fill-opacity="1" fill-rule="nonzero"/><path fill="#e1e1e1" d="M 499.691406 358.960938 L 432.933594 358.960938 C 426.902344 358.960938 422 354.074219 422 348.027344 L 422 281.269531 C 422 275.242188 426.890625 270.335938 432.933594 270.335938 L 499.691406 270.335938 C 505.722656 270.335938 510.625 275.226562 510.625 281.269531 L 510.625 348.027344 C 510.613281 354.074219 505.722656 358.960938 499.691406 358.960938 Z M 499.691406 358.960938 " fill-opacity="1" fill-rule="nonzero"/><path fill="#e1e1e1" d="M 612.546875 358.960938 L 545.789062 358.960938 C 539.757812 358.960938 534.855469 354.074219 534.855469 348.027344 L 534.855469 281.269531 C 534.855469 275.242188 539.742188 270.335938 545.789062 270.335938 L 612.546875 270.335938 C 618.578125 270.335938 623.480469 275.226562 623.480469 281.269531 L 623.480469 348.027344 C 623.480469 354.074219 618.578125 358.960938 612.546875 358.960938 Z M 612.546875 358.960938 " fill-opacity="1" fill-rule="nonzero"/><path fill="#e1e1e1" d="M 725.398438 358.960938 L 658.640625 358.960938 C 652.609375 358.960938 647.707031 354.074219 647.707031 348.027344 L 647.707031 281.269531 C 647.707031 275.242188 652.597656 270.335938 658.640625 270.335938 L 725.398438 270.335938 C 731.429688 270.335938 736.332031 275.226562 736.332031 281.269531 L 736.332031 348.027344 C 736.332031 354.074219 731.429688 358.960938 725.398438 358.960938 Z M 725.398438 358.960938 " fill-opacity="1" fill-rule="nonzero"/><path fill="#e1e1e1" d="M 161.117188 468.675781 L 94.359375 468.675781 C 88.328125 468.675781 83.425781 463.789062 83.425781 457.742188 L 83.425781 390.984375 C 83.425781 384.957031 88.316406 380.050781 94.359375 380.050781 L 161.117188 380.050781 C 167.148438 380.050781 172.050781 384.941406 172.050781 390.984375 L 172.050781 457.742188 C 172.050781 463.773438 167.164062 468.675781 161.117188 468.675781 Z M 161.117188 468.675781 " fill-opacity="1" fill-rule="nonzero"/><path fill="#e1e1e1" d="M 273.984375 468.675781 L 207.226562 468.675781 C 201.195312 468.675781 196.292969 463.789062 196.292969 457.742188 L 196.292969 390.984375 C 196.292969 384.957031 201.183594 380.050781 207.226562 380.050781 L 273.984375 380.050781 C 280.015625 380.050781 284.917969 384.941406 284.917969 390.984375 L 284.917969 457.742188 C 284.90625 463.773438 280.015625 468.675781 273.984375 468.675781 Z M 273.984375 468.675781 " fill-opacity="1" fill-rule="nonzero"/><path fill="#e1e1e1" d="M 386.839844 468.675781 L 320.082031 468.675781 C 314.050781 468.675781 309.148438 463.789062 309.148438 457.742188 L 309.148438 390.984375 C 309.148438 384.957031 314.035156 380.050781 320.082031 380.050781 L 386.839844 380.050781 C 392.871094 380.050781 397.773438 384.941406 397.773438 390.984375 L 397.773438 457.742188 C 397.757812 463.773438 392.871094 468.675781 386.839844 468.675781 Z M 386.839844 468.675781 " fill-opacity="1" fill-rule="nonzero"/><path fill="#e1e1e1" d="M 499.691406 468.675781 L 432.933594 468.675781 C 426.902344 468.675781 422 463.789062 422 457.742188 L 422 390.984375 C 422 384.957031 426.890625 380.050781 432.933594 380.050781 L 499.691406 380.050781 C 505.722656 380.050781 510.625 384.941406 510.625 390.984375 L 510.625 457.742188 C 510.613281 463.773438 505.722656 468.675781 499.691406 468.675781 Z M 499.691406 468.675781 " fill-opacity="1" fill-rule="nonzero"/><path fill="#e1e1e1" d="M 612.546875 468.675781 L 545.789062 468.675781 C 539.757812 468.675781 534.855469 463.789062 534.855469 457.742188 L 534.855469 390.984375 C 534.855469 384.957031 539.742188 380.050781 545.789062 380.050781 L 612.546875 380.050781 C 618.578125 380.050781 623.480469 384.941406 623.480469 390.984375 L 623.480469 457.742188 C 623.480469 463.773438 618.578125 468.675781 612.546875 468.675781 Z M 612.546875 468.675781 " fill-opacity="1" fill-rule="nonzero"/><path fill="#e1e1e1" d="M 725.398438 468.675781 L 658.640625 468.675781 C 652.609375 468.675781 647.707031 463.789062 647.707031 457.742188 L 647.707031 390.984375 C 647.707031 384.957031 652.597656 380.050781 658.640625 380.050781 L 725.398438 380.050781 C 731.429688 380.050781 736.332031 384.941406 736.332031 390.984375 L 736.332031 457.742188 C 736.332031 463.773438 731.429688 468.675781 725.398438 468.675781 Z M 725.398438 468.675781 " fill-opacity="1" fill-rule="nonzero"/><path fill="#e1e1e1" d="M 161.117188 578.378906 L 94.359375 578.378906 C 88.328125 578.378906 83.425781 573.488281 83.425781 567.445312 L 83.425781 500.6875 C 83.425781 494.65625 88.316406 489.753906 94.359375 489.753906 L 161.117188 489.753906 C 167.148438 489.753906 172.050781 494.644531 172.050781 500.6875 L 172.050781 567.445312 C 172.050781 573.488281 167.164062 578.378906 161.117188 578.378906 Z M 161.117188 578.378906 " fill-opacity="1" fill-rule="nonzero"/><path fill="#e1e1e1" d="M 273.984375 578.378906 L 207.226562 578.378906 C 201.195312 578.378906 196.292969 573.488281 196.292969 567.445312 L 196.292969 500.6875 C 196.292969 494.65625 201.183594 489.753906 207.226562 489.753906 L 273.984375 489.753906 C 280.015625 489.753906 284.917969 494.644531 284.917969 500.6875 L 284.917969 567.445312 C 284.90625 573.488281 280.015625 578.378906 273.984375 578.378906 Z M 273.984375 578.378906 " fill-opacity="1" fill-rule="nonzero"/><path fill="#e1e1e1" d="M 386.839844 578.378906 L 320.082031 578.378906 C 314.050781 578.378906 309.148438 573.488281 309.148438 567.445312 L 309.148438 500.6875 C 309.148438 494.65625 314.035156 489.753906 320.082031 489.753906 L 386.839844 489.753906 C 392.871094 489.753906 397.773438 494.644531 397.773438 500.6875 L 397.773438 567.445312 C 397.757812 573.488281 392.871094 578.378906 386.839844 578.378906 Z M 386.839844 578.378906 " fill-opacity="1" fill-rule="nonzero"/><path fill="#e1e1e1" d="M 499.691406 578.378906 L 432.933594 578.378906 C 426.902344 578.378906 422 573.488281 422 567.445312 L 422 500.6875 C 422 494.65625 426.890625 489.753906 432.933594 489.753906 L 499.691406 489.753906 C 505.722656 489.753906 510.625 494.644531 510.625 500.6875 L 510.625 567.445312 C 510.613281 573.488281 505.722656 578.378906 499.691406 578.378906 Z M 499.691406 578.378906 " fill-opacity="1" fill-rule="nonzero"/><path fill="#e1e1e1" d="M 612.546875 578.378906 L 545.789062 578.378906 C 539.757812 578.378906 534.855469 573.488281 534.855469 567.445312 L 534.855469 500.6875 C 534.855469 494.65625 539.742188 489.753906 545.789062 489.753906 L 612.546875 489.753906 C 618.578125 489.753906 623.480469 494.644531 623.480469 500.6875 L 623.480469 567.445312 C 623.480469 573.488281 618.578125 578.378906 612.546875 578.378906 Z M 612.546875 578.378906 " fill-opacity="1" fill-rule="nonzero"/><path fill="#e1e1e1" d="M 725.398438 578.378906 L 658.640625 578.378906 C 652.609375 578.378906 647.707031 573.488281 647.707031 567.445312 L 647.707031 500.6875 C 647.707031 494.65625 652.597656 489.753906 658.640625 489.753906 L 725.398438 489.753906 C 731.429688 489.753906 736.332031 494.644531 736.332031 500.6875 L 736.332031 567.445312 C 736.332031 573.488281 731.429688 578.378906 725.398438 578.378906 Z M 725.398438 578.378906 " fill-opacity="1" fill-rule="nonzero"/><path fill="#e1e1e1" d="M 161.117188 694.125 L 94.359375 694.125 C 88.328125 694.125 83.425781 689.234375 83.425781 683.191406 L 83.425781 616.433594 C 83.425781 610.402344 88.316406 605.5 94.359375 605.5 L 161.117188 605.5 C 167.148438 605.5 172.050781 610.390625 172.050781 616.433594 L 172.050781 683.191406 C 172.050781 689.234375 167.164062 694.125 161.117188 694.125 Z M 161.117188 694.125 " fill-opacity="1" fill-rule="nonzero"/><path fill="#e1e1e1" d="M 273.984375 694.125 L 207.226562 694.125 C 201.195312 694.125 196.292969 689.234375 196.292969 683.191406 L 196.292969 616.433594 C 196.292969 610.402344 201.183594 605.5 207.226562 605.5 L 273.984375 605.5 C 280.015625 605.5 284.917969 610.390625 284.917969 616.433594 L 284.917969 683.191406 C 284.90625 689.234375 280.015625 694.125 273.984375 694.125 Z M 273.984375 694.125 " fill-opacity="1" fill-rule="nonzero"/><path fill="#e1e1e1" d="M 386.839844 694.125 L 320.082031 694.125 C 314.050781 694.125 309.148438 689.234375 309.148438 683.191406 L 309.148438 616.433594 C 309.148438 610.402344 314.035156 605.5 320.082031 605.5 L 386.839844 605.5 C 392.871094 605.5 397.773438 610.390625 397.773438 616.433594 L 397.773438 683.191406 C 397.757812 689.234375 392.871094 694.125 386.839844 694.125 Z M 386.839844 694.125 " fill-opacity="1" fill-rule="nonzero"/><path fill="#e1e1e1" d="M 499.691406 694.125 L 432.933594 694.125 C 426.902344 694.125 422 689.234375 422 683.191406 L 422 616.433594 C 422 610.402344 426.890625 605.5 432.933594 605.5 L 499.691406 605.5 C 505.722656 605.5 510.625 610.390625 510.625 616.433594 L 510.625 683.191406 C 510.613281 689.234375 505.722656 694.125 499.691406 694.125 Z M 499.691406 694.125 " fill-opacity="1" fill-rule="nonzero"/><path fill="#e1e1e1" d="M 612.546875 694.125 L 545.789062 694.125 C 539.757812 694.125 534.855469 689.234375 534.855469 683.191406 L 534.855469 616.433594 C 534.855469 610.402344 539.742188 605.5 545.789062 605.5 L 612.546875 605.5 C 618.578125 605.5 623.480469 610.390625 623.480469 616.433594 L 623.480469 683.191406 C 623.480469 689.234375 618.578125 694.125 612.546875 694.125 Z M 612.546875 694.125 " fill-opacity="1" fill-rule="nonzero"/><path fill="#e1e1e1" d="M 725.398438 694.125 L 658.640625 694.125 C 652.609375 694.125 647.707031 689.234375 647.707031 683.191406 L 647.707031 616.433594 C 647.707031 610.402344 652.597656 605.5 658.640625 605.5 L 725.398438 605.5 C 731.429688 605.5 736.332031 610.390625 736.332031 616.433594 L 736.332031 683.191406 C 736.332031 689.234375 731.429688 694.125 725.398438 694.125 Z M 725.398438 694.125 " fill-opacity="1" fill-rule="nonzero"/></svg>