<svg xmlns="http://www.w3.org/2000/svg" xmlns:xlink="http://www.w3.org/1999/xlink" width="1080" zoomAndPan="magnify" viewBox="0 0 810 809.999993" height="1080" preserveAspectRatio="xMidYMid meet" version="1.0"><defs><clipPath id="d3425e10a8"><path d="M 108.335938 0 L 701.585938 0 L 701.585938 810 L 108.335938 810 Z M 108.335938 0 " clip-rule="nonzero"/></clipPath></defs><g clip-path="url(#d3425e10a8)"><path fill="#00aaff" d="M 696.28125 85.046875 L 682.566406 85.046875 C 679 37.171875 651.703125 0 618.503906 0 C 616.3125 0 614.117188 0.136719 611.921875 0.546875 C 600.671875 0.273438 588.875 1.785156 580.785156 1.785156 C 546.492188 1.785156 518.371094 41.5625 516.449219 91.769531 L 503.417969 92.316406 L 499.578125 92.453125 C 499.578125 91.492188 499.441406 90.671875 499.167969 89.847656 C 498.753906 87.925781 497.65625 86.28125 495.460938 85.320312 C 494.226562 84.773438 492.582031 84.773438 491.074219 84.910156 C 490.113281 82.441406 488.878906 80.382812 485.3125 80.929688 C 482.429688 81.34375 479.550781 82.988281 476.667969 84.359375 C 476.394531 82.304688 475.710938 80.246094 474.0625 79.011719 C 471.867188 77.363281 470.222656 78.460938 468.578125 80.246094 C 466.792969 82.164062 465.011719 83.675781 463.089844 85.320312 C 459.796875 88.0625 458.425781 90.808594 457.328125 94.238281 L 323.3125 100 C 323.722656 97.804688 322.898438 96.292969 321.527344 94.375 C 320.15625 92.453125 318.921875 90.671875 317.414062 89.023438 C 315.90625 87.515625 314.667969 85.046875 312.613281 84.359375 C 309.320312 83.125 306.027344 85.320312 303.695312 87.789062 C 300.542969 86.691406 295.191406 90.808594 294.230469 94.101562 C 290.9375 95.058594 289.019531 98.078125 288.332031 101.644531 L 284.082031 101.78125 C 280.789062 55.007812 253.355469 18.65625 220.019531 18.65625 C 216.867188 18.65625 213.847656 18.929688 210.832031 19.617188 C 203.148438 19.617188 195.054688 20.4375 187.238281 20.4375 C 152.945312 20.4375 124.824219 59.121094 122.902344 107.816406 L 113.574219 107.816406 C 110.695312 107.816406 108.363281 110.285156 108.363281 113.304688 L 108.363281 118.515625 C 108.363281 121.535156 110.695312 124.003906 113.574219 124.003906 L 123.179688 124.003906 C 127.019531 169.957031 154.179688 205.484375 187.101562 205.484375 C 196.976562 205.484375 211.105469 206.304688 223.175781 203.5625 C 223.175781 203.5625 223.3125 203.5625 223.3125 203.5625 C 250.472656 201.503906 273.105469 175.304688 281.199219 139.777344 C 281.613281 142.933594 282.707031 144.578125 285.179688 145.128906 C 285.316406 146.636719 285.179688 148.144531 285.179688 149.792969 C 285.179688 152.945312 286 155.964844 286.414062 159.121094 C 287.234375 166.527344 286.6875 173.933594 287.234375 181.339844 C 287.648438 187.925781 287.921875 194.371094 290.253906 200.683594 C 292.449219 206.71875 294.644531 212.753906 296.976562 218.652344 C 298.484375 222.765625 300.265625 226.472656 302.324219 230.175781 C 303.285156 236.894531 305.480469 243.753906 307.8125 249.789062 C 312.0625 260.488281 317.960938 269.40625 325.230469 278.183594 C 328.523438 282.164062 332.363281 285.316406 335.929688 288.882812 C 335.65625 293.136719 335.246094 297.390625 335.246094 301.777344 C 335.246094 304.933594 338.8125 308.636719 341.828125 310.695312 C 339.085938 317.691406 335.382812 324.410156 331.953125 331.132812 C 328.386719 338.402344 323.996094 344.988281 322.078125 353.082031 C 320.292969 360.761719 321.117188 369.542969 323.859375 376.8125 C 326.742188 384.355469 329.484375 392.175781 332.914062 399.445312 C 334.972656 403.835938 337.578125 407.949219 339.636719 412.339844 C 340.457031 413.984375 341.144531 415.769531 341.828125 417.550781 C 342.515625 419.882812 343.203125 422.078125 343.613281 424.273438 C 344.574219 429.347656 344.847656 434.285156 344.847656 439.363281 C 344.847656 444.300781 345.394531 449.238281 345.257812 454.3125 C 345.257812 457.46875 344.4375 462.132812 345.808594 465.011719 C 346.632812 466.933594 348.277344 469.265625 350.199219 471.183594 C 349.238281 471.597656 348.277344 472.007812 347.726562 472.695312 C 346.355469 474.203125 346.632812 476.945312 346.769531 478.867188 C 346.769531 483.53125 346.21875 488.878906 348.277344 493.132812 C 344.710938 494.777344 341.144531 496.699219 337.578125 498.621094 C 332.914062 501.089844 328.9375 504.65625 324.410156 507.398438 C 319.195312 510.554688 314.121094 513.984375 308.632812 516.726562 C 305.480469 518.371094 287.511719 523.996094 293.269531 530.304688 C 292.996094 530.582031 292.585938 530.855469 292.3125 531.128906 C 290.527344 532.5 288.746094 533.734375 286.824219 534.96875 C 279.828125 539.632812 274.066406 545.808594 268.71875 552.390625 C 266.25 555.410156 263.640625 558.289062 260.898438 561.308594 C 259.664062 562.679688 258.429688 564.1875 257.058594 565.695312 C 256.785156 566.109375 256.371094 566.382812 255.960938 566.792969 C 251.980469 566.246094 250.746094 570.496094 248.964844 574.339844 C 246.496094 579.6875 241.695312 583.527344 239.910156 589.289062 C 238.265625 594.777344 239.089844 600.402344 238.402344 605.886719 C 237.855469 610.828125 236.617188 615.902344 237.03125 620.976562 C 237.167969 623.582031 237.714844 626.464844 238.402344 628.933594 C 238.949219 630.851562 240.1875 632.226562 241.421875 633.460938 C 240.1875 639.90625 240.1875 647.039062 240.460938 653.347656 C 240.871094 661.71875 242.929688 670.222656 244.300781 678.453125 C 245.535156 686.269531 246.496094 694.363281 247.179688 702.320312 C 247.867188 709.453125 249.511719 716.449219 250.886719 723.445312 C 251.570312 727.285156 252.394531 730.988281 252.941406 734.828125 C 250.746094 736.203125 250.472656 739.769531 250.199219 742.511719 C 249.652344 746.488281 249.101562 750.328125 248.414062 754.308594 C 246.90625 753.757812 245.261719 753.210938 243.753906 753.347656 C 240.324219 753.484375 239.226562 757.050781 238.128906 759.933594 C 237.03125 762.8125 236.34375 765.832031 234.835938 768.4375 C 233.328125 771.179688 231.132812 773.101562 229.074219 775.15625 C 227.152344 776.941406 226.195312 778.585938 226.058594 780.78125 C 221.257812 784.484375 216.316406 787.230469 210.96875 790.246094 C 206.988281 792.441406 199.582031 796.832031 202.875 802.730469 C 206.714844 809.449219 217.6875 809.589844 224.136719 809.726562 C 232.367188 809.863281 240.871094 809.863281 249.101562 809.449219 C 254.175781 809.175781 258.292969 807.53125 261.996094 804.925781 C 269.675781 806.023438 277.632812 805.472656 285.453125 805.199219 C 290.527344 805.0625 298.347656 807.667969 298.894531 800.125 C 299.167969 797.378906 298.347656 794.773438 297.25 792.167969 C 298.347656 790.382812 298.757812 788.328125 298.347656 785.582031 C 297.523438 779.410156 294.367188 774.0625 293.683594 767.75 C 293.269531 764.734375 293.683594 761.167969 291.214844 758.972656 C 290.117188 758.011719 288.882812 757.601562 287.511719 757.738281 C 287.648438 756.503906 287.785156 755.269531 287.785156 754.035156 C 288.058594 751.289062 288.332031 748.683594 288.332031 745.804688 C 288.332031 743.335938 288.746094 740.453125 287.097656 738.257812 C 286.414062 737.296875 285.316406 736.75 284.355469 736.339844 C 284.628906 731.398438 284.628906 726.597656 285.039062 721.660156 C 285.726562 713.566406 287.648438 705.613281 289.019531 697.65625 C 290.527344 689.289062 290.390625 680.921875 290.390625 672.417969 C 290.390625 663.910156 292.3125 655.40625 291.625 646.902344 C 291.351562 642.785156 290.9375 637.300781 289.292969 632.773438 C 291.078125 630.992188 291.625 627.835938 291.898438 625.230469 C 292.035156 623.582031 292.171875 621.9375 292.449219 620.429688 C 295.054688 620.015625 296.976562 618.644531 299.445312 616.449219 C 300.816406 615.351562 301.363281 614.117188 301.636719 612.882812 C 308.085938 612.472656 315.082031 609.042969 320.707031 606.710938 C 324.273438 605.203125 327.839844 603.691406 331.40625 602.046875 C 332.363281 601.636719 333.601562 601.222656 334.695312 600.675781 C 336.207031 602.046875 337.988281 603.144531 340.046875 603.144531 C 345.121094 603.144531 350.746094 599.714844 355.410156 597.65625 C 369.402344 591.484375 383.253906 584.625 396.699219 577.082031 C 402.1875 573.925781 407.671875 570.632812 413.023438 567.207031 C 417.6875 571.730469 421.527344 577.21875 424.820312 582.84375 C 428.523438 589.015625 430.167969 596.285156 433.324219 602.871094 C 438.261719 612.882812 444.296875 622.074219 449.097656 632.085938 C 450.746094 635.378906 452.9375 636.613281 455.820312 635.652344 C 457.601562 637.984375 460.210938 640.179688 462.128906 641.964844 C 463.777344 643.472656 465.558594 644.980469 467.480469 646.351562 C 465.558594 649.234375 465.96875 651.839844 468.300781 655.40625 C 471.59375 660.34375 474.886719 665.144531 479.140625 669.125 C 481.195312 671.042969 483.390625 672.964844 485.175781 675.160156 C 486.546875 676.804688 487.507812 678.589844 488.878906 680.234375 C 492.171875 683.9375 496.695312 685.308594 500.8125 687.503906 C 502.734375 688.601562 504.789062 690.25 507.121094 690.386719 C 508.769531 690.523438 510.140625 689.699219 511.511719 688.738281 C 512.609375 690.109375 513.84375 691.347656 514.667969 692.304688 C 516.449219 694.363281 518.097656 696.421875 519.878906 698.617188 C 523.445312 703.003906 526.875 707.667969 530.578125 711.921875 C 537.164062 719.328125 542.785156 727.285156 547.585938 735.925781 C 549.097656 738.53125 551.703125 741.414062 553.210938 744.429688 C 551.429688 745.117188 551.429688 747.3125 552.800781 749.644531 C 553.484375 750.878906 555.40625 754.582031 557.191406 756.503906 C 555.957031 757.601562 554.722656 758.558594 554.035156 760.207031 C 553.074219 762.261719 553.484375 764.457031 552.9375 766.652344 C 551.976562 770.90625 548.273438 774.058594 547.3125 778.3125 C 547.039062 779.273438 547.039062 780.234375 547.175781 781.332031 C 543.882812 785.582031 540.179688 788.328125 535.652344 791.617188 C 531.675781 794.5 525.230469 801.21875 531.128906 805.746094 C 536.613281 810 545.941406 808.902344 552.25 808.628906 C 559.660156 808.214844 566.929688 807.394531 574.335938 806.84375 C 577.492188 806.570312 580.785156 806.296875 583.800781 804.925781 C 585.722656 803.964844 587.503906 802.59375 589.152344 801.082031 C 589.5625 801.082031 589.972656 801.082031 590.386719 801.21875 C 594.226562 801.496094 601.90625 802.179688 603.691406 797.515625 C 604.652344 795.183594 604.238281 791.480469 603.28125 788.738281 C 604.515625 786.542969 604.378906 784.074219 603.964844 781.46875 C 603.554688 778.585938 602.046875 776.117188 601.359375 773.375 C 600.671875 770.632812 600.671875 767.75 600.261719 765.007812 C 599.851562 762.402344 598.890625 758.972656 596.96875 757.050781 C 595.460938 755.542969 593.816406 755.679688 592.03125 756.089844 C 591.757812 754.445312 591.484375 752.660156 591.207031 751.152344 C 590.523438 748.410156 589.289062 745.941406 588.054688 743.472656 C 587.09375 741.550781 585.859375 738.257812 583.9375 737.160156 C 583.117188 736.613281 582.019531 736.75 580.921875 737.023438 C 579.273438 732.085938 578.175781 727.011719 576.667969 721.933594 C 572.554688 707.804688 567.066406 694.226562 561.578125 680.785156 C 558.835938 673.789062 556.09375 667.339844 550.332031 662.539062 C 545.804688 658.699219 540.867188 654.996094 535.792969 651.976562 C 535.929688 650.605469 535.792969 649.097656 535.378906 647.589844 C 534.007812 641.277344 529.34375 639.632812 525.230469 635.515625 C 522.210938 632.5 518.371094 627.148438 513.84375 628.109375 C 513.707031 626.738281 513.433594 625.503906 513.15625 624.132812 C 512.472656 621.386719 511.648438 618.917969 511.375 616.175781 C 511.101562 613.019531 510.277344 609.867188 509.589844 606.710938 C 509.453125 606.160156 509.316406 605.613281 509.179688 605.066406 C 510.824219 603.417969 511.921875 601.359375 511.785156 598.753906 C 511.511719 595.601562 509.316406 592.992188 507.945312 590.25 C 506.160156 586.546875 505.476562 582.292969 504.242188 578.316406 C 502.871094 573.652344 500.261719 569.398438 498.753906 564.597656 C 497.382812 560.210938 496.148438 555.683594 494.640625 551.292969 C 494.777344 550.746094 494.914062 550.195312 494.914062 549.648438 C 495.460938 546.082031 495.324219 542.515625 495.324219 538.949219 C 495.1875 525.230469 490.660156 510.554688 484.625 498.34375 C 481.609375 492.308594 477.492188 486.960938 472.691406 482.296875 C 467.617188 477.359375 462.265625 472.28125 456.367188 468.441406 C 457.328125 467.070312 457.742188 465.421875 457.328125 463.367188 C 456.917969 460.757812 455.820312 458.429688 454.996094 455.957031 C 453.625 451.980469 451.429688 446.355469 447.589844 444.023438 C 448.550781 442.789062 449.234375 441.417969 449.511719 439.910156 C 449.921875 437.304688 449.234375 435.109375 448.550781 432.777344 C 446.765625 426.464844 444.984375 420.019531 444.984375 413.574219 C 444.984375 405.617188 444.984375 397.523438 444.984375 389.566406 C 444.984375 382.160156 445.804688 375.574219 448 368.441406 C 449.785156 362.683594 451.429688 356.921875 453.214844 351.296875 C 454.996094 349.101562 456.644531 346.90625 458.152344 344.4375 C 462.816406 336.757812 463.640625 326.46875 466.792969 317.964844 C 468.851562 312.203125 472.28125 304.246094 467.066406 299.855469 C 467.34375 299.171875 467.617188 298.484375 467.890625 297.800781 C 468.441406 296.289062 468.714844 294.644531 469.125 293.136719 C 471.320312 294.78125 474.0625 295.878906 476.257812 296.976562 C 476.394531 294.917969 475.984375 293.136719 477.492188 291.488281 C 479.550781 293.410156 481.058594 296.152344 483.253906 297.9375 C 483.664062 296.152344 484.625 295.054688 485.722656 293.957031 C 487.371094 297.9375 494.503906 302.328125 498.617188 301.367188 C 498.480469 299.71875 496.558594 298.347656 496.011719 296.839844 C 495.601562 295.46875 495.460938 293.410156 496.011719 292.039062 C 502.871094 294.371094 509.179688 296.429688 516.585938 294.917969 C 513.84375 293.410156 509.867188 291.488281 509.453125 287.921875 C 513.019531 287.238281 517.820312 289.84375 521.25 287.648438 C 515.488281 286.277344 513.980469 280.515625 511.375 275.714844 C 515.488281 275.578125 518.644531 274.753906 521.9375 271.601562 C 520.015625 272.421875 517.273438 271.460938 515.625 270.226562 C 514.117188 269.128906 513.15625 265.976562 510.964844 266.25 C 512.335938 265.5625 516.3125 262.410156 515.765625 260.078125 C 513.980469 259.390625 511.785156 259.941406 510.140625 260.214844 C 511.101562 258.980469 512.058594 257.746094 513.019531 256.511719 C 513.84375 255.414062 515.625 253.628906 515.625 252.394531 C 514.253906 252.257812 512.882812 252.394531 511.511719 252.394531 C 513.84375 250.0625 516.449219 248.28125 518.507812 245.8125 C 516.585938 246.085938 514.941406 247.046875 512.746094 247.183594 C 510.277344 247.183594 507.808594 247.183594 505.476562 246.773438 C 503.828125 246.496094 502.320312 245.8125 500.8125 245.398438 C 499.167969 244.851562 497.792969 244.988281 496.011719 244.851562 C 496.558594 243.617188 499.167969 240.875 498.070312 240.050781 C 497.109375 239.226562 492.992188 240.324219 491.894531 240.734375 C 492.71875 239.363281 493.953125 238.128906 494.640625 236.621094 C 495.324219 235.25 495.875 234.289062 497.109375 233.464844 C 494.777344 233.464844 492.308594 234.425781 490.25 235.523438 C 491.894531 234.015625 493.128906 232.230469 494.089844 230.035156 C 495.050781 228.117188 496.972656 225.648438 496.835938 223.453125 C 493.269531 226.46875 489.839844 229.625 485.996094 232.09375 C 482.980469 234.015625 479.550781 234.835938 476.121094 234.976562 C 476.53125 233.054688 476.671875 231.132812 476.945312 229.214844 C 477.492188 225.371094 477.90625 221.394531 478.042969 217.554688 C 478.453125 210.832031 478.316406 204.25 480.375 198.074219 C 482.292969 192.453125 484.488281 186.691406 485.859375 180.792969 C 487.507812 174.070312 489.289062 167.347656 490.796875 160.628906 C 491.484375 157.609375 491.894531 154.453125 491.894531 151.300781 C 491.894531 150.066406 492.171875 148.144531 492.171875 146.5 C 493.40625 146.5 494.503906 146.085938 495.460938 144.851562 C 496.972656 143.070312 497.382812 141.011719 497.519531 138.679688 C 497.933594 129.902344 501.222656 121.257812 502.457031 112.617188 C 502.59375 111.65625 502.871094 110.148438 503.144531 108.363281 L 516.585938 107.953125 C 519.878906 156.101562 547.3125 193.6875 580.644531 193.6875 C 588.054688 193.6875 601.359375 193.550781 613.980469 191.765625 C 615.488281 191.902344 616.859375 192.039062 618.367188 192.039062 C 651.839844 192.039062 679.273438 154.179688 682.429688 105.894531 L 696.144531 105.894531 C 699.027344 105.894531 701.359375 103.425781 701.359375 100.410156 L 701.359375 91.628906 C 701.632812 87.515625 699.164062 85.046875 696.28125 85.046875 Z M 459.660156 109.324219 C 461.167969 111.382812 462.679688 113.304688 463.363281 115.910156 C 464.875 121.121094 465.285156 127.296875 464.460938 132.917969 C 463.914062 136.210938 464.875 137.035156 466.519531 138.679688 C 466.109375 139.777344 465.695312 140.738281 465.421875 141.5625 C 464.875 143.894531 464.1875 146.226562 463.5 148.421875 C 461.992188 153.222656 460.621094 157.886719 458.835938 162.410156 C 455.683594 170.640625 452.527344 179.007812 451.15625 187.652344 C 450.746094 189.984375 450.746094 192.179688 450.605469 194.371094 C 449.785156 193.6875 448.960938 193.136719 448.273438 192.863281 C 447.316406 192.453125 446.355469 192.453125 445.394531 192.453125 C 444.433594 190.667969 442.375 189.160156 440.867188 188.472656 C 439.496094 187.789062 438.261719 187.652344 437.027344 187.515625 C 436.753906 185.730469 436.066406 183.949219 434.695312 182.164062 C 430.855469 177.226562 429.207031 170.367188 423.585938 166.9375 C 416.726562 162.960938 408.085938 164.742188 400.675781 166.664062 C 397.796875 164.605469 394.640625 163.234375 390.527344 163.507812 C 385.585938 163.785156 381.609375 165.839844 377.632812 168.859375 C 373.929688 171.738281 369.402344 173.660156 365.972656 176.816406 C 362.816406 179.695312 361.445312 184.222656 361.171875 188.472656 C 360.898438 192.039062 362.269531 194.507812 364.324219 196.839844 C 362.953125 201.367188 361.035156 205.757812 360.074219 210.421875 C 359.25 214.8125 357.46875 219.886719 359.664062 224 C 360.347656 225.375 361.035156 226.609375 361.996094 227.566406 C 361.855469 229.351562 362.132812 231.410156 362.132812 232.644531 C 362.132812 235.660156 361.996094 238.679688 361.855469 241.695312 C 361.855469 244.441406 362.132812 246.773438 362.679688 249.378906 C 362.953125 250.476562 363.230469 251.710938 363.640625 252.808594 C 361.71875 251.300781 359.523438 250.0625 358.289062 249.105469 C 356.644531 247.871094 354.3125 246.636719 352.253906 247.046875 C 351.570312 245.402344 350.746094 243.753906 350.058594 242.109375 C 347.726562 236.484375 345.121094 230.722656 342.105469 225.511719 C 340.183594 222.082031 337.714844 219.0625 335.519531 215.910156 C 334.421875 214.398438 333.601562 212.753906 332.363281 211.246094 C 332.363281 211.109375 332.226562 211.109375 332.089844 210.96875 C 332.363281 208.914062 331.953125 206.582031 331.816406 204.933594 C 331.679688 202.601562 331.128906 200.269531 330.582031 198.078125 C 329.347656 193 326.878906 188.199219 324.820312 183.535156 C 322.625 178.597656 320.707031 173.523438 318.648438 168.445312 C 316.589844 163.371094 314.394531 158.433594 312.199219 153.496094 C 311.242188 151.300781 310.417969 148.96875 309.183594 146.910156 C 308.910156 146.636719 308.773438 146.089844 308.359375 145.539062 C 309.320312 145.265625 310.144531 144.851562 310.691406 144.167969 C 312.199219 142.660156 311.242188 140.191406 310.828125 138.132812 C 310.007812 134.429688 309.183594 130.449219 309.046875 126.472656 C 310.417969 125.375 311.652344 123.867188 312.75 123.042969 C 314.671875 121.535156 316.726562 120.164062 318.785156 118.652344 C 320.84375 117.007812 321.941406 115.363281 322.488281 113.441406 L 459.386719 108.777344 C 459.523438 109.1875 459.523438 109.1875 459.660156 109.324219 Z M 459.660156 109.324219 " fill-opacity="1" fill-rule="nonzero"/></g></svg>