<svg xmlns="http://www.w3.org/2000/svg" xmlns:xlink="http://www.w3.org/1999/xlink" width="1080" zoomAndPan="magnify" viewBox="0 0 810 809.999993" height="1080" preserveAspectRatio="xMidYMid meet" version="1.0"><defs><clipPath id="aae3a1cc15"><path d="M 104.570312 104.570312 L 705.320312 104.570312 L 705.320312 705.320312 L 104.570312 705.320312 Z M 104.570312 104.570312 " clip-rule="nonzero"/></clipPath></defs><path fill="#0e3c58" d="M 803.355469 406.789062 C 797.554688 620.714844 602.574219 809.785156 402.824219 807.320312 C 238.59375 805.292969 127.679688 674.492188 106.09375 649.023438 C 77.894531 615.765625 3.664062 528.210938 2.289062 406.789062 C 0 205.136719 199.90625 17.378906 402.824219 6.253906 C 512.949219 0.214844 595.226562 47.777344 619.761719 63.171875 C 738.0625 137.359375 806.953125 274.503906 803.355469 406.789062 Z M 803.355469 406.789062 " fill-opacity="1" fill-rule="nonzero"/><g clip-path="url(#aae3a1cc15)"><path fill="#00aaff" d="M 705.417969 405.007812 C 705.417969 570.917969 570.925781 705.429688 404.992188 705.429688 C 239.066406 705.429688 104.570312 570.917969 104.570312 405.007812 C 104.570312 239.078125 239.066406 104.570312 404.992188 104.570312 C 570.925781 104.570312 705.417969 239.078125 705.417969 405.007812 " fill-opacity="1" fill-rule="nonzero"/></g><path fill="#f5f5f5" d="M 600.109375 242.691406 C 553.324219 187.144531 483.308594 151.824219 404.992188 151.824219 C 264.167969 151.824219 150.003906 265.96875 150.003906 406.789062 C 150.003906 507.617188 208.546875 594.734375 293.464844 636.113281 C 327.160156 652.539062 364.988281 661.769531 404.992188 661.769531 C 545.816406 661.769531 659.96875 547.601562 659.96875 406.789062 C 659.96875 344.273438 637.429688 287.054688 600.109375 242.691406 " fill-opacity="1" fill-rule="nonzero"/><path fill="#1873aa" d="M 410.140625 252.230469 C 410.140625 253.636719 407.851562 254.769531 404.996094 254.769531 C 402.15625 254.769531 399.835938 253.636719 399.835938 252.230469 L 399.835938 180.820312 C 399.835938 179.429688 402.15625 178.296875 404.996094 178.296875 C 407.851562 178.296875 410.140625 179.429688 410.140625 180.820312 L 410.140625 252.230469 " fill-opacity="1" fill-rule="nonzero"/><path fill="#1873aa" d="M 410.140625 637.632812 C 410.140625 639.019531 407.847656 640.160156 404.992188 640.160156 C 402.15625 640.160156 399.835938 639.019531 399.835938 637.632812 L 399.835938 566.210938 C 399.835938 564.816406 402.15625 563.675781 404.992188 563.675781 C 407.847656 563.675781 410.140625 564.816406 410.140625 566.210938 L 410.140625 637.632812 " fill-opacity="1" fill-rule="nonzero"/><path fill="#1873aa" d="M 564.347656 414.367188 C 562.949219 414.367188 561.820312 412.070312 561.820312 409.222656 C 561.820312 406.378906 562.949219 404.070312 564.347656 404.070312 L 635.757812 404.070312 C 637.171875 404.070312 638.289062 406.378906 638.289062 409.222656 C 638.289062 412.070312 637.171875 414.367188 635.757812 414.367188 L 564.347656 414.367188 " fill-opacity="1" fill-rule="nonzero"/><path fill="#00aaff" d="M 391.828125 407.367188 L 398.53125 419.527344 L 244.523438 504.574219 L 228.546875 505.804688 L 237.796875 492.414062 L 391.828125 407.367188 " fill-opacity="1" fill-rule="nonzero"/><path fill="#1873aa" d="M 175.261719 414.363281 C 173.871094 414.363281 172.742188 412.070312 172.742188 409.226562 C 172.742188 406.378906 173.871094 404.066406 175.261719 404.066406 L 246.671875 404.066406 C 248.074219 404.066406 249.210938 406.378906 249.210938 409.226562 C 249.210938 412.070312 248.074219 414.363281 246.671875 414.363281 L 175.261719 414.363281 " fill-opacity="1" fill-rule="nonzero"/><path fill="#082b3f" d="M 397.832031 395.109375 C 411.433594 395.109375 422.449219 406.136719 422.449219 419.738281 C 422.449219 433.335938 411.433594 444.359375 397.832031 444.359375 C 384.226562 444.359375 373.191406 433.335938 373.191406 419.738281 C 373.191406 406.136719 384.226562 395.109375 397.832031 395.109375 " fill-opacity="1" fill-rule="nonzero"/><path fill="#082b3f" d="M 399.59375 401.410156 L 378.867188 419.738281 L 316.386719 348.089844 L 316.386719 325.703125 L 337.117188 329.753906 L 399.59375 401.410156 " fill-opacity="1" fill-rule="nonzero"/><path fill="#082b3f" d="M 409.519531 420.886719 L 397.820312 403.128906 L 565.65625 292.472656 L 585.136719 291.804688 L 577.375 310.21875 L 409.519531 420.886719 " fill-opacity="1" fill-rule="nonzero"/></svg>