<svg xmlns="http://www.w3.org/2000/svg" xmlns:xlink="http://www.w3.org/1999/xlink" width="1080" zoomAndPan="magnify" viewBox="0 0 810 809.999993" height="1080" preserveAspectRatio="xMidYMid meet" version="1.0"><defs><clipPath id="331fe3c8d5"><path d="M 538 361 L 752.6875 361 L 752.6875 509 L 538 509 Z M 538 361 " clip-rule="nonzero"/></clipPath><clipPath id="6e4fa0a3e0"><path d="M 57.4375 347 L 540 347 L 540 464 L 57.4375 464 Z M 57.4375 347 " clip-rule="nonzero"/></clipPath></defs><path fill="#00aaff" d="M 355.261719 25.421875 C 353.472656 30.003906 351.679688 34.585938 349.890625 39.167969 C 349.132812 41.109375 348.378906 43.320312 349.257812 45.210938 C 350.050781 46.914062 351.988281 47.875 352.753906 49.59375 C 353.808594 51.960938 352.269531 54.585938 351.371094 57.019531 C 348.074219 65.988281 353.703125 75.707031 353.652344 85.261719 C 353.636719 88.398438 353.003906 91.519531 353.179688 94.652344 C 353.355469 97.78125 354.546875 101.109375 357.238281 102.71875 C 359.507812 104.082031 362.328125 103.953125 364.96875 104.148438 C 367.613281 104.339844 370.570312 105.148438 371.789062 107.496094 C 372.445312 108.757812 372.472656 110.238281 372.480469 111.660156 C 372.527344 118.292969 372.578125 124.921875 372.625 131.550781 C 372.640625 133.898438 369.710938 135.265625 367.5625 136.207031 C 360.382812 139.34375 353.203125 142.480469 346.027344 145.617188 C 343.394531 146.765625 340.679688 147.976562 338.734375 150.09375 C 336.695312 152.3125 335.734375 155.292969 334.828125 158.171875 C 331.800781 167.792969 328.769531 177.417969 325.738281 187.042969 C 324.164062 192.050781 322.566406 197.226562 323.078125 202.449219 C 323.402344 205.792969 320.234375 209.691406 319.160156 212.875 C 317.996094 216.335938 316.828125 219.804688 316.011719 223.363281 C 315.101562 227.347656 314.632812 231.425781 313.605469 235.378906 C 310.234375 248.347656 301.160156 259 295.539062 271.164062 C 289.800781 283.578125 287.761719 297.371094 286.738281 311.011719 C 285.714844 324.652344 285.632812 338.386719 283.527344 351.902344 C 281.390625 365.613281 281.042969 379.394531 272.148438 390.042969 C 268.429688 394.492188 263.414062 398.203125 261.65625 403.726562 C 260.839844 406.292969 260.8125 409.03125 260.792969 411.722656 C 260.765625 415.492188 260.914062 419.703125 263.597656 422.347656 C 264.816406 423.550781 266.445312 424.277344 267.644531 425.5 C 268.628906 426.5 269.3125 427.816406 270.484375 428.585938 C 271.433594 429.207031 272.589844 429.394531 273.707031 429.5625 C 279.152344 430.378906 284.621094 431.011719 290.109375 431.464844 C 291.460938 431.574219 292.910156 431.65625 294.089844 430.976562 C 296.605469 429.523438 296.695312 425.34375 299.410156 424.308594 C 300.796875 423.777344 302.503906 424.28125 303.730469 423.445312 C 304.386719 422.996094 304.765625 422.246094 305.082031 421.515625 C 307.371094 416.253906 307.988281 410.285156 306.820312 404.667969 C 305.359375 397.632812 301.238281 391.328125 300.089844 384.238281 C 298.039062 371.546875 305.71875 359.613281 311.945312 348.367188 C 321.46875 331.175781 328.265625 312.476562 332.007812 293.1875 C 333.890625 283.457031 335.089844 273.328125 339.933594 264.683594 C 341.402344 266.425781 341.421875 267.71875 341.429688 269.996094 C 341.46875 284.617188 341.511719 299.242188 341.554688 313.863281 C 341.570312 319.652344 341.574219 325.535156 339.996094 331.105469 C 337.863281 338.648438 332.96875 345.132812 330.40625 352.542969 C 329.238281 355.925781 328.570312 359.460938 327.90625 362.980469 C 325.1875 377.402344 322.464844 391.859375 321.417969 406.5 C 318.714844 444.449219 309.90625 479.8125 305.304688 517.574219 C 305.160156 518.738281 305.0625 520.050781 305.816406 520.945312 C 306.511719 521.769531 307.6875 521.949219 308.761719 522.074219 C 315.503906 522.855469 322.246094 523.636719 328.988281 524.417969 C 327.785156 536.097656 326.582031 547.90625 328.085938 559.554688 C 328.953125 566.285156 330.714844 572.882812 331.472656 579.628906 C 332.601562 589.679688 331.4375 599.757812 331.445312 609.832031 C 331.457031 624.367188 335.835938 638.941406 337.605469 653.355469 C 339.566406 669.300781 337.042969 685.355469 337.15625 701.417969 C 334.550781 701.363281 331.621094 703.542969 329.894531 705.496094 C 327.980469 707.664062 327.230469 710.582031 326.246094 713.300781 C 322.484375 723.675781 314.582031 732.222656 305.289062 738.175781 C 295.992188 744.128906 285.34375 747.667969 274.578125 750.101562 C 273.070312 750.441406 271.460938 750.8125 270.390625 751.929688 C 269.019531 753.355469 268.933594 755.601562 269.371094 757.53125 C 271.507812 766.910156 282.90625 770.976562 292.515625 770.515625 C 303.078125 770.007812 313.144531 766.09375 323.507812 763.976562 C 339.882812 760.632812 356.792969 761.804688 373.484375 762.605469 C 375.816406 762.71875 378.410156 762.734375 380.144531 761.171875 C 382.351562 759.191406 382.089844 755.71875 381.648438 752.78125 C 379.699219 739.828125 377.734375 726.796875 373.546875 714.386719 C 372.503906 711.292969 371.320312 708.238281 370.511719 705.074219 C 369.578125 701.421875 369.152344 697.648438 368.972656 693.882812 C 367.417969 661.121094 384.429688 628.945312 379.519531 596.519531 C 378.039062 586.730469 374.570312 577.171875 374.722656 567.273438 C 374.917969 554.484375 381.164062 542.117188 379.839844 529.394531 L 408.398438 528.792969 C 416.246094 546.585938 422.875 564.757812 430.722656 582.550781 C 433.214844 588.207031 435.722656 593.898438 437.140625 599.914062 C 439.34375 609.253906 438.851562 619.011719 440.289062 628.5 C 442.488281 642.964844 449.09375 656.355469 452.972656 670.464844 C 457.769531 687.925781 458.324219 706.234375 458.851562 724.335938 C 458.964844 728.183594 455.101562 730.800781 452.652344 733.765625 C 449.910156 737.082031 449.347656 741.613281 448.457031 745.820312 C 444.984375 762.207031 434.707031 777.042969 420.578125 786.046875 C 418.222656 787.550781 415.679688 788.976562 414.140625 791.3125 C 410.890625 796.265625 413.789062 803.398438 418.777344 806.585938 C 423.769531 809.773438 430.058594 809.988281 435.976562 809.714844 C 446.875 809.210938 457.980469 807.308594 467.429688 801.851562 C 470.984375 799.796875 474.269531 797.257812 478.019531 795.59375 C 486.25 791.9375 496.398438 792.582031 503.371094 786.886719 C 504.628906 785.867188 505.757812 784.617188 506.304688 783.09375 C 507.273438 780.394531 506.25 777.433594 505.28125 774.730469 C 501.59375 764.453125 498.644531 753.910156 496.46875 743.207031 C 496.136719 741.582031 495.800781 739.90625 494.878906 738.527344 C 493.925781 737.113281 492.4375 736.15625 491.226562 734.953125 C 487.214844 730.960938 486.613281 724.753906 486.511719 719.097656 C 485.777344 677.910156 498.828125 635.316406 485.4375 596.355469 C 481.691406 585.457031 475.992188 575.332031 471.828125 564.585938 C 467.667969 553.839844 465.066406 541.972656 467.875 530.796875 C 469.667969 531.664062 473.367188 529.648438 475.207031 528.882812 C 473.441406 498.066406 471.675781 467.253906 469.914062 436.433594 C 469.113281 422.464844 468.3125 408.433594 469.527344 394.496094 C 470.242188 386.308594 471.644531 378.160156 471.519531 369.945312 C 471.378906 360.867188 469.367188 351.886719 469.339844 342.804688 C 469.304688 333.171875 471.5 323.6875 472.691406 314.125 C 474.890625 296.515625 474.523438 291.71875 473.320312 274.011719 C 471.449219 246.53125 494.789062 221.980469 491.648438 194.617188 C 490.785156 187.121094 487.835938 179.945312 487.367188 172.414062 C 486.945312 165.667969 488.4375 158.40625 485.179688 152.488281 C 483.421875 149.296875 480.488281 146.949219 477.632812 144.691406 C 467.128906 136.386719 456.628906 128.085938 446.125 119.78125 C 440.617188 115.429688 434.75 110.914062 427.796875 109.953125 C 426.089844 109.714844 424.230469 109.652344 422.894531 108.566406 C 422.128906 107.941406 421.632812 107.050781 421.242188 106.148438 C 418.378906 99.566406 420.152344 91.859375 423.210938 85.371094 C 426.269531 78.878906 430.5625 72.976562 433.03125 66.238281 C 436.078125 57.933594 436.175781 48.878906 436.234375 40.035156 C 436.261719 35.972656 436.285156 31.851562 435.230469 27.929688 C 432.976562 19.558594 426.082031 13.148438 418.523438 8.902344 C 406.949219 2.398438 392.855469 -0.00390625 380.085938 3.625 C 367.308594 7.253906 360.09375 13.054688 355.261719 25.421875 Z M 355.261719 25.421875 " fill-opacity="1" fill-rule="nonzero"/><g clip-path="url(#331fe3c8d5)"><path fill="#00aaff" d="M 752.335938 444.246094 C 752.019531 448.945312 748.113281 452.558594 743.472656 452.558594 C 743.273438 452.558594 743.078125 452.558594 742.898438 452.539062 L 649.617188 446.554688 C 645.371094 481.625 622.285156 508.421875 594.425781 508.421875 C 564.707031 508.421875 540.398438 477.933594 538.621094 439.425781 C 538.542969 437.90625 538.503906 436.386719 538.503906 434.84375 C 538.503906 433.402344 538.542969 431.941406 538.621094 430.519531 C 538.742188 427.519531 538.996094 424.554688 539.429688 421.675781 C 544.109375 387.316406 566.957031 361.269531 594.425781 361.269531 C 623.75 361.269531 647.796875 390.988281 650.109375 428.78125 L 744.023438 434.804688 C 748.921875 435.121094 752.636719 439.347656 752.335938 444.246094 Z M 752.335938 444.246094 " fill-opacity="1" fill-rule="nonzero"/></g><g clip-path="url(#6e4fa0a3e0)"><path fill="#00aaff" d="M 538.621094 430.519531 C 538.542969 431.941406 538.503906 433.402344 538.503906 434.84375 C 538.503906 436.386719 538.542969 437.90625 538.621094 439.425781 L 212.960938 418.515625 C 207.53125 444.320312 186.066406 463.59375 160.417969 463.59375 C 132.554688 463.59375 109.648438 440.847656 106.84375 411.683594 L 66.125 409.074219 C 61.230469 408.757812 57.519531 404.535156 57.832031 399.636719 C 58.148438 394.738281 62.355469 391.007812 67.269531 391.34375 L 107.632812 393.929688 C 112.6875 367.527344 134.390625 347.679688 160.417969 347.679688 C 188.652344 347.679688 211.816406 371.042969 214.105469 400.777344 L 539.429688 421.671875 C 538.996094 424.554688 538.742188 427.519531 538.621094 430.519531 Z M 538.621094 430.519531 " fill-opacity="1" fill-rule="nonzero"/></g></svg>