<svg xmlns="http://www.w3.org/2000/svg" xmlns:xlink="http://www.w3.org/1999/xlink" width="1080" zoomAndPan="magnify" viewBox="0 0 810 809.999993" height="1080" preserveAspectRatio="xMidYMid meet" version="1.0"><path fill="#00aaff" d="M 210.980469 385.257812 C 212.363281 391.835938 213.574219 397.449219 214.71875 403.074219 C 217.792969 418.1875 224.660156 431.039062 236.9375 440.726562 C 250 451.039062 258.210938 464.65625 263.929688 480.058594 C 265.566406 484.460938 264.929688 488.777344 264.519531 493.109375 C 263.128906 507.800781 262.574219 522.53125 262.070312 537.265625 C 261.332031 558.871094 259.402344 580.332031 253.722656 601.285156 C 250.976562 611.425781 247.074219 621.15625 242.628906 630.667969 C 241.460938 633.171875 239.90625 635.375 238.058594 637.433594 C 233.792969 642.183594 229.570312 646.984375 226.109375 652.375 C 223.113281 657.035156 220.957031 661.960938 220.898438 667.679688 C 220.828125 674.574219 223.898438 679.601562 229.578125 683.207031 C 233.914062 685.960938 238.769531 687.199219 243.804688 687.644531 C 251.851562 688.363281 259.902344 687.972656 267.933594 687.214844 C 277.648438 686.292969 287.378906 686.675781 297.105469 686.746094 C 303.640625 686.792969 310.167969 686.960938 316.671875 685.925781 C 324.78125 684.640625 331.414062 681.285156 335.140625 673.601562 C 344.5 668.265625 354.910156 666.792969 365.191406 664.796875 C 376.984375 662.511719 384.191406 655.367188 385.257812 644.867188 C 385.816406 639.394531 385.328125 633.980469 383.789062 628.628906 C 381.007812 618.957031 376.625 609.910156 373.152344 600.511719 C 365.703125 580.339844 361.089844 559.445312 357.136719 538.382812 C 355.230469 528.238281 353.511719 518.058594 351.753906 507.890625 C 351.523438 506.566406 351.546875 505.199219 351.429688 503.457031 C 354.269531 504.175781 356.148438 505.980469 358.183594 507.324219 C 372.101562 516.515625 387.503906 521.503906 403.992188 522.390625 C 427.828125 523.675781 451.101562 527.164062 473.371094 536.171875 C 478.265625 538.152344 483.464844 539.390625 488.871094 541.082031 C 488.117188 543.875 487.242188 546.578125 486.671875 549.34375 C 484.96875 557.617188 485.148438 565.972656 485.984375 574.3125 C 486.742188 581.871094 487.621094 589.40625 487.386719 597.035156 C 487.207031 602.890625 485.457031 608.085938 481.542969 612.460938 C 477.273438 617.234375 472.667969 621.605469 466.996094 624.773438 C 462.621094 627.214844 458.324219 629.832031 454.8125 633.507812 C 446.945312 641.730469 446.894531 652.597656 454.730469 660.867188 C 460.597656 667.0625 468.171875 670.101562 476.371094 670.234375 C 492.175781 670.496094 507.976562 671.265625 523.773438 671.144531 C 534.214844 671.066406 542.800781 666.78125 547.261719 656.78125 C 550.335938 649.898438 551.984375 642.53125 549.675781 635.03125 C 544.230469 617.363281 547.878906 600.117188 551.757812 582.871094 C 553.023438 577.246094 554.601562 571.691406 556.09375 566.117188 C 556.820312 563.394531 558.410156 561.378906 560.734375 559.625 C 570.089844 552.574219 579.019531 545.011719 587.097656 536.488281 C 591.800781 531.519531 595.902344 526.128906 598.863281 519.347656 C 605.089844 525.109375 610.988281 530.53125 616.851562 535.992188 C 623.527344 542.210938 630.070312 548.554688 635.945312 555.566406 C 642.191406 563.019531 646.777344 571.296875 649.113281 580.785156 C 651.183594 589.191406 654.570312 597.207031 656.367188 605.710938 C 658.371094 615.199219 655.871094 623.15625 648.871094 629.710938 C 642.992188 635.210938 637 640.5625 631.648438 646.632812 C 622.410156 657.117188 622.796875 668.988281 633.261719 678.3125 C 641.273438 685.453125 650.792969 689.019531 661.492188 689.519531 C 669.136719 689.875 676.628906 688.394531 684.1875 687.707031 C 692.679688 686.933594 701.210938 687.488281 709.703125 686.9375 C 725.933594 685.882812 734.855469 674.191406 729.980469 658.71875 C 727.011719 649.285156 726.402344 639.695312 725.023438 630.152344 C 722.71875 614.214844 719.707031 598.40625 717.085938 582.53125 C 713.945312 563.53125 713.0625 544.53125 715.378906 525.355469 C 717.96875 503.917969 717.25 482.664062 711.671875 461.605469 C 708.5625 449.851562 708.527344 437.199219 710.433594 428.644531 C 711.417969 431.183594 712.132812 433.023438 712.839844 434.863281 C 717.273438 446.394531 722.449219 457.550781 730.207031 467.277344 C 739.996094 479.550781 752.105469 488.203125 767.933594 490.933594 C 774.140625 492.003906 780.042969 490.996094 785.769531 488.65625 C 791.882812 486.15625 797.09375 482.183594 802.257812 478.175781 C 804.203125 476.664062 805.574219 474.566406 806.453125 472.289062 C 810.011719 463.070312 808.101562 454.1875 805.132812 445.429688 C 804.0625 445.167969 803.488281 444.921875 802.90625 444.90625 C 802.167969 444.886719 801.425781 445.058594 800.109375 445.21875 C 797.203125 455.710938 797.285156 467.15625 791.242188 477.269531 C 782.835938 481.339844 773.867188 483 764.304688 479.871094 C 752.125 475.886719 742.789062 468.171875 735.25 458.066406 C 726.910156 446.894531 721.207031 434.289062 715.675781 421.605469 C 712.894531 415.234375 710.222656 408.925781 709.792969 401.691406 C 709.472656 396.328125 707.261719 391.179688 704.753906 386.222656 C 691.355469 359.769531 676.875 333.957031 659.832031 309.648438 C 653.453125 300.546875 646.554688 291.886719 638.078125 284.574219 C 627.824219 275.726562 615.851562 271.050781 602.519531 269.652344 C 582.441406 267.550781 562.222656 266.652344 542.410156 262.40625 C 535.75 260.980469 529.042969 259.726562 522.558594 257.605469 C 522.492188 255.34375 523.527344 253.605469 524.25 251.820312 C 528.660156 240.882812 527.675781 230.488281 521.523438 220.445312 C 516.65625 212.503906 510.679688 205.429688 504.683594 198.359375 C 493.1875 184.789062 481.785156 171.140625 470.179688 157.667969 C 462.328125 148.550781 453.789062 140.109375 443.984375 133.042969 C 429.691406 122.742188 413.46875 119.921875 396.371094 121.285156 C 377.683594 122.777344 359.433594 126.78125 341.511719 132.195312 C 325.390625 137.0625 310.597656 144.761719 296.398438 154.277344 C 289.285156 150.316406 281.660156 147.410156 273.824219 145.023438 C 261.65625 141.320312 250.511719 144.347656 239.707031 150 C 236.074219 151.902344 232.265625 153.460938 228.65625 155.394531 C 216.71875 161.792969 205.753906 169.769531 194.171875 176.742188 C 190.15625 179.15625 187.40625 182.832031 185.613281 187.144531 C 184.335938 190.230469 183.074219 193.335938 182.074219 196.515625 C 179.15625 205.8125 175.796875 214.949219 171.164062 223.507812 C 165.109375 234.6875 165.210938 246.1875 168.363281 258.019531 C 168.792969 259.628906 169.265625 261.226562 169.835938 263.261719 C 166.292969 266.273438 162.476562 269.246094 159.070312 272.671875 C 143.214844 288.605469 133.691406 308.089844 127.167969 329.273438 C 123.5 341.191406 120.949219 353.378906 118.589844 365.703125 C 116.222656 367.671875 113.214844 367.757812 110.441406 368.050781 C 90.21875 370.171875 70.09375 369.796875 50.175781 365.195312 C 47.8125 364.644531 45.429688 364.117188 43.027344 363.777344 C 40.414062 363.410156 37.699219 363.273438 36.34375 366.25 C 35.085938 369.003906 36.8125 370.902344 38.585938 372.628906 C 43.53125 377.429688 49.167969 381.316406 55.28125 384.4375 C 71.648438 392.808594 88.910156 397.542969 107.460938 396.769531 C 108.976562 396.707031 110.5 396.738281 112.019531 396.769531 C 112.300781 396.773438 112.578125 396.964844 113.164062 397.1875 C 111.804688 406.703125 109.96875 416.191406 107.863281 425.628906 C 105.449219 436.46875 102.492188 447.144531 97.75 457.242188 C 91.984375 469.519531 83.402344 478.613281 69.722656 481.9375 C 65.714844 482.910156 61.652344 483.429688 57.539062 483.496094 C 47.179688 483.671875 36.878906 483.636719 27.34375 478.507812 C 23.996094 476.710938 20.199219 475.984375 16.429688 475.386719 C 7.328125 473.941406 1.082031 478.589844 0.394531 487.683594 C -0.0507812 493.5 1.609375 498.863281 5.460938 503.328125 C 8.957031 507.378906 13.351562 508.84375 18.691406 506.976562 C 32.253906 513.925781 46.605469 518.816406 61.476562 522.085938 C 78.230469 525.769531 95.183594 527.078125 112.167969 523.957031 C 135.546875 519.660156 152.546875 505.933594 165.742188 486.796875 C 176.351562 471.40625 183.667969 454.410156 190.113281 436.996094 C 194.433594 425.316406 198.460938 413.53125 202.714844 401.828125 C 204.730469 396.28125 206.914062 390.792969 210.980469 385.257812 Z M 210.980469 385.257812 " fill-opacity="1" fill-rule="nonzero"/><path fill="#00aaff" d="M 701.519531 476.460938 C 698.699219 477.796875 688.28125 492.675781 687.03125 497.558594 C 690.523438 494.898438 700.492188 480.109375 701.519531 476.460938 Z M 677.273438 581.378906 C 676.941406 581.878906 676.609375 582.378906 676.273438 582.878906 C 670.78125 579.25 664.742188 576.445312 660.183594 571.363281 C 666.585938 573.582031 672.074219 577.25 677.273438 581.378906 Z M 670.542969 510.9375 C 670.128906 510.765625 669.714844 510.589844 669.300781 510.417969 C 669.199219 509.996094 668.875 509.457031 669.027344 509.175781 C 680.066406 489.082031 693.023438 470.035156 702.066406 448.847656 C 702.328125 448.238281 702.808594 447.910156 703.382812 447.6875 C 703.503906 447.640625 703.683594 447.703125 703.828125 447.75 C 704.40625 447.929688 703.621094 448.1875 704.9375 447.667969 C 697.992188 471.714844 684.25 491.316406 670.542969 510.9375 Z M 693.03125 504.582031 C 694.921875 501.222656 697.660156 498.914062 701.507812 498.117188 C 699.078125 500.855469 696.890625 503.816406 693.03125 504.582031 Z M 676.511719 594.632812 C 674.066406 593.144531 671.703125 591.523438 669.300781 589.964844 C 664.710938 586.988281 664.710938 586.992188 663.894531 584.199219 C 671.234375 588.089844 677.832031 592.179688 683.570312 597.640625 C 680.523438 598.140625 678.691406 595.960938 676.511719 594.632812 Z M 278.941406 182.453125 C 282.515625 185.519531 285.238281 189.121094 286.261719 193.78125 C 283.359375 190.28125 279.621094 187.300781 278.941406 182.453125 Z M 675.648438 604.121094 C 689.152344 615.777344 697.886719 625.316406 697.726562 628.78125 C 683.550781 617.738281 672.21875 603.894531 657.371094 594.109375 C 664.929688 594.847656 670.292969 599.496094 675.648438 604.121094 Z M 730.207031 467.277344 C 722.449219 457.550781 717.273438 446.394531 712.839844 434.863281 C 712.132812 433.023438 711.417969 431.183594 710.433594 428.644531 C 710.390625 428.835938 710.363281 429.0625 710.320312 429.261719 C 710.285156 429.054688 710.21875 428.851562 710.191406 428.640625 C 709.332031 422.207031 709.792969 415.613281 710.191406 409.097656 C 710.414062 408.847656 710.65625 408.621094 710.890625 408.390625 C 712.011719 412.964844 713.789062 417.28125 715.675781 421.605469 C 721.207031 434.289062 726.910156 446.894531 735.25 458.066406 C 742.789062 468.171875 752.125 475.886719 764.304688 479.871094 C 773.867188 483 782.835938 481.339844 791.242188 477.269531 C 797.285156 467.15625 797.203125 455.710938 800.109375 445.21875 C 801.425781 445.058594 802.167969 444.886719 802.90625 444.90625 C 803.488281 444.921875 804.0625 445.167969 805.132812 445.429688 C 808.101562 454.1875 810.011719 463.070312 806.453125 472.289062 C 805.574219 474.566406 804.203125 476.664062 802.257812 478.175781 C 797.09375 482.183594 791.882812 486.15625 785.769531 488.65625 C 780.042969 490.996094 774.140625 492.003906 767.933594 490.933594 C 752.105469 488.203125 739.996094 479.550781 730.207031 467.277344 Z M 495.472656 263.132812 C 492.742188 265.777344 489.542969 267.8125 486.410156 269.921875 C 478.898438 274.980469 478.894531 274.96875 475.996094 274.308594 C 484.417969 267.136719 493.933594 261.824219 500.9375 253.410156 C 500.683594 257.648438 498.210938 260.472656 495.472656 263.132812 Z M 511.367188 236.210938 C 512.273438 236.71875 512.628906 237.632812 512.75 238.484375 C 513.472656 243.574219 514.453125 248.664062 514.675781 253.78125 C 515.15625 264.929688 510.9375 273.894531 501.246094 279.902344 C 498.539062 281.578125 495.8125 283.238281 492.980469 284.6875 C 484.683594 288.933594 477.226562 294.316406 470.503906 300.765625 C 468.371094 302.808594 466.257812 304.957031 463.320312 306.425781 C 462.609375 304.460938 463.664062 303.800781 464.304688 303.058594 C 471.582031 294.636719 479.367188 286.824219 489.382812 281.566406 C 493.269531 279.523438 497.058594 277.296875 500.644531 274.71875 C 507.203125 269.996094 510.199219 263.550781 510.28125 255.621094 C 510.339844 250.003906 510.265625 244.382812 510.320312 238.761719 C 510.328125 237.847656 509.8125 236.550781 511.367188 236.210938 Z M 303 505.6875 C 305.027344 499.449219 309.316406 494.765625 312.777344 489.710938 C 327.382812 468.367188 343 447.886719 364.050781 432.320312 C 364.808594 434.789062 363.0625 435.554688 362.003906 436.660156 C 357.910156 440.933594 353.476562 444.90625 349.640625 449.394531 C 334.65625 466.910156 320.304688 484.933594 306.738281 503.574219 C 305.996094 504.59375 305.390625 506.023438 303 505.6875 Z M 264.0625 615.46875 C 272.367188 611.90625 280.871094 609.039062 289.191406 605.667969 C 287.011719 610.699219 270.816406 617.050781 264.0625 615.46875 Z M 295.34375 590.375 C 289.601562 600.726562 273.152344 609.417969 265.933594 606.011719 C 271.042969 603.3125 276.320312 602.085938 281.140625 599.824219 C 286.039062 597.523438 289.378906 592.804688 295.34375 590.375 Z M 118.289062 452.140625 C 119.015625 451.054688 120.105469 451.238281 121.101562 451.558594 C 126.542969 453.308594 132.039062 454.984375 136.859375 458.171875 C 146.175781 464.335938 155.429688 470.597656 164.695312 476.835938 C 165.425781 477.324219 166.257812 477.824219 166.125 479.019531 C 165.167969 479.882812 164.3125 479.496094 163.351562 478.867188 C 160.070312 476.730469 156.773438 474.605469 153.425781 472.570312 C 142.242188 465.777344 131.949219 457.355469 119.066406 453.621094 C 118.609375 453.488281 118.054688 452.925781 118.289062 452.140625 Z M 3.691406 479.105469 C 6.320312 482.707031 6.90625 486.957031 7.722656 491.121094 C 8.703125 496.132812 12.75 500.546875 10.960938 506.078125 C 10.296875 506.253906 9.742188 506.363281 9.226562 506.433594 C 7.875 505.6875 6.613281 504.664062 5.460938 503.328125 C 1.609375 498.863281 -0.046875 493.5 0.394531 487.683594 C 0.667969 484.082031 1.839844 481.210938 3.691406 479.105469 Z M 71.777344 481.300781 C 71.058594 486.972656 70.769531 492.675781 70.496094 498.378906 C 70.449219 499.367188 70.019531 500.0625 68.996094 500.292969 C 66.820312 496.242188 67.003906 488.132812 68.894531 482.089844 C 69.171875 482.027344 69.449219 482.003906 69.722656 481.9375 C 70.441406 481.761719 71.085938 481.507812 71.777344 481.300781 Z M 599.082031 390.890625 C 608.472656 379.636719 618.4375 369.984375 624.519531 356.535156 C 626.363281 365.972656 608.714844 389.960938 599.082031 390.890625 Z M 308.421875 479.632812 C 316.898438 468.90625 325.425781 458.214844 335.238281 448.539062 C 336.484375 450.007812 335.648438 450.921875 335.011719 451.683594 C 327.253906 461.007812 319.710938 470.519531 311.417969 479.390625 C 310.699219 480.160156 309.957031 481.0625 308.421875 479.632812 Z M 302.554688 475.191406 C 306.105469 465.222656 310.957031 455.890625 316.566406 446.933594 C 313.117188 456.949219 308.085938 466.1875 302.554688 475.191406 Z M 309.035156 227.421875 C 306.582031 227.972656 305.949219 226.664062 305.328125 225.789062 C 298.800781 216.648438 290.25 209.789062 281.214844 203.277344 C 272.0625 196.683594 265.144531 188.183594 262.492188 176.828125 C 262.125 175.269531 261.65625 173.699219 262.566406 172.191406 C 264.402344 172.308594 264.570312 173.503906 264.9375 174.6875 C 266.554688 179.941406 269.199219 184.660156 272.558594 189 C 277.816406 195.785156 284.496094 200.984375 291.296875 206.089844 C 298.765625 211.695312 304.179688 219.03125 309.035156 227.421875 Z M 207.023438 391.738281 C 206.980469 391.714844 206.929688 391.710938 206.882812 391.683594 C 200.480469 387.304688 192.933594 385.007812 186.609375 380.492188 C 185.144531 379.449219 183.4375 378.519531 183.769531 376.265625 C 185.042969 373.976562 186.769531 375.042969 188.539062 375.453125 C 194.113281 376.742188 198.949219 380.40625 204.863281 380.472656 C 211.898438 385.046875 211.902344 385.097656 216.390625 384.609375 C 225.625 383.601562 233.953125 380.140625 241.4375 374.75 C 246.898438 370.816406 251.164062 365.707031 251.816406 358.808594 C 252.425781 352.339844 253.628906 345.835938 252.535156 339.277344 C 252.25 337.558594 251.71875 335.664062 254.386719 334.339844 C 257.070312 341.746094 256.902344 350.074219 262.484375 356.1875 C 264.785156 356.765625 267.136719 356.878906 269.28125 356.191406 C 273.476562 354.851562 277.296875 352.675781 280.878906 350.082031 C 289.34375 343.953125 296.136719 336.199219 302.472656 328 C 304.25 325.699219 306.035156 323.472656 309.140625 323.191406 C 310.667969 318.96875 312.464844 315.160156 313.355469 310.964844 C 315.199219 302.253906 314.941406 293.453125 314.890625 284.65625 C 314.816406 270.8125 315.921875 257.085938 318.59375 243.492188 C 319.476562 239.011719 320.382812 234.707031 322.511719 230.441406 C 324.675781 226.105469 325.136719 220.851562 325.953125 215.9375 C 327.75 205.117188 331.699219 195.632812 340.769531 188.730469 C 348.710938 182.683594 354.625 174.785156 360.132812 166.550781 C 362.097656 163.617188 363.367188 160.15625 366.183594 157.65625 C 367.320312 158.964844 367.664062 160.304688 367.84375 161.585938 C 369.6875 174.460938 367.085938 186.265625 359.234375 196.792969 C 355.851562 201.332031 351.886719 205.328125 347.683594 209.054688 C 339.617188 216.203125 334.953125 225.09375 333.1875 235.667969 C 331.167969 247.773438 329.273438 259.910156 326.75 271.914062 C 325.582031 277.46875 324.957031 282.898438 325.125 288.546875 C 325.425781 298.546875 326.617188 308.539062 325.207031 318.574219 C 324.320312 324.894531 323.078125 331.085938 321.105469 337.148438 C 320.5 339.011719 318.773438 340.253906 318.636719 342.414062 C 318.289062 347.914062 318.453125 353.320312 320.417969 358.648438 C 323.457031 360.007812 326.007812 362.136719 328.675781 364.097656 C 334.300781 368.230469 339.820312 372.507812 345.828125 376.09375 C 355.070312 381.613281 364.394531 382.683594 374.324219 377.566406 C 386.851562 371.113281 399.757812 365.410156 412.144531 358.660156 C 418.121094 355.40625 424.289062 352.601562 430.914062 350.726562 C 440.382812 348.050781 448.1875 342.726562 453.917969 334.578125 C 457.761719 329.113281 461.648438 323.683594 465.488281 318.21875 C 472.726562 307.902344 481.886719 300.011719 493.714844 295.316406 C 499.644531 292.960938 505.109375 289.664062 510.390625 286.101562 C 514.171875 283.554688 517.90625 280.914062 520.753906 277.269531 C 523.636719 273.582031 524.96875 269.582031 523.058594 264.988281 C 522.039062 262.539062 521.644531 260.039062 522.363281 257.539062 C 522.429688 257.421875 522.519531 257.347656 522.589844 257.238281 C 522.585938 257.363281 522.554688 257.476562 522.558594 257.605469 C 529.042969 259.726562 535.75 260.980469 542.410156 262.40625 C 546.234375 263.226562 550.078125 263.894531 553.929688 264.496094 C 553.511719 266.492188 552.210938 268.765625 549.933594 271.53125 C 535.875 288.589844 520.046875 303.496094 498.996094 311.632812 C 488.210938 315.800781 481.027344 322.792969 478.164062 334.332031 C 476.292969 341.878906 471.335938 347.410156 464.191406 350.789062 C 461.453125 352.085938 458.742188 353.433594 456.007812 354.734375 C 449.035156 358.054688 442.011719 361.265625 435.097656 364.695312 C 424.527344 369.9375 417.214844 378.070312 413.890625 389.519531 C 411.445312 397.949219 408.984375 406.308594 410.515625 415.363281 C 412.722656 428.421875 416.996094 440.824219 421.558594 453.164062 C 425.289062 463.25 428.773438 473.429688 434.222656 482.78125 C 437.738281 488.8125 442.425781 493.433594 449.472656 494.683594 C 454.375 495.554688 459.351562 496.367188 464.410156 495.675781 C 471.183594 494.75 478.039062 494.941406 484.847656 494.316406 C 495.71875 493.316406 506.664062 493.109375 517.542969 492.167969 C 522.179688 491.769531 526.828125 491.082031 531.410156 489.890625 C 538.242188 488.117188 542.007812 484.046875 543.1875 477.113281 C 544.933594 466.832031 547.144531 456.628906 550.449219 446.722656 C 551.984375 442.113281 553.996094 437.667969 555.792969 433.144531 C 556.148438 433.289062 556.503906 433.429688 556.859375 433.570312 C 557.65625 436.484375 555.851562 439.109375 555.871094 441.960938 C 555.925781 450.167969 555.949219 458.378906 555.816406 466.582031 C 555.722656 472.285156 557.539062 477.308594 560.65625 481.933594 C 563.8125 486.617188 567.691406 490.679688 571.742188 494.59375 C 577.316406 499.980469 582.949219 505.3125 588.351562 510.871094 C 592.519531 515.160156 592.625 519.117188 589.203125 523.960938 C 587.875 525.835938 586.199219 527.382812 584.363281 528.757812 C 580.464844 531.683594 576.257812 534.082031 571.867188 536.183594 C 545.585938 548.746094 517.667969 554.285156 488.753906 555.234375 C 487.761719 555.265625 486.769531 555.222656 485.777344 555.238281 C 485.988281 553.269531 486.269531 551.304688 486.671875 549.34375 C 487.242188 546.578125 488.117188 543.875 488.871094 541.082031 C 483.464844 539.390625 478.265625 538.152344 473.371094 536.171875 C 451.101562 527.164062 427.828125 523.675781 403.992188 522.390625 C 387.503906 521.503906 372.101562 516.515625 358.183594 507.324219 C 356.417969 506.15625 354.730469 504.6875 352.464844 503.835938 C 352.503906 502.46875 352.582031 501.101562 352.796875 499.738281 C 354.367188 489.871094 359.347656 481.527344 364.738281 473.441406 C 368.945312 467.128906 373.808594 461.257812 378.042969 454.960938 C 386.691406 442.109375 390.28125 427.308594 393.316406 412.453125 C 394.941406 404.515625 392.132812 400.398438 384.609375 396.964844 C 378.484375 394.167969 371.941406 392.949219 365.324219 392.007812 C 356.015625 390.6875 346.691406 389.277344 338.21875 384.875 C 322.914062 376.921875 314.199219 364.84375 314.925781 346.980469 C 314.96875 345.871094 315.457031 344.652344 314.425781 343.347656 C 312.667969 344.484375 311.453125 346.015625 310.21875 347.503906 C 304.496094 354.410156 298.636719 361.214844 292.195312 367.453125 C 287.105469 372.386719 284.050781 378.246094 282.203125 384.980469 C 278.003906 400.304688 272.699219 415.199219 264.667969 429.019531 C 259.785156 437.425781 254.625 445.40625 244.277344 447.007812 C 244.21875 447.121094 244.207031 447.226562 244.167969 447.339844 C 241.921875 445.019531 239.550781 442.789062 236.9375 440.726562 C 224.660156 431.039062 217.792969 418.1875 214.71875 403.074219 C 213.574219 397.449219 212.363281 391.835938 210.980469 385.257812 C 209.390625 387.421875 208.140625 389.582031 207.023438 391.738281 Z M 266.886719 621.75 C 274.613281 619.972656 281.503906 618.207031 288.703125 617.996094 C 286.410156 620.625 271.09375 623.160156 266.886719 621.75 Z M 221.078125 242.199219 C 211.78125 242.699219 202.519531 242.257812 193.269531 242.785156 C 184.539062 243.28125 175.855469 244.75 166.339844 245.746094 C 166.320312 245.375 166.28125 245.003906 166.269531 244.632812 C 176.664062 238.234375 214.847656 236.398438 221.078125 242.199219 Z M 203.75 213.441406 C 199.207031 214.820312 194.371094 213.816406 189.691406 214.105469 C 189.640625 213.648438 189.585938 213.191406 189.535156 212.734375 C 194.199219 212.308594 198.859375 211.878906 203.523438 211.449219 C 203.597656 212.113281 203.675781 212.777344 203.75 213.441406 Z M 213.15625 227.320312 C 210.394531 229.019531 190.160156 229.421875 185.550781 227.867188 C 189.433594 225.5 209.984375 225.09375 213.15625 227.320312 Z M 198.601562 293.628906 C 191.707031 291.84375 185.425781 290.449219 178.992188 289.613281 C 172.613281 288.785156 166.257812 289.179688 159.90625 288.796875 C 154.898438 288.492188 150.027344 289.953125 144.769531 290.464844 C 145.457031 289.414062 146.171875 288.378906 146.890625 287.351562 C 162.535156 282.746094 195.261719 285.574219 198.601562 293.628906 Z M 197.789062 345.292969 C 188.429688 342.261719 178.75 340.695312 168.96875 338.703125 C 169.042969 336.671875 169.902344 336.3125 171.113281 336.496094 C 178.882812 337.660156 186.769531 338.175781 194.394531 340.199219 C 204.429688 342.855469 213.863281 346.863281 222 353.472656 C 223.066406 354.34375 225.1875 354.910156 223.976562 357.800781 C 215.847656 351.960938 207 348.273438 197.789062 345.292969 Z M 214.871094 310.902344 C 201.273438 307.574219 187.527344 304.984375 173.757812 302.492188 C 172.683594 302.300781 171.75 301.742188 172.011719 300.34375 C 181.53125 298.929688 211.898438 305.882812 216.160156 310.625 C 215.445312 310.789062 215.128906 310.964844 214.871094 310.902344 Z M 167.382812 320.726562 C 154.84375 321.117188 142.511719 320.65625 129.910156 321.027344 C 130.175781 320.273438 130.480469 319.535156 130.757812 318.789062 C 143.480469 317.203125 164.144531 317.785156 167.382812 320.726562 Z M 93.925781 473.300781 C 93.238281 472.535156 93.105469 471.714844 93.953125 470.542969 C 99.730469 474.25 113.574219 490.570312 114.285156 495.339844 C 106.398438 488.203125 100.398438 480.527344 93.925781 473.300781 Z M 178.90625 393.738281 C 180.480469 393.261719 181.003906 392.90625 181.292969 393.042969 C 188.375 396.386719 195.359375 399.90625 201.804688 404.371094 C 201.507812 405.199219 201.214844 406.03125 200.917969 406.859375 C 193.945312 402.53125 186.324219 398.949219 178.90625 393.738281 Z M 249.636719 299.398438 C 243.882812 291.148438 241.109375 281.871094 235.640625 274.054688 C 241.65625 276.808594 250.632812 293.3125 249.636719 299.398438 Z M 113.789062 464.386719 C 118.503906 465.566406 133.804688 477.636719 134.851562 481 C 129.675781 479.171875 114.855469 467.480469 113.789062 464.386719 Z M 164.175781 428.664062 C 168.070312 429.070312 180.644531 436.242188 188.296875 441.792969 C 188.019531 442.523438 187.742188 443.257812 187.457031 443.988281 C 178.800781 439.191406 165.320312 430.5625 164.175781 428.664062 Z M 85.226562 487.980469 C 83.582031 484.296875 82.597656 480.453125 82.167969 476.46875 C 82.933594 475.953125 83.667969 475.402344 84.390625 474.832031 C 86.632812 483.898438 91.53125 492.269531 93.292969 501.632812 C 92.726562 501.847656 92.160156 502.0625 91.59375 502.277344 C 89.472656 497.511719 87.359375 492.742188 85.226562 487.980469 Z M 50.035156 483.511719 C 50.734375 483.527344 51.4375 483.527344 52.136719 483.53125 C 52.382812 487.285156 53.664062 491.21875 52.21875 495.691406 C 51.570312 494.1875 50.496094 487.589844 50.035156 483.511719 Z M 120.140625 435.089844 C 130.949219 439.0625 141.03125 444.484375 151.105469 449.914062 C 150.839844 450.480469 150.574219 451.046875 150.3125 451.613281 C 139.300781 447.277344 128.957031 441.496094 118.210938 436.625 C 118.738281 435.363281 119.277344 434.773438 120.140625 435.089844 Z M 109.253906 418.890625 C 129.410156 422.683594 158.855469 433.984375 162.175781 440.933594 C 144.777344 433.144531 127.25 425.765625 108.78125 421.1875 C 108.945312 420.421875 109.09375 419.65625 109.253906 418.890625 Z M 271.578125 265.882812 C 267.742188 264.785156 266.644531 263.945312 264.621094 260.453125 C 268.28125 260.988281 269.917969 263.058594 271.578125 265.882812 Z M 150.003906 335.25 C 141.324219 336.449219 133.054688 336.429688 125.160156 336.339844 C 125.402344 335.445312 125.664062 334.558594 125.917969 333.667969 C 134.25 333.199219 147.605469 333.785156 150.003906 335.25 Z M 290.28125 267.40625 C 279.984375 269.558594 258.652344 249.292969 256.703125 235.804688 C 265.09375 248.90625 276.480469 258.808594 290.28125 267.40625 Z M 111.734375 405.78125 C 111.886719 404.878906 112.035156 403.980469 112.183594 403.082031 C 129.621094 403.386719 160.792969 413.074219 165.734375 421.988281 C 154.671875 417.984375 144.910156 412.988281 134.433594 409.902344 C 126.984375 407.707031 119.414062 406.488281 111.734375 405.78125 Z M 149.585938 301.625 C 156.292969 300.628906 162.328125 300.605469 169.347656 301.28125 C 165.335938 303.96875 153.371094 304.050781 149.585938 301.625 Z M 133.625 356.113281 C 144.59375 354.921875 155.320312 355.96875 165.992188 358.355469 C 167.21875 358.628906 168.761719 358.75 168.785156 361.417969 C 152.5625 358.441406 136.308594 359.371094 119.730469 359.925781 C 119.921875 358.957031 120.109375 357.984375 120.304688 357.015625 C 124.75 356.691406 129.210938 356.59375 133.625 356.113281 Z M 131.570312 377.726562 C 136.945312 378.777344 142.429688 378.410156 147.851562 379.152344 C 156.582031 380.351562 165.035156 382.332031 173.082031 385.925781 C 173.953125 386.3125 175.199219 386.589844 175.164062 388.890625 C 159.792969 383.832031 144 382.03125 127.910156 379.878906 C 128.5 377.003906 130.179688 377.453125 131.570312 377.726562 Z M 131.570312 377.726562 " fill-opacity="1" fill-rule="nonzero"/><path fill="#042c46" d="M 647.261719 686.710938 C 645.878906 679.585938 648.449219 673.71875 654.128906 668.902344 C 660.1875 663.765625 666.628906 659.355469 674.761719 658.117188 C 675.835938 657.953125 677.199219 657.910156 678.109375 656.53125 C 677.21875 654.738281 675.804688 654.835938 674.441406 654.960938 C 662.824219 656.003906 653.296875 661.09375 646.050781 670.171875 C 642.535156 674.578125 641.492188 680.003906 642.695312 684.753906 C 644.175781 685.503906 645.703125 686.140625 647.261719 686.710938 Z M 620.917969 396.777344 C 623.261719 392.214844 635.054688 380.460938 638.839844 379.261719 C 636.289062 386.238281 624.898438 397.183594 620.917969 396.777344 Z M 416.609375 497.832031 C 418.539062 499.140625 421.421875 499.886719 421.277344 503.199219 C 417.730469 500.210938 413.089844 498.851562 409.164062 494.75 C 413.199219 493.933594 414.675781 496.523438 416.609375 497.832031 Z M 607.589844 396.957031 C 625.378906 383.457031 633.945312 365.707031 632.605469 343.300781 C 632.511719 341.734375 632.195312 340.066406 633.003906 338.417969 C 638.660156 343.566406 637.503906 366.039062 630.734375 378.355469 C 625.078125 388.648438 608.449219 403.082031 602.234375 402.324219 C 603.222656 399.660156 605.621094 398.449219 607.589844 396.957031 Z M 654.6875 645.078125 C 655.214844 645.488281 655.375 646.023438 655.230469 646.667969 C 640.488281 653.554688 640.488281 653.554688 628.707031 668.476562 C 628.167969 669.160156 627.550781 669.382812 626.742188 669.0625 C 625.101562 658.054688 640.589844 645.335938 654.6875 645.078125 Z M 274.261719 655.003906 C 275.640625 657.625 273.609375 657.769531 272.59375 658.144531 C 265.882812 660.640625 260.609375 665.164062 255.648438 670.074219 C 252.308594 673.375 250.535156 677.523438 250.21875 682.257812 C 250.09375 684.167969 249.925781 686.078125 249.722656 687.980469 C 248.78125 687.953125 247.839844 687.871094 246.898438 687.820312 C 244.683594 681.253906 246.152344 673.804688 249.660156 669.386719 C 255.960938 661.453125 264.3125 657.035156 274.261719 655.003906 Z M 324.964844 624.523438 C 318.355469 607.742188 318.886719 590.847656 323.753906 573.734375 C 328.453125 557.230469 335.394531 541.601562 341.75 525.738281 C 345.167969 517.210938 349.613281 509.039062 351.261719 499.890625 C 352.046875 495.523438 353.414062 491.402344 354.984375 487.292969 C 360.246094 473.515625 368.628906 461.601562 377.433594 449.976562 C 385.75 439 391.101562 426.925781 392.8125 413.167969 C 393.105469 410.832031 392.429688 407.71875 395.042969 405.722656 C 396.410156 406.75 396.351562 407.949219 395.945312 409.105469 C 395.320312 410.878906 395.507812 412.707031 395.292969 414.507812 C 394.082031 424.617188 392.136719 434.507812 386.839844 443.445312 C 383.277344 449.460938 379.289062 455.183594 375.246094 460.875 C 365.773438 474.203125 358.199219 488.476562 353.222656 504.113281 C 352.660156 503.855469 352.074219 503.621094 351.429688 503.457031 C 351.546875 505.199219 351.523438 506.566406 351.753906 507.890625 C 353.511719 518.058594 355.230469 528.238281 357.136719 538.382812 C 361.089844 559.445312 365.703125 580.339844 373.152344 600.511719 C 376.625 609.910156 381.007812 618.957031 383.789062 628.628906 C 385.328125 633.980469 385.816406 639.394531 385.257812 644.867188 C 384.191406 655.367188 376.984375 662.511719 365.191406 664.796875 C 355.03125 666.769531 344.746094 668.246094 335.46875 673.433594 C 335.894531 668.582031 334.96875 663.894531 333.101562 659.234375 C 332.761719 658.394531 332.398438 657.5625 332.046875 656.722656 C 330.117188 652.089844 328.625 647.410156 328.417969 642.28125 C 328.171875 636.226562 327.214844 630.230469 324.964844 624.523438 Z M 316.3125 349.171875 C 316.878906 346.355469 317.652344 343.578125 318.398438 340.800781 C 320.09375 334.484375 321.839844 328.027344 321.085938 321.539062 C 319.734375 309.90625 321.132812 298.507812 322.710938 287.078125 C 324.339844 275.296875 324.574219 263.464844 323.839844 251.625 C 323.140625 240.289062 321.597656 229.035156 323.023438 217.585938 C 324.1875 208.269531 327.15625 199.957031 333.039062 192.675781 C 338.402344 186.039062 344.675781 180.273438 350.628906 174.199219 C 355.988281 168.726562 362.511719 164.257812 365.753906 156.917969 C 365.8125 156.789062 366.304688 156.847656 366.902344 156.789062 C 367.378906 161.617188 364.871094 165.152344 362.03125 168.5 C 354.644531 177.203125 346.222656 184.917969 338.371094 193.175781 C 332.40625 199.449219 328.070312 206.542969 326.714844 215.335938 C 325.050781 226.125 326.074219 236.824219 327.335938 247.511719 C 328.878906 260.539062 329.089844 273.53125 327.320312 286.542969 C 326.015625 296.160156 324.550781 305.746094 324.980469 315.53125 C 325.246094 321.578125 325.578125 327.691406 324.167969 333.683594 C 323.128906 338.09375 322.011719 342.484375 320.925781 346.886719 C 319.367188 353.214844 319.914062 356.378906 324.371094 358.882812 C 332.25 363.316406 339.035156 369.097656 345.933594 374.804688 C 350.082031 378.234375 354.957031 379.273438 360.410156 378.652344 C 368.898438 377.6875 376.433594 374.175781 383.839844 370.402344 C 397.890625 363.242188 412.296875 356.90625 427 351.242188 C 428.289062 350.746094 429.875 348.972656 431.707031 351.304688 C 430.472656 353.222656 428.449219 353.707031 426.722656 354.558594 C 415.316406 360.175781 403.878906 365.722656 392.4375 371.269531 C 384.53125 375.101562 376.703125 379.113281 368.144531 381.410156 C 359.375 383.765625 350.859375 383.785156 343.597656 377.601562 C 336.644531 371.675781 329.421875 366.25 321.476562 361.714844 C 316.699219 358.988281 315.25 354.460938 316.3125 349.171875 Z M 466.996094 624.773438 C 472.667969 621.605469 477.273438 617.234375 481.542969 612.457031 C 485.457031 608.085938 487.207031 602.890625 487.386719 597.035156 C 487.621094 589.40625 486.742188 581.871094 485.984375 574.3125 C 485.148438 565.972656 484.96875 557.613281 486.671875 549.34375 C 487.210938 546.722656 488.023438 544.15625 488.746094 541.515625 C 489.316406 541.441406 489.90625 541.425781 490.519531 541.484375 C 498.011719 542.230469 505.339844 540.785156 512.605469 539.390625 C 533.367188 535.410156 553.203125 528.582031 572.199219 519.3125 C 577.683594 516.636719 583.269531 514.347656 589.59375 515.054688 C 589.699219 515.066406 589.851562 514.632812 590.09375 514.222656 C 581.222656 507.613281 572.761719 500.5 565.25 492.296875 C 557.210938 483.515625 552.929688 473.402344 553.117188 461.355469 C 553.261719 452.070312 554.914062 442.976562 555.980469 433.808594 C 556.097656 432.824219 556.671875 432.140625 558.574219 432.371094 C 558.574219 434.078125 558.796875 435.761719 558.539062 437.371094 C 557.136719 446.132812 557.808594 454.953125 557.683594 463.75 C 557.582031 471.148438 559.949219 477.75 564.1875 483.722656 C 567.984375 489.074219 572.578125 493.714844 577.335938 498.207031 C 583.855469 504.359375 590.898438 509.9375 597.003906 516.542969 C 598.152344 517.785156 599.269531 519.101562 600.125 520.511719 C 599.699219 520.117188 599.292969 519.746094 598.863281 519.347656 C 595.902344 526.128906 591.800781 531.519531 587.097656 536.488281 C 579.019531 545.011719 570.089844 552.574219 560.734375 559.625 C 558.410156 561.378906 556.820312 563.394531 556.09375 566.117188 C 554.601562 571.691406 553.023438 577.246094 551.757812 582.867188 C 547.878906 600.117188 544.230469 617.363281 549.675781 635.03125 C 551.984375 642.53125 550.335938 649.898438 547.261719 656.78125 C 542.804688 666.78125 534.214844 671.066406 523.773438 671.144531 C 507.976562 671.265625 492.175781 670.496094 476.371094 670.234375 C 468.171875 670.101562 460.597656 667.0625 454.730469 660.867188 C 446.894531 652.597656 446.945312 641.730469 454.8125 633.507812 C 458.324219 629.832031 462.621094 627.214844 466.996094 624.773438 Z M 409.65625 479.082031 C 412.980469 481.101562 416.238281 483.191406 419.601562 485.101562 C 428.402344 490.09375 437.289062 494.9375 445.832031 500.371094 C 447.011719 501.121094 448.851562 501.414062 447.75 504.152344 C 438.5 499.617188 429.714844 494.945312 421.070312 490.003906 C 417.382812 487.894531 414.058594 485.269531 410.773438 482.605469 C 409.859375 481.867188 408.199219 481.167969 409.65625 479.082031 Z M 248.871094 395.035156 C 248.882812 399.148438 245.410156 403.546875 240.96875 405 C 243.324219 401.003906 245.808594 398.203125 248.871094 395.035156 Z M 262.898438 377.585938 C 266.445312 389.683594 254.191406 412.855469 243.234375 414.71875 C 247.230469 408.257812 251.566406 403.042969 255.136719 397.316406 C 258.757812 391.5 260.480469 384.914062 262.898438 377.585938 Z M 273.664062 423.28125 C 272.632812 439.617188 269.882812 455.742188 267.273438 471.867188 C 266.726562 475.230469 266.621094 478.898438 264.472656 482.167969 C 264.316406 481.464844 264.195312 480.765625 263.929688 480.054688 C 259.035156 466.875 252.289062 455.019531 242.261719 445.402344 C 242.816406 444.730469 243.316406 444.113281 244.34375 444.054688 C 247.59375 443.875 249.851562 441.765625 252.21875 439.894531 C 262.492188 431.765625 269.613281 421.417969 273.972656 409.109375 C 276.800781 401.125 279.054688 392.96875 281.4375 384.851562 C 281.890625 383.3125 281.367188 380.691406 283.890625 380.242188 C 284.988281 380.789062 285.027344 381.621094 284.875 382.316406 C 282.144531 394.539062 280.289062 406.996094 275.0625 418.546875 C 274.386719 420.039062 273.777344 421.515625 273.664062 423.28125 Z M 180.695312 261.992188 C 177.261719 262.394531 173.828125 263.28125 169.828125 263.234375 C 169.710938 262.808594 169.609375 262.460938 169.496094 262.070312 C 186.40625 251.398438 225.707031 256.066406 233.554688 270.089844 C 229.691406 269.816406 226.796875 267.777344 223.726562 266.390625 C 216.503906 263.125 209.242188 260.179688 201.105469 260.320312 C 194.261719 260.433594 187.484375 261.195312 180.695312 261.992188 Z M 222.800781 668.503906 C 221.757812 657.265625 244.863281 641.949219 256.714844 645.988281 C 243.070312 649.953125 232.15625 657.972656 222.800781 668.503906 Z M 283.65625 329.625 C 282.964844 330.195312 281.960938 330.246094 281.265625 328.644531 C 287.453125 323.71875 292.605469 317.351562 300.566406 312.867188 C 300.203125 314.460938 300.242188 314.992188 299.996094 315.265625 C 295.097656 320.667969 289.253906 325.011719 283.65625 329.625 Z M 259.65625 362.28125 C 258.800781 360.019531 260.796875 359.828125 262 359.242188 C 269.074219 355.800781 276.148438 352.300781 282.382812 347.46875 C 295.039062 337.664062 304.859375 325.46875 312.058594 311.175781 C 312.59375 310.113281 312.734375 308.835938 314.410156 308.085938 C 317.335938 325.382812 279.8125 362.347656 259.65625 362.28125 Z M 406.9375 448.621094 C 417.726562 463.460938 430.644531 476.375 445.105469 487.734375 C 459.625 499.140625 477.09375 505.066406 493.425781 513.324219 C 491.773438 514.648438 490.414062 514.214844 488.957031 513.664062 C 481.746094 510.953125 474.453125 508.445312 467.277344 505.644531 C 440.394531 495.152344 421.417969 475.664062 406.308594 451.816406 C 405.636719 450.761719 404.839844 449.71875 406.9375 448.621094 Z M 262.542969 317.820312 C 261.492188 323.945312 257.882812 327.90625 252.1875 330.019531 C 244.796875 332.765625 237.03125 334.1875 229.464844 336.320312 C 228.636719 336.550781 227.648438 336.640625 226.648438 335.90625 C 226.820312 333.628906 228.664062 333.449219 229.902344 332.886719 C 235.414062 330.382812 241.070312 328.234375 246.855469 326.414062 C 255.5 323.6875 257.601562 320.859375 258.484375 311.746094 C 258.964844 306.785156 259.722656 301.847656 260.34375 296.898438 C 260.5 295.636719 261.050781 294.941406 263.089844 295.441406 C 262.65625 302.804688 263.832031 310.304688 262.542969 317.820312 Z M 252.078125 310.539062 C 248.492188 315.640625 243.878906 319.675781 238.777344 323.25 C 238.828125 320.445312 247.691406 308.957031 252.785156 304.402344 C 253.378906 306.683594 253.367188 308.707031 252.078125 310.539062 Z M 252.078125 310.539062 " fill-opacity="1" fill-rule="nonzero"/><path fill="#e1e1e1" d="M 118.769531 366.839844 C 118.867188 366.46875 118.578125 365.996094 118.636719 366.214844 C 118.449219 366.140625 118.261719 366.089844 118.074219 366.019531 C 115.792969 367.621094 113.023438 367.78125 110.441406 368.050781 C 90.21875 370.171875 70.09375 369.796875 50.175781 365.195312 C 47.8125 364.648438 45.429688 364.117188 43.027344 363.777344 C 40.414062 363.410156 37.699219 363.273438 36.34375 366.25 C 35.085938 369.003906 36.8125 370.902344 38.585938 372.628906 C 43.53125 377.429688 49.167969 381.316406 55.28125 384.4375 C 71.648438 392.808594 88.910156 397.542969 107.460938 396.769531 C 108.976562 396.707031 110.5 396.738281 112.019531 396.769531 C 112.21875 396.769531 112.460938 396.882812 112.773438 397.023438 C 112.941406 396.621094 113.101562 396.210938 113.1875 395.753906 C 114.972656 386.101562 116.320312 376.367188 118.769531 366.839844 Z M 179.421875 376.613281 C 177.347656 375.382812 175.503906 374.167969 176.496094 371.046875 C 177.742188 369.738281 179.136719 369.351562 180.683594 369.082031 C 185.296875 368.277344 189.96875 367.632812 194.460938 366.371094 C 206.285156 363.054688 217.324219 358.28125 225.242188 348.230469 C 227.609375 345.222656 229 341.652344 231.152344 338.546875 C 235.992188 331.574219 243.792969 327.976562 252.433594 332.707031 C 253.050781 334.019531 253.46875 335.460938 253.964844 336.882812 C 255.699219 341.886719 254.117188 346.828125 253.933594 351.789062 C 253.214844 371.320312 240.183594 382.390625 221.660156 384.792969 C 214.65625 385.699219 207.71875 384.445312 200.839844 383.527344 C 193.359375 382.53125 186.042969 380.550781 179.421875 376.613281 Z M 179.421875 376.613281 " fill-opacity="1" fill-rule="nonzero"/><path fill="#042c46" d="M 269.394531 230.800781 C 270.464844 226.816406 273.230469 225.503906 276.027344 223.636719 C 272.933594 222.207031 270.925781 223.234375 269.128906 224.761719 C 263.910156 229.195312 264.105469 235.222656 263.949219 241.707031 C 268.050781 240.179688 265.894531 236.207031 268.433594 234.28125 C 268.546875 236.4375 268.570312 238.714844 269.65625 240.734375 C 271.207031 243.613281 274.109375 245.417969 276.558594 244.902344 C 279.347656 244.308594 281.277344 241.589844 281.375 238.058594 C 281.402344 237.152344 281.335938 236.242188 281.324219 235.335938 C 281.273438 232.253906 280.226562 229.53125 277.402344 228.164062 C 274.589844 226.804688 272.011719 228.007812 269.394531 230.800781 Z M 474.769531 671.269531 C 472.320312 667.878906 473.246094 663.054688 476.855469 657.675781 C 483.84375 647.273438 498.503906 638.890625 506.570312 641.136719 C 491.871094 646.785156 481.148438 656.601562 474.769531 671.269531 Z M 450.285156 646.996094 C 451.070312 639.195312 469.46875 630.605469 480.023438 633 C 469.863281 636.882812 460.113281 641.5625 450.285156 646.996094 Z M 450.285156 646.996094 " fill-opacity="1" fill-rule="nonzero"/></svg>