<svg xmlns="http://www.w3.org/2000/svg" xmlns:xlink="http://www.w3.org/1999/xlink" width="1080" zoomAndPan="magnify" viewBox="0 0 810 809.999993" height="1080" preserveAspectRatio="xMidYMid meet" version="1.0"><defs><clipPath id="b2c6bd28a7"><path d="M 272.089844 16.941406 L 537.589844 16.941406 L 537.589844 793.191406 L 272.089844 793.191406 Z M 272.089844 16.941406 " clip-rule="nonzero"/></clipPath></defs><g clip-path="url(#b2c6bd28a7)"><path fill="#00aaff" d="M 403.078125 16.976562 C 402.851562 16.949219 402.757812 17.167969 402.613281 17.316406 C 402.542969 17.347656 402.460938 17.257812 402.402344 17.316406 C 402.203125 17.515625 401.984375 17.734375 401.722656 17.996094 C 401.464844 18.253906 401.476562 18.242188 401.214844 18.503906 C 399.960938 19.761719 399.351562 20.417969 398.589844 21.214844 C 398.195312 21.644531 397.523438 22.109375 397.191406 22.570312 C 396.953125 22.894531 396.757812 23.175781 396.214844 23.714844 C 395.90625 24.027344 395.617188 24.292969 395.410156 24.5625 C 395.378906 24.597656 395.316406 24.648438 395.28125 24.6875 C 395.1875 24.808594 395.332031 24.933594 395.324219 25.070312 C 395.183594 25.183594 394.953125 25.203125 394.945312 25.410156 C 394.914062 25.96875 394.878906 26.398438 394.859375 27.402344 C 394.84375 28.351562 394.84375 28.785156 394.816406 29.308594 C 394.804688 29.554688 394.792969 29.757812 394.773438 29.984375 C 394.75 30.328125 394.757812 30.359375 394.734375 30.707031 C 394.6875 31.316406 394.644531 31.808594 394.5625 32.910156 C 394.265625 36.898438 394.097656 38.660156 393.886719 40.875 C 393.6875 42.9375 393.617188 44.859375 393.546875 48.117188 C 393.539062 48.503906 393.511719 48.5 393.503906 48.882812 C 393.476562 50.148438 393.480469 50.722656 393.460938 51.425781 C 393.445312 51.925781 393.4375 52.320312 393.460938 53.203125 C 393.484375 53.921875 393.511719 54.285156 393.503906 54.6875 C 393.5 54.898438 393.734375 54.945312 393.886719 55.066406 C 393.894531 55.082031 393.875 55.097656 393.886719 55.109375 C 393.902344 55.136719 393.953125 55.167969 393.96875 55.195312 C 393.988281 55.253906 393.890625 55.3125 393.929688 55.363281 C 394.148438 55.667969 394.550781 56.132812 394.773438 56.421875 C 394.789062 56.445312 394.800781 56.445312 394.816406 56.464844 C 394.878906 56.554688 394.882812 56.585938 394.945312 56.675781 C 395.289062 57.171875 395.46875 57.402344 395.664062 57.695312 C 396.777344 59.347656 398.042969 60.957031 399.476562 62.566406 C 399.558594 62.65625 399.601562 62.710938 399.730469 62.820312 C 399.804688 62.886719 399.898438 62.792969 399.988281 62.820312 C 400.09375 62.957031 400.097656 63.175781 400.285156 63.203125 C 400.414062 63.222656 400.511719 63.234375 400.707031 63.246094 C 400.910156 63.253906 401 63.226562 401.089844 63.246094 C 403.746094 63.738281 405.929688 63.960938 410.664062 64.304688 C 410.714844 64.308594 410.738281 64.34375 410.789062 64.347656 C 413.589844 64.550781 414.839844 64.640625 416.382812 64.8125 C 417.265625 64.910156 417.929688 64.894531 419.433594 64.8125 C 419.648438 64.800781 419.644531 64.824219 419.859375 64.8125 C 420.039062 64.804688 420.21875 64.777344 420.367188 64.769531 C 420.4375 64.769531 420.429688 64.667969 420.492188 64.644531 C 420.78125 64.777344 421.144531 64.777344 421.339844 64.515625 C 423.429688 61.765625 425.222656 59.421875 426.976562 57.226562 C 427.0625 57.121094 426.925781 57.011719 426.933594 56.890625 C 426.972656 56.832031 427.085938 56.875 427.101562 56.804688 C 427.160156 56.582031 427.160156 56.382812 427.1875 56.042969 C 427.199219 55.910156 427.222656 55.855469 427.230469 55.789062 C 427.460938 53.714844 427.660156 50.957031 427.867188 48.457031 C 427.878906 48.457031 427.894531 48.457031 427.90625 48.457031 C 428.296875 48.433594 428.640625 48.425781 429.347656 48.457031 C 429.367188 48.457031 429.371094 48.457031 429.390625 48.457031 C 430.699219 48.515625 431.265625 48.511719 432.015625 48.332031 C 432.453125 48.226562 432.667969 47.941406 432.78125 47.566406 C 433.125 47.578125 433.691406 47.65625 434.050781 47.652344 C 434.566406 47.648438 434.972656 47.652344 435.914062 47.695312 C 436.378906 47.714844 436.597656 47.730469 436.847656 47.738281 C 436.945312 48 437.035156 48.394531 437.144531 48.667969 C 437.179688 48.757812 437.222656 48.835938 437.3125 49.09375 C 437.339844 49.164062 437.328125 49.183594 437.355469 49.261719 C 437.664062 50.144531 437.917969 50.726562 438.289062 51.382812 C 438.425781 51.726562 438.417969 52.15625 438.585938 52.484375 C 439.054688 53.410156 439.652344 54.1875 440.40625 54.898438 C 441.09375 55.542969 441.84375 56 443.117188 56.59375 C 443.222656 56.640625 443.289062 56.667969 443.5 56.761719 C 443.507812 56.765625 443.535156 56.757812 443.542969 56.761719 C 446.652344 58.199219 449.566406 60.371094 452.3125 63.160156 C 453.3125 64.171875 453.957031 65.597656 454.558594 67.480469 C 454.980469 69.5625 455.421875 72.144531 455.914062 74.007812 C 456.449219 76.042969 456.96875 77.917969 457.90625 81.082031 C 458.015625 81.449219 458.007812 81.433594 458.117188 81.800781 C 458.949219 84.613281 459.332031 85.941406 459.769531 87.523438 C 460.210938 89.117188 460.566406 90.40625 461.296875 93.371094 C 461.300781 93.390625 461.289062 93.390625 461.296875 93.410156 C 462.238281 97.246094 462.6875 98.984375 463.328125 101.164062 C 464.167969 104.019531 464.554688 106.496094 465.195312 112.222656 C 465.210938 112.398438 465.214844 112.390625 465.234375 112.5625 C 465.5 114.941406 465.65625 116.25 465.871094 117.730469 C 466.253906 120.347656 466.675781 122.765625 467.394531 126.757812 C 467.5 127.324219 467.464844 127.335938 467.566406 127.902344 C 468.242188 131.640625 468.546875 133.359375 468.878906 135.441406 C 469.664062 140.339844 470.703125 145.304688 472.015625 150.609375 C 472.050781 150.75 472.066406 150.765625 472.097656 150.90625 C 472.1875 151.261719 472.21875 151.429688 472.269531 151.628906 C 472.316406 151.8125 472.351562 151.914062 472.394531 152.09375 C 471.417969 155.871094 470.199219 159.628906 467.566406 166.625 C 467.5625 166.640625 467.570312 166.65625 467.566406 166.667969 C 465.785156 171.394531 464.992188 173.527344 464.089844 176.242188 C 462.132812 182.148438 460.59375 188.445312 459.304688 195.4375 C 458.371094 200.503906 457.886719 205.933594 457.566406 211.707031 C 457 212.414062 456.195312 213.589844 455.617188 214.25 C 454.441406 215.59375 453.367188 216.769531 451.167969 219.082031 C 451.042969 219.210938 451.039062 219.203125 450.914062 219.332031 C 447.195312 223.238281 444.566406 226.175781 442.527344 228.910156 C 442.929688 227.742188 443.234375 226.621094 443.585938 225.476562 C 446.664062 218.933594 448.457031 211.867188 448.839844 204.757812 C 449.230469 201.882812 449.378906 199.019531 449.175781 196.199219 C 449.179688 195.832031 449.269531 195.46875 449.261719 195.097656 C 448.972656 183.859375 446.828125 173.179688 442.820312 163.660156 C 442.34375 162.523438 441.546875 161.484375 440.957031 160.398438 C 440.800781 160.015625 440.664062 159.632812 440.492188 159.253906 C 438.648438 151.832031 436.207031 147.421875 431.46875 144.128906 C 427.980469 141.707031 423.964844 140.558594 418.96875 140.144531 C 418.109375 139.890625 417.296875 139.582031 416.382812 139.382812 C 414.117188 138.886719 412 138.625 410.027344 138.707031 C 408.800781 138.753906 407.71875 139.164062 406.597656 139.46875 C 406.34375 139.4375 406.179688 139.371094 405.917969 139.339844 C 404.804688 139.210938 403.683594 139.238281 402.613281 139.339844 C 402.3125 139.367188 402.0625 139.546875 401.765625 139.59375 C 400.789062 139.445312 399.550781 139.101562 398.628906 139.171875 C 391.105469 139.742188 383.59375 143.332031 378.125 148.832031 C 373.035156 153.949219 368.882812 160.214844 365.964844 167.050781 C 362.578125 174.980469 360.492188 182.226562 359.863281 189.25 C 358.847656 200.558594 361.144531 212.316406 366.261719 223.699219 C 366.300781 223.785156 366.347656 223.90625 366.386719 223.996094 C 365.972656 224.394531 365.570312 224.789062 365.160156 225.179688 C 365.132812 225.207031 365.101562 225.238281 365.074219 225.265625 C 365.050781 225.289062 365.011719 225.328125 364.988281 225.351562 C 364.792969 225.539062 364.59375 225.722656 364.394531 225.902344 C 363.90625 226.265625 363.269531 226.777344 362.828125 227.085938 C 362.757812 227.136719 362.71875 227.195312 362.660156 227.257812 C 362.613281 227.308594 362.609375 227.304688 362.574219 227.34375 C 362.613281 227.296875 362.742188 227.273438 362.914062 227.300781 C 362.882812 227.328125 362.855469 227.355469 362.828125 227.382812 C 362.738281 227.386719 362.699219 227.476562 362.617188 227.511719 C 362.558594 227.511719 362.546875 227.410156 362.488281 227.425781 C 362.355469 227.460938 362.339844 227.609375 362.234375 227.679688 C 362.207031 227.726562 362.125 227.710938 362.109375 227.765625 C 362.101562 227.789062 362.15625 227.785156 362.152344 227.808594 C 361.992188 227.957031 361.75 228.039062 361.726562 228.273438 C 361.703125 228.507812 361.75 228.660156 361.851562 228.953125 C 361.894531 229.058594 361.894531 229.09375 361.894531 229.078125 C 361.898438 229.203125 361.894531 229.375 361.894531 229.503906 C 361.875 230.054688 361.851562 230.472656 361.8125 231.453125 C 361.710938 233.910156 361.722656 235.039062 361.726562 236.367188 C 361.253906 236.328125 360.734375 236.371094 360.074219 236.449219 C 359.871094 236.460938 359.621094 236.429688 359.183594 236.324219 C 359.136719 236.3125 359.148438 236.292969 359.097656 236.28125 C 358.453125 236.125 357.960938 236.074219 357.574219 236.113281 C 357.1875 236.148438 356.871094 236.265625 356.558594 236.578125 C 356.441406 236.695312 356.378906 236.800781 356.21875 237.003906 C 355.941406 237.351562 355.835938 237.464844 355.667969 237.511719 C 355.496094 237.554688 355.269531 237.589844 354.988281 237.636719 C 354.933594 237.628906 354.839844 237.601562 354.777344 237.59375 C 354.765625 237.59375 354.75 237.554688 354.734375 237.550781 C 354.636719 237.546875 354.539062 237.582031 354.4375 237.59375 C 354.144531 237.28125 353.976562 237.035156 353.589844 236.664062 C 352.953125 236.042969 352.542969 235.351562 351.9375 233.910156 C 351.890625 233.789062 351.90625 233.777344 351.855469 233.65625 C 351.765625 233.4375 351.703125 233.328125 351.644531 233.1875 C 351.1875 232.128906 350.378906 231.183594 349.398438 230.6875 C 349.003906 230.492188 348.578125 230.460938 348.167969 230.519531 C 347.199219 230.652344 346.378906 231.484375 345.839844 232.46875 C 345.777344 232.183594 345.785156 231.851562 345.710938 231.578125 C 345.378906 230.363281 344.363281 229.265625 343.125 228.699219 C 342.445312 228.382812 341.6875 228.429688 340.882812 228.699219 C 340.316406 228.882812 339.773438 229.140625 339.058594 229.585938 C 338.835938 229.378906 338.664062 229.140625 338.421875 228.953125 C 337.839844 228.496094 337.152344 228.183594 336.472656 228.0625 C 335.796875 227.941406 335.121094 227.996094 334.484375 228.273438 C 333.191406 228.839844 332.472656 229.554688 331.136719 231.15625 C 331.109375 231.1875 331.078125 231.164062 331.050781 231.195312 C 331.03125 231.21875 331.070312 231.21875 331.050781 231.238281 C 331.003906 231.296875 330.972656 231.308594 330.925781 231.367188 C 330.863281 231.441406 330.851562 231.46875 330.796875 231.535156 C 330.460938 230.953125 330.039062 230.117188 329.695312 229.585938 C 329.109375 228.675781 328.328125 227.957031 327.363281 227.425781 C 326.820312 227.128906 326.335938 227.03125 325.796875 227.128906 C 325.261719 227.230469 324.695312 227.511719 324.058594 227.933594 C 322.960938 228.667969 322.433594 229.75 321.941406 231.621094 C 321.894531 231.800781 321.816406 231.960938 321.730469 232.300781 C 321.652344 232.605469 321.613281 232.824219 321.5625 233.019531 C 321.527344 233.144531 321.5 233.230469 321.476562 233.359375 C 321.375 233.875 321.351562 234.304688 321.347656 235.179688 C 321.347656 235.523438 321.351562 235.679688 321.347656 235.859375 C 321.316406 235.859375 321.257812 235.859375 321.222656 235.859375 C 320.46875 235.875 319.855469 235.886719 318.511719 235.941406 C 317.636719 235.980469 317.253906 236.011719 316.773438 236.027344 C 315.644531 236.0625 314.734375 236.089844 313.847656 236.070312 C 313.742188 236.066406 313.667969 236.046875 313.511719 236.070312 C 313.308594 235.8125 313.253906 235.5 313.003906 235.265625 C 312.429688 234.734375 311.789062 234.65625 310.714844 234.757812 C 310.640625 234.765625 310.65625 234.75 310.585938 234.757812 C 310.199219 234.792969 310.042969 234.804688 309.867188 234.796875 C 309.390625 234.785156 308.890625 234.859375 308.300781 234.925781 C 308.300781 234.097656 308.296875 233.347656 308.300781 232.257812 C 308.300781 231.902344 308.296875 231.625 308.300781 230.984375 C 308.300781 230.117188 308.300781 229.730469 308.300781 229.25 C 308.339844 228.628906 308.320312 227.769531 308.382812 227.171875 C 308.417969 226.859375 308.15625 226.644531 307.875 226.535156 C 307.855469 226.476562 307.957031 226.421875 307.917969 226.367188 C 307.34375 225.574219 306.816406 225.015625 305.628906 223.78125 C 304.964844 223.089844 304.664062 222.78125 304.316406 222.382812 C 304.070312 222.105469 303.863281 221.84375 303.425781 221.367188 C 303.40625 221.347656 303.402344 221.347656 303.382812 221.324219 C 302.582031 220.453125 302.253906 220.0625 301.859375 219.546875 C 301.789062 219.457031 301.664062 219.546875 301.5625 219.503906 C 301.464844 219.433594 301.480469 219.253906 301.351562 219.25 C 300.144531 219.195312 299.054688 219.144531 297.027344 218.996094 C 296.917969 218.988281 296.925781 219.003906 296.816406 218.996094 C 292.714844 218.695312 290.894531 218.578125 288.597656 218.613281 L 286.054688 218.613281 C 283.929688 218.597656 282.859375 218.597656 281.605469 218.699219 C 281.5625 218.703125 281.5625 218.769531 281.519531 218.78125 C 281.402344 218.777344 281.261719 218.789062 281.140625 218.78125 C 281.035156 218.78125 281.019531 218.914062 280.929688 218.953125 C 280.746094 218.941406 280.570312 218.816406 280.417969 218.953125 C 279.011719 220.25 277.925781 221.304688 275.546875 223.742188 C 275.527344 223.761719 275.527344 223.761719 275.503906 223.78125 C 274.59375 224.71875 274.160156 225.167969 273.640625 225.6875 C 273.527344 225.804688 273.65625 225.960938 273.640625 226.113281 C 273.546875 226.222656 273.359375 226.222656 273.34375 226.367188 C 273.140625 228.230469 273.117188 229.761719 273.089844 232.976562 C 273.089844 233.0625 273.089844 233.0625 273.089844 233.144531 C 273.070312 235.714844 273.015625 236.863281 272.921875 238.273438 C 272.796875 240.113281 272.777344 241.578125 272.707031 244.882812 C 272.695312 245.480469 272.671875 245.78125 272.667969 246.113281 C 272.617188 248.296875 272.550781 249.773438 272.453125 251.28125 C 272.417969 251.8125 272.503906 252.351562 272.539062 252.890625 C 272.527344 253.414062 272.515625 254.089844 272.496094 254.542969 C 272.496094 254.589844 272.5 254.582031 272.496094 254.628906 C 272.460938 255.488281 272.519531 255.902344 272.960938 256.449219 C 273.394531 256.984375 273.777344 257.429688 274.53125 258.398438 C 274.550781 258.421875 274.511719 258.457031 274.53125 258.484375 C 276.144531 260.566406 276.929688 261.503906 277.960938 262.59375 C 278.039062 262.675781 278.113281 262.710938 278.257812 262.890625 C 278.257812 262.890625 278.257812 262.933594 278.257812 262.933594 C 278.445312 263.160156 278.511719 263.226562 278.640625 263.355469 C 278.742188 263.460938 278.886719 263.324219 279.023438 263.355469 C 279.34375 264.023438 279.929688 264.378906 280.886719 264.414062 C 281.039062 264.421875 281.183594 264.417969 281.4375 264.414062 C 281.664062 264.414062 281.722656 264.410156 281.816406 264.414062 C 283.523438 264.496094 284.902344 264.550781 287.960938 264.585938 C 288.347656 264.589844 288.339844 264.578125 288.722656 264.585938 C 291.546875 264.617188 293.238281 264.644531 295.039062 264.753906 C 296.902344 264.867188 298.105469 264.851562 299.316406 264.542969 C 299.707031 264.441406 299.914062 264.257812 300.332031 263.863281 C 300.335938 263.863281 300.375 263.867188 300.375 263.863281 C 300.523438 263.726562 300.558594 263.703125 300.628906 263.652344 C 300.644531 263.640625 300.617188 263.621094 300.628906 263.609375 C 300.640625 263.601562 300.660156 263.621094 300.671875 263.609375 C 300.929688 263.355469 301.164062 263.113281 301.5625 262.71875 C 301.671875 262.609375 301.707031 262.617188 301.816406 262.507812 C 304.382812 259.960938 305.628906 258.800781 307.238281 257.550781 C 307.382812 257.441406 307.296875 257.253906 307.324219 257.085938 C 307.40625 256.972656 307.582031 256.945312 307.578125 256.789062 C 307.542969 254.839844 307.578125 252.648438 307.578125 250.601562 C 307.589844 249.960938 307.609375 249.773438 307.621094 249.246094 C 307.839844 249.214844 307.871094 249.195312 308.128906 249.160156 C 308.144531 249.160156 308.160156 249.164062 308.171875 249.160156 C 309.058594 249.050781 309.488281 248.988281 309.992188 248.910156 C 310.121094 248.886719 310.257812 248.898438 310.417969 248.910156 C 310.578125 248.917969 310.695312 248.949219 311.011719 248.992188 C 311.929688 249.121094 312.386719 249.128906 312.960938 248.910156 C 313.273438 248.785156 313.515625 248.433594 313.765625 248.1875 C 313.773438 248.1875 313.78125 248.183594 313.808594 248.1875 C 315.335938 248.289062 316.027344 248.316406 316.898438 248.273438 C 316.925781 248.269531 316.960938 248.273438 316.984375 248.273438 C 317.121094 248.265625 317.386719 248.242188 317.664062 248.230469 C 317.660156 249.386719 317.953125 250.542969 318.722656 251.535156 C 318.523438 251.277344 318.410156 251.078125 318.339844 250.898438 C 318.339844 250.894531 318.359375 250.972656 318.425781 251.195312 C 318.617188 251.863281 318.746094 252.238281 318.976562 252.761719 C 319.378906 253.679688 319.910156 254.523438 320.671875 255.261719 C 321.464844 256.03125 322.324219 256.589844 323.296875 257.042969 C 323.902344 257.324219 324.355469 257.488281 325.203125 257.761719 C 325.304688 257.796875 325.324219 257.777344 325.417969 257.804688 C 325.625 257.875 325.734375 257.933594 325.839844 257.976562 C 328.691406 259.054688 331.289062 261.367188 334.484375 264.921875 C 333.019531 267.703125 331.816406 270.132812 330.839844 272.71875 C 329.585938 276.03125 329.015625 278.195312 328.722656 280.472656 C 328.359375 281.796875 327.929688 282.609375 327.535156 284.414062 C 327.453125 284.78125 327.445312 284.769531 327.363281 285.132812 C 327.25 285.667969 327.222656 285.964844 327.152344 286.277344 C 325.851562 292.160156 325.597656 297.667969 326.6875 302.886719 C 327.503906 306.796875 327.347656 310.851562 326.179688 314.792969 C 325.597656 316.761719 324.855469 318.40625 323 322.078125 C 322.960938 322.164062 322.957031 322.167969 322.917969 322.25 C 322.707031 322.660156 322.585938 322.910156 322.449219 323.179688 C 320.328125 327.414062 318.84375 332.089844 317.960938 337.035156 C 317.886719 337.445312 317.839844 337.574219 317.621094 338.6875 C 317.375 339.929688 317.277344 340.644531 317.152344 341.484375 C 316.574219 345.503906 316.847656 348.777344 318.722656 351.867188 C 319.570312 353.261719 320.378906 354.101562 321.984375 355.507812 C 322.019531 355.539062 321.992188 355.519531 322.027344 355.550781 C 322.105469 355.621094 322.085938 355.617188 322.152344 355.679688 C 322.285156 357.007812 322.589844 358.355469 323.296875 360.042969 C 324.855469 363.753906 326.941406 366.605469 330.078125 368.558594 C 334.136719 371.089844 338.25 371.953125 342.40625 369.703125 C 342.980469 369.390625 343.355469 368.980469 343.804688 368.601562 C 343.972656 368.582031 344.152344 368.695312 344.269531 368.558594 C 344.292969 368.53125 344.289062 368.542969 344.3125 368.515625 C 344.464844 368.339844 344.457031 368.3125 344.609375 368.136719 C 345.988281 366.539062 346.640625 365.695312 347.238281 364.574219 C 348.738281 361.761719 349.996094 358.628906 351.050781 355.171875 C 351.34375 354.203125 351.609375 353.207031 351.898438 352.078125 C 352.148438 351.097656 352.316406 350.328125 352.742188 348.519531 C 353.378906 345.832031 353.714844 344.597656 354.144531 343.09375 C 354.179688 342.960938 354.1875 342.976562 354.226562 342.839844 C 354.855469 340.648438 354.960938 339.730469 355.285156 338.347656 C 355.632812 339.167969 356.164062 340.09375 356.8125 341.0625 C 356.96875 341.386719 357.078125 341.667969 357.277344 342.035156 C 357.691406 342.789062 357.945312 343.03125 358.253906 343.519531 C 358.476562 344.019531 358.460938 345.242188 358.550781 345.976562 C 358.617188 348.929688 358.582031 351.847656 358.886719 354.917969 C 358.9375 355.398438 358.976562 355.824219 359.058594 356.652344 C 359.15625 357.671875 359.171875 358.066406 359.226562 358.601562 C 359.550781 361.863281 359.980469 364.273438 360.5 366.484375 C 360.546875 368.355469 360.625 370.171875 360.539062 372.203125 C 360.414062 375.226562 359.726562 377.753906 357.703125 383.515625 C 357.523438 384.019531 357.460938 384.253906 357.363281 384.53125 C 356.835938 386.042969 356.476562 387.152344 356.132812 388.261719 C 356.011719 388.660156 355.847656 389.09375 355.625 389.703125 C 355.570312 389.851562 355.515625 389.96875 355.414062 390.253906 C 354.203125 393.566406 353.796875 395.667969 353.804688 398.003906 C 353.773438 398.101562 353.746094 398.199219 353.71875 398.300781 C 353.058594 400.929688 352.285156 403.253906 350.667969 407.707031 C 350.566406 407.992188 350.601562 407.972656 350.5 408.257812 C 349.066406 412.203125 348.40625 414.082031 347.703125 416.4375 C 346.519531 420.402344 345.703125 423.640625 344.015625 430.628906 C 343.558594 432.519531 343.367188 433.214844 343.125 434.1875 C 342.617188 436.277344 342.203125 437.96875 341.769531 439.613281 C 340.269531 445.300781 338.039062 450.742188 334.144531 458.890625 C 331.175781 465.101562 329.199219 471.507812 326.984375 480.878906 C 326.96875 480.949219 326.957031 481.023438 326.941406 481.09375 C 326.351562 482.753906 325.875 484.472656 325.585938 486.261719 C 325.199219 488.667969 325.070312 490.703125 324.949219 494.566406 C 324.945312 494.710938 324.953125 494.714844 324.949219 494.863281 C 324.847656 498.136719 324.742188 499.511719 324.527344 501.175781 C 324.519531 501.210938 324.53125 501.265625 324.527344 501.304688 C 324.484375 501.636719 324.480469 502.164062 324.441406 502.488281 C 324.226562 504.273438 324.109375 505.789062 324.019531 508.929688 C 324.015625 509.023438 324.019531 509.003906 324.019531 509.097656 C 323.953125 511.277344 323.871094 512.390625 323.765625 513.589844 C 323.679688 515.675781 323.496094 516.5625 323.425781 519.480469 C 323.097656 524.636719 322.90625 529.71875 322.917969 534.730469 C 322.816406 537.789062 322.730469 540.835938 322.746094 543.289062 C 322.769531 546.632812 322.886719 549.613281 323.171875 552.65625 C 323.199219 552.945312 323.230469 553.429688 323.253906 553.714844 C 323.265625 554.28125 323.289062 555.246094 323.296875 555.832031 C 323.378906 560.429688 323.386719 564.445312 323.339844 568.289062 C 323.316406 570.125 323.246094 572.046875 323.128906 574.515625 C 323.09375 575.273438 323.070312 575.890625 323 577.269531 C 322.816406 580.839844 322.71875 582.449219 322.664062 584.472656 C 322.5 590.179688 322.148438 594.964844 321.644531 599.472656 C 320.816406 603.207031 320.078125 606.609375 319.144531 609.175781 C 318.53125 610.867188 317.945312 612.3125 316.773438 615.234375 C 316.71875 615.367188 316.699219 615.394531 316.644531 615.53125 C 313.347656 623.746094 312.039062 627.570312 311.09375 632.734375 C 309.699219 640.375 309.316406 648.039062 309.441406 658.917969 C 309.460938 660.570312 309.464844 661.898438 309.484375 664.890625 C 309.558594 676.554688 309.714844 681.734375 310.289062 688.320312 C 311.542969 702.679688 312.324219 714.027344 312.707031 724.972656 C 312.75 726.21875 312.792969 727.214844 312.917969 729.421875 C 312.957031 730.164062 312.980469 730.492188 313.003906 730.902344 C 313.1875 734.40625 313.136719 736.523438 313.003906 738.699219 C 312.460938 739.382812 312.054688 740.175781 311.730469 741.496094 C 311.6875 741.675781 311.6875 741.699219 311.644531 741.875 C 311.53125 742.34375 311.46875 742.59375 311.390625 742.851562 C 311 744.179688 310.371094 745.484375 309.570312 746.875 C 308.183594 746.929688 306.785156 746.988281 305.503906 747.386719 C 300.386719 748.972656 296.4375 750.871094 293.171875 753.570312 C 292.882812 753.808594 292.699219 754.15625 292.664062 754.503906 C 292.640625 754.742188 292.769531 754.960938 292.875 755.179688 C 289.890625 757.300781 287.851562 758.8125 285.929688 760.390625 C 285.636719 760.628906 285.605469 761.035156 285.84375 761.324219 C 286.082031 761.613281 286.484375 761.644531 286.773438 761.410156 C 288.730469 759.804688 290.730469 758.363281 293.851562 756.15625 C 293.90625 756.117188 293.855469 756.035156 293.894531 755.984375 C 294.238281 756.019531 294.578125 755.925781 294.867188 755.6875 C 297.738281 753.3125 301.347656 751.5625 305.96875 750.097656 C 305.890625 750.152344 305.785156 750.253906 305.714844 750.308594 C 305.550781 750.433594 304.957031 750.925781 304.824219 751.027344 C 302.503906 752.839844 301.308594 753.988281 300.417969 755.605469 C 300.019531 756.328125 299.777344 756.910156 299.699219 757.511719 C 299.59375 758.296875 299.898438 758.925781 300.503906 759.375 C 298.820312 761.082031 297.976562 762.085938 297.28125 763.527344 C 297.210938 763.679688 297.179688 763.925781 297.113281 764.078125 C 297.03125 764.136719 296.96875 764.164062 296.773438 764.246094 C 296.753906 764.257812 296.753906 764.238281 296.730469 764.246094 C 296.707031 764.257812 296.710938 764.28125 296.691406 764.289062 C 296.585938 764.285156 296.527344 764.289062 296.433594 764.289062 C 296.207031 764.289062 295.964844 764.316406 295.757812 764.417969 C 294.5 765.035156 293.730469 765.871094 292.453125 767.636719 C 292.332031 767.800781 292.316406 767.8125 292.199219 767.976562 C 291.855469 768.449219 291.53125 768.800781 290.757812 769.585938 C 290.195312 770.15625 290.175781 770.507812 289.824219 770.941406 C 288.25 772.164062 286.160156 774.042969 284.613281 775.007812 C 284.214844 775.257812 283.839844 775.480469 283.175781 775.855469 C 283.0625 775.917969 283.070312 775.921875 282.960938 775.984375 C 280.644531 777.300781 279.585938 778.027344 278.472656 779.246094 C 275.6875 782.289062 276.8125 787.378906 280.546875 788.863281 C 282.195312 789.519531 283.546875 789.785156 286.5625 790.21875 C 286.644531 790.230469 286.648438 790.25 286.734375 790.261719 C 288.644531 790.539062 289.582031 790.695312 290.632812 790.980469 C 291.75 791.292969 293.261719 791.390625 294.445312 791.617188 C 296.277344 792.421875 298.332031 792.957031 301.054688 793.015625 L 304.992188 793.015625 C 307.128906 793.015625 308.648438 792.582031 311.898438 791.320312 C 311.949219 791.300781 311.9375 791.296875 311.984375 791.277344 C 313.324219 790.761719 314.011719 790.53125 314.78125 790.304688 C 316.375 789.835938 317.695312 789.519531 320.628906 788.90625 C 320.65625 788.902344 320.683594 788.910156 320.714844 788.90625 C 323.023438 788.421875 324.046875 788.175781 325.332031 787.847656 C 327.804688 787.210938 329.824219 786.867188 334.441406 786.195312 C 337.785156 785.707031 339.277344 785.46875 341.136719 785.09375 C 343.164062 784.683594 345.09375 783.546875 346.429688 781.957031 C 346.957031 781.335938 347.25 780.652344 347.320312 779.882812 C 347.394531 779.109375 347.246094 778.25 346.980469 777.210938 C 346.925781 776.996094 346.859375 776.769531 346.769531 776.449219 C 346.546875 775.648438 346.496094 775.421875 346.429688 775.09375 C 346.0625 773.246094 344.675781 771.976562 342.957031 771.449219 C 342.921875 771.390625 342.910156 771.339844 342.871094 771.28125 C 342.765625 771.117188 342.398438 770.515625 342.320312 770.390625 C 341.425781 768.976562 340.734375 767.363281 339.992188 765.011719 C 339.753906 764.261719 339.699219 763.644531 339.695312 762.171875 C 339.695312 762.039062 339.695312 762.050781 339.695312 761.917969 C 339.691406 761.183594 339.667969 760.699219 339.609375 760.179688 C 339.316406 757.519531 338.886719 755.238281 338.210938 753.144531 C 337.722656 751.632812 337.628906 749.964844 337.746094 747.554688 C 337.769531 747.101562 337.777344 746.742188 337.832031 745.945312 C 337.878906 745.175781 337.894531 744.875 337.914062 744.460938 C 337.925781 744.273438 337.960938 744.089844 338 743.699219 C 338.027344 743.433594 338.03125 743.308594 338.042969 743.148438 C 338.140625 741.878906 338.023438 740.953125 337.492188 740.054688 C 337.175781 739.523438 336.726562 739.332031 336.261719 739.164062 C 335.84375 730.898438 337.359375 722.015625 340.839844 710.988281 C 341.484375 708.941406 342.105469 707.242188 343.550781 703.574219 C 343.578125 703.503906 343.605469 703.476562 343.636719 703.40625 C 345.425781 698.863281 346.175781 696.816406 346.980469 694.082031 C 350.671875 681.601562 352.15625 675.574219 352.957031 667.984375 C 353.164062 666.019531 353.296875 664.21875 353.507812 661.203125 C 353.535156 660.808594 353.5625 660.796875 353.589844 660.398438 C 353.890625 656.078125 354.03125 654.160156 354.3125 651.839844 C 354.84375 647.472656 355.015625 643.070312 354.988281 637.222656 C 354.984375 635.878906 354.976562 634.828125 354.949219 632.4375 C 354.925781 630.800781 354.914062 630.074219 354.90625 629.175781 C 354.902344 629.007812 354.867188 628.78125 354.863281 628.621094 C 358.140625 623.59375 360.550781 619.109375 361.9375 614.046875 C 363.839844 607.113281 365.742188 599.863281 367.914062 591.253906 C 369.117188 586.46875 370 582.386719 371.683594 574.222656 C 371.746094 573.925781 371.75 573.921875 371.808594 573.628906 C 372.988281 567.914062 373.515625 565.375 374.226562 562.230469 C 374.878906 559.332031 375.808594 556.890625 378.125 551.636719 C 378.160156 551.554688 378.171875 551.550781 378.207031 551.46875 C 379.765625 547.9375 380.414062 546.332031 381.175781 544.222656 C 382.046875 541.800781 382.828125 539.847656 384.605469 535.496094 C 384.652344 535.382812 384.644531 535.394531 384.691406 535.28125 C 386.792969 530.140625 387.789062 527.644531 388.84375 524.5625 C 389.226562 523.441406 389.546875 522.53125 390.367188 520.453125 C 390.414062 520.335938 390.449219 520.316406 390.496094 520.199219 C 392.394531 515.398438 393.195312 512.929688 393.714844 509.691406 C 393.757812 509.425781 393.796875 509.261719 393.929688 508.589844 C 394.097656 507.699219 394.1875 507.175781 394.265625 506.558594 C 394.476562 504.9375 394.34375 503.464844 394.011719 502.023438 C 394.222656 500.40625 394.195312 499.53125 393.589844 498.550781 C 393.535156 498.460938 393.613281 498.539062 393.375 498.210938 C 393.320312 498.132812 393.3125 498.136719 393.292969 498.125 C 393.375 498.023438 393.507812 497.847656 393.589844 497.742188 C 393.699219 497.625 393.757812 497.53125 393.929688 497.363281 C 393.953125 497.335938 393.945312 497.34375 393.96875 497.320312 C 394.960938 496.320312 395.375 495.78125 395.75 495.03125 C 396.070312 495 396.371094 494.960938 396.554688 494.609375 C 396.878906 493.988281 397.28125 493.511719 398.164062 492.53125 C 398.179688 492.515625 398.148438 492.507812 398.164062 492.488281 C 398.890625 491.683594 399.253906 491.324219 399.605469 490.792969 C 399.714844 490.628906 399.785156 490.433594 399.945312 490.160156 C 399.976562 490.101562 399.996094 490.132812 400.027344 490.074219 C 400.300781 489.605469 400.472656 489.503906 400.664062 489.3125 C 400.710938 489.386719 400.703125 489.535156 400.792969 489.609375 C 401.21875 489.980469 401.597656 490.011719 402.273438 489.945312 C 402.300781 489.945312 402.335938 489.949219 402.359375 489.945312 C 402.773438 489.90625 402.804688 489.902344 402.867188 489.988281 C 402.941406 490.09375 403.007812 490.195312 403.121094 490.457031 C 403.125 490.464844 403.117188 490.488281 403.121094 490.5 C 403.433594 491.214844 403.707031 491.582031 404.308594 491.898438 C 404.726562 492.117188 405.121094 492.1875 405.75 492.234375 C 405.832031 492.242188 405.839844 492.230469 405.917969 492.234375 C 406.554688 492.28125 406.761719 492.339844 406.976562 492.488281 C 407.339844 492.742188 407.609375 493.042969 408.121094 493.761719 C 408.136719 493.78125 408.105469 493.78125 408.121094 493.804688 C 408.261719 494.003906 408.367188 494.105469 408.460938 494.226562 C 408.5 494.28125 408.503906 494.300781 408.546875 494.355469 C 408.664062 494.515625 408.636719 494.488281 408.757812 494.652344 C 409.773438 496.007812 410.367188 496.734375 411.171875 497.40625 C 411.425781 497.613281 411.828125 497.722656 412.105469 497.914062 C 412.460938 498.21875 412.632812 498.542969 413.289062 498.929688 C 413.300781 498.9375 413.324219 498.921875 413.332031 498.929688 C 413.429688 498.984375 413.417969 499.007812 413.503906 499.058594 C 413.492188 499.183594 413.347656 499.273438 413.417969 499.394531 C 413.375 499.324219 413.386719 499.261719 413.246094 499.394531 C 413.222656 499.421875 413.234375 499.410156 413.207031 499.4375 C 412.898438 499.734375 412.75 499.902344 412.65625 500.203125 C 412.515625 500.632812 412.621094 500.984375 412.867188 501.386719 C 412.910156 501.457031 412.914062 501.496094 412.953125 501.554688 C 413.042969 501.707031 413.070312 501.730469 413.078125 501.769531 C 413.125 501.988281 413.136719 502.199219 413.164062 502.660156 C 413.164062 502.675781 413.164062 502.683594 413.164062 502.699219 C 413.222656 503.722656 413.355469 504.226562 413.757812 504.820312 C 414.164062 505.425781 414.269531 506.023438 414.308594 507.402344 C 414.308594 507.429688 414.308594 507.417969 414.308594 507.445312 C 414.328125 508.167969 414.332031 508.519531 414.390625 508.929688 C 414.445312 509.289062 414.476562 509.585938 414.5625 510.199219 C 414.648438 510.832031 414.683594 511.058594 414.730469 511.386719 C 415.367188 515.824219 415.96875 518.449219 417.144531 521.132812 C 417.636719 522.253906 417.976562 523.164062 418.753906 525.242188 C 418.757812 525.242188 418.796875 525.238281 418.796875 525.242188 C 419.476562 527.050781 419.878906 527.75 420.324219 528.800781 C 420.628906 529.816406 420.601562 530.035156 420.960938 531.214844 C 421.046875 531.503906 421.082031 531.519531 421.171875 531.808594 C 421.496094 532.878906 421.714844 533.578125 421.933594 534.308594 C 423.609375 539.875 425.433594 544.027344 429.855469 552.992188 C 429.902344 553.085938 429.894531 553.070312 429.941406 553.164062 C 431.476562 556.277344 432.207031 557.78125 433.035156 559.5625 C 433.457031 560.46875 433.796875 561.191406 434.558594 562.78125 C 434.566406 562.792969 434.550781 562.808594 434.558594 562.824219 C 437.460938 568.867188 438.5625 571.550781 439.347656 574.984375 C 440.03125 577.984375 440.460938 580.472656 441.253906 586.167969 C 441.269531 586.28125 441.238281 586.269531 441.253906 586.378906 C 442.421875 594.769531 443.171875 598.734375 444.726562 603.582031 C 447.007812 610.667969 450.402344 617.441406 454.855469 623.878906 C 454.976562 624.054688 455.15625 624.210938 455.277344 624.386719 C 457.757812 631.390625 459.222656 638.605469 460.785156 650.484375 C 461.136719 653.144531 461.386719 655.3125 461.886719 660.1875 C 461.933594 660.609375 461.929688 660.613281 461.972656 661.035156 C 463.195312 672.890625 464.066406 678.824219 466.082031 685.777344 C 467.835938 691.832031 469.742188 696.613281 474.046875 706.414062 C 474.136719 706.613281 474.128906 706.597656 474.21875 706.792969 C 476.417969 711.804688 477.421875 714.074219 478.539062 716.878906 C 480.3125 721.332031 481.617188 725.5 483.921875 733.316406 C 483.90625 733.519531 483.945312 733.625 483.921875 733.910156 C 483.914062 733.976562 483.925781 733.972656 483.921875 734.039062 C 483.886719 734.382812 483.847656 734.5625 483.835938 734.757812 C 483.527344 739.617188 483.550781 743.503906 483.707031 752.257812 C 483.71875 752.773438 483.699219 752.757812 483.707031 753.273438 C 483.71875 753.871094 483.636719 754.488281 483.410156 755.351562 C 483.367188 755.519531 483.335938 755.609375 483.242188 755.941406 C 482.988281 756.867188 482.859375 757.328125 482.777344 757.890625 C 482.753906 758.042969 482.761719 758.066406 482.648438 758.570312 C 482.601562 758.792969 482.550781 758.960938 482.523438 759.121094 C 482.320312 760.25 482.605469 761.023438 483.328125 761.492188 C 483.320312 762.261719 483.332031 762.917969 483.285156 764.289062 C 483.285156 764.324219 483.285156 764.296875 483.285156 764.332031 C 483.164062 767.914062 483.164062 769.53125 483.371094 771.535156 C 483.449219 772.328125 483.101562 773.058594 482.351562 773.863281 C 479.050781 777.425781 477.640625 780.214844 479.515625 782.382812 C 480.445312 783.460938 481.386719 783.796875 483.539062 784.117188 C 483.636719 784.132812 483.652344 784.148438 483.75 784.160156 C 484.550781 784.28125 485 784.347656 485.445312 784.5 C 486.867188 784.984375 488.015625 785.632812 490.191406 787 C 490.351562 787.097656 490.328125 787.113281 490.488281 787.210938 C 491.265625 787.703125 491.703125 787.945312 492.183594 788.226562 C 497.023438 791.09375 502.09375 792.585938 507.011719 792.339844 C 507.207031 792.328125 507.539062 792.34375 507.730469 792.339844 C 508.285156 792.351562 508.628906 792.527344 509.257812 792.507812 C 510.089844 792.480469 510.730469 792.460938 512.222656 792.382812 C 512.746094 792.351562 512.992188 792.308594 513.28125 792.296875 C 516.101562 792.152344 517.882812 792.15625 519.722656 792.296875 C 521.605469 792.441406 523.445312 792.308594 526.417969 792.042969 C 527.460938 792.0625 528.589844 792.078125 529.425781 792.085938 C 529.746094 792.085938 530.007812 792.066406 530.609375 792.085938 C 531.066406 792.097656 531.28125 792.121094 531.542969 792.125 C 533.53125 792.160156 534.859375 791.960938 536.121094 791.320312 C 536.992188 790.878906 537.386719 790.164062 537.433594 789.328125 C 537.480469 788.496094 537.167969 787.558594 536.585938 786.746094 C 536.480469 786.597656 536.398438 786.472656 536.203125 786.320312 C 536.183594 786.308594 536.179688 786.335938 536.160156 786.320312 C 536.046875 786.234375 535.996094 786.199219 535.992188 786.195312 C 536.058594 786.292969 536.0625 786.464844 535.992188 786.574219 C 536.128906 786.355469 535.941406 786.148438 535.824219 785.941406 C 536.664062 783.53125 535.875 781.148438 533.746094 778.144531 C 531.632812 775.160156 529.082031 772.855469 526.121094 771.578125 C 525.496094 771.308594 525.144531 770.9375 524.46875 769.882812 C 523.945312 769.0625 523.644531 768.667969 523.195312 768.273438 C 523.003906 768.101562 522.800781 767.941406 522.5625 767.765625 C 522.425781 767.667969 522.304688 767.601562 522.054688 767.425781 C 521.78125 767.234375 521.667969 767.097656 521.5 766.960938 C 521.230469 766.34375 520.972656 765.695312 520.613281 765.265625 C 519.933594 764.457031 519.15625 763.746094 518.113281 762.890625 C 518.074219 762.859375 518.027344 762.914062 517.984375 762.890625 C 517.363281 761.769531 516.625 760.785156 515.738281 759.96875 C 515.644531 759.878906 515.570312 759.785156 515.402344 759.628906 C 515.382812 759.613281 515.378906 759.644531 515.359375 759.628906 C 514.886719 759.195312 514.71875 759 514.46875 758.738281 C 513.976562 757.117188 513.417969 755.855469 512.390625 754.925781 C 510.191406 752.933594 508.550781 750.933594 507.519531 748.699219 C 506.550781 746.597656 506.097656 744.574219 505.527344 740.691406 C 505.492188 740.441406 505.523438 740.429688 505.488281 740.183594 C 505.238281 738.460938 505.117188 737.707031 504.9375 736.75 C 504.640625 735.214844 504.519531 733.285156 504.382812 731.113281 C 504.433594 729.703125 504.453125 728.742188 504.554688 726.410156 C 504.582031 725.734375 504.582031 725.421875 504.597656 725.054688 C 505.066406 714 505.164062 705.597656 504.851562 697.347656 C 504.675781 692.757812 504.777344 689 505.148438 680.441406 C 505.191406 679.433594 505.207031 678.972656 505.230469 678.40625 C 505.957031 661.230469 505.40625 651.980469 501.886719 641.585938 C 501.246094 639.703125 500.828125 638.128906 499.9375 634.425781 C 499.929688 634.402344 499.941406 634.410156 499.9375 634.386719 C 498.589844 628.8125 497.835938 626.253906 496.460938 623.074219 C 493.855469 617.027344 492.292969 612.875 491.082031 608.667969 C 489.757812 604.074219 489.054688 600.269531 487.777344 591.59375 C 487.757812 591.453125 487.753906 591.433594 487.734375 591.296875 C 487.074219 586.808594 486.792969 582.210938 486.675781 577.566406 C 486.796875 572.824219 486.910156 568.335938 487.140625 561.890625 C 487.414062 554.222656 487.136719 546.253906 486.378906 537.699219 C 486.21875 535.890625 486.113281 533.96875 486.039062 531.808594 C 485.976562 530.027344 485.957031 528.625 485.914062 525.367188 C 485.824219 518.976562 485.71875 516.09375 485.402344 512.445312 C 485.265625 510.855469 485.214844 509.554688 485.066406 506.597656 C 484.808594 501.585938 484.636719 499.328125 484.21875 496.429688 C 483.785156 493.460938 482.808594 490.488281 481.546875 487.574219 C 482.101562 487.027344 482.246094 486.363281 481.972656 485.582031 C 480.410156 481.140625 479.625 478.863281 478.792969 476.21875 C 477.945312 473.523438 476.425781 471.078125 474.554688 468.761719 C 474.394531 468.460938 474.347656 468.320312 474.175781 468 C 474.152344 467.957031 474.15625 467.917969 474.132812 467.875 C 472.445312 464.757812 471.722656 463.402344 470.996094 461.730469 C 471.019531 461.472656 471.046875 461.277344 471.125 460.753906 C 471.15625 460.535156 471.191406 460.414062 471.210938 460.289062 C 471.460938 458.515625 471.355469 457.425781 470.53125 456.347656 C 470.144531 455.84375 469.988281 455.242188 469.683594 454.695312 C 469.625 454.117188 469.492188 454.125 469.429688 453.425781 C 469.175781 450.578125 469.011719 449.257812 468.710938 447.578125 C 468.609375 447.027344 468.433594 446.5 468.328125 445.96875 C 468.390625 445.546875 468.460938 445.171875 468.496094 444.867188 C 468.640625 443.660156 468.625 442.703125 468.457031 441.730469 C 468.292969 440.808594 467.875 440.414062 466.929688 439.910156 C 465.988281 436.402344 464.785156 432.449219 462.863281 426.648438 C 462.1875 424.613281 461.914062 423.664062 461.550781 422.539062 C 461.652344 422.195312 461.785156 421.8125 461.804688 421.476562 C 461.84375 420.765625 461.617188 420.222656 461.167969 419.65625 C 461.171875 419.628906 461.167969 419.601562 461.167969 419.570312 C 461.3125 418.765625 461.574219 417.890625 461.421875 417.199219 C 461.289062 416.601562 461.050781 416.195312 460.53125 415.335938 C 460.304688 414.960938 460.34375 414.816406 460.234375 414.574219 C 460.132812 413.1875 459.984375 411.945312 459.9375 410.167969 C 459.925781 409.640625 459.917969 409.222656 459.898438 408.257812 C 459.882812 407.628906 459.871094 407.460938 459.855469 406.988281 C 461.050781 403.449219 461.605469 399.78125 461.378906 396.097656 C 461.171875 392.699219 460.898438 389.980469 460.191406 384.152344 C 460.183594 384.085938 460.160156 384.089844 460.152344 384.023438 C 459.886719 381.835938 459.777344 380.867188 459.644531 379.660156 C 459.191406 375.652344 459.363281 372.324219 460.152344 364.703125 C 460.164062 364.570312 460.179688 364.582031 460.191406 364.449219 C 460.238281 364.019531 460.246094 363.875 460.277344 363.515625 C 462.753906 360.210938 463.753906 356.832031 463.667969 352.035156 C 463.636719 350.316406 463.480469 348.40625 463.246094 346.273438 C 463.214844 346.007812 463.210938 345.785156 463.160156 345.339844 C 462.800781 342.21875 462.675781 340.921875 462.691406 339.492188 C 462.714844 337.554688 462.75 335.933594 462.777344 332.546875 C 463.292969 332.074219 463.882812 331.667969 464.261719 331.105469 C 465.203125 330.148438 465.894531 328.980469 465.957031 327.628906 C 468.042969 320.449219 468.773438 312.675781 468.242188 304.792969 C 468.230469 304.632812 468.171875 304.398438 468.160156 304.242188 C 469.304688 301.566406 470.085938 298.699219 470.53125 295.597656 C 471.71875 291.058594 472.382812 287.015625 472.355469 282.71875 C 472.3125 276.699219 472.855469 273.183594 474.472656 270.304688 C 477.660156 264.628906 479.804688 258.675781 482.269531 249.714844 C 482.589844 248.539062 482.785156 247.820312 483.410156 245.476562 C 483.617188 244.710938 483.632812 244.714844 483.835938 243.949219 C 484.332031 242.097656 484.480469 241.515625 484.726562 240.605469 C 489.464844 222.828125 491.726562 212.710938 493.15625 201.242188 C 493.355469 199.648438 493.539062 198.335938 493.917969 195.480469 C 494.140625 193.820312 494.226562 193.125 494.34375 192.21875 C 495.546875 182.984375 495.957031 176.753906 495.867188 170.566406 C 495.976562 170.097656 496.195312 169.351562 496.292969 168.871094 C 498.507812 157.949219 499.148438 152.667969 498.410156 146.246094 C 498.253906 144.882812 498.105469 143.796875 497.859375 141.332031 C 497.839844 141.128906 497.835938 141.113281 497.816406 140.90625 C 497.082031 133.515625 496.601562 129.914062 495.53125 125.695312 C 495.238281 124.554688 494.726562 122.863281 494.386719 121.628906 C 494.269531 120.910156 494.273438 120.304688 494.132812 119.554688 C 493.316406 115.226562 492.273438 111.746094 489.808594 104.46875 C 489.707031 104.164062 489.703125 104.183594 489.597656 103.878906 C 488.855469 101.683594 488.265625 99.769531 487.054688 95.953125 C 487.015625 95.824219 487.011719 95.832031 486.972656 95.699219 C 484.882812 89.109375 483.917969 86.191406 482.5625 82.566406 C 480.597656 77.300781 478.71875 72.6875 476.761719 68.328125 C 475.488281 65.503906 474.679688 63.144531 474.21875 60.828125 C 474.152344 60.5 474.101562 59.929688 474.046875 59.601562 C 474.035156 58.957031 474.054688 58.015625 474.007812 57.398438 C 473.855469 55.523438 473.625 53.855469 473.285156 52.3125 C 473.21875 52.007812 473.191406 51.695312 473.160156 51.210938 C 473.152344 51.097656 473.121094 51.117188 473.117188 51 C 473.082031 50.460938 473.035156 50.203125 472.988281 49.898438 C 473.179688 49.902344 473.386719 49.9375 473.582031 49.941406 C 473.613281 49.984375 473.636719 50.023438 473.667969 50.066406 C 473.878906 50.367188 474.078125 50.652344 474.300781 50.914062 C 474.445312 51.085938 474.675781 51.191406 474.894531 51.167969 C 475.351562 51.125 475.796875 51.082031 476.546875 51.085938 C 476.757812 51.085938 476.761719 51.082031 476.972656 51.085938 C 477.769531 51.089844 478.117188 51.054688 478.582031 51.042969 C 478.597656 52.253906 478.605469 53.121094 478.625 53.921875 C 478.679688 56.042969 478.785156 57.792969 478.921875 59.472656 C 478.945312 59.753906 479.222656 59.851562 479.472656 59.941406 C 479.484375 60.066406 479.351562 60.175781 479.429688 60.277344 C 479.660156 60.59375 479.859375 60.855469 480.277344 61.421875 C 482.378906 64.289062 483.324219 65.519531 484.640625 67.015625 C 484.707031 67.089844 484.808594 67.015625 484.894531 67.058594 C 484.871094 67.433594 485.15625 67.753906 485.53125 67.777344 C 486.445312 67.835938 487.398438 67.960938 488.539062 68.074219 C 489.125 68.132812 489.640625 68.175781 490.65625 68.285156 C 490.8125 68.304688 490.796875 68.3125 490.953125 68.328125 C 496.425781 68.925781 500.761719 69.210938 504.976562 69.175781 C 505.046875 69.175781 505.042969 69.070312 505.105469 69.050781 C 505.316406 69.085938 505.535156 69.210938 505.699219 69.050781 C 506.140625 68.613281 506.519531 68.265625 507.351562 67.523438 C 507.371094 67.507812 507.375 67.5 507.394531 67.480469 C 508.480469 66.511719 508.976562 66.058594 509.554688 65.449219 C 510.441406 64.511719 511.238281 63.746094 512.859375 62.269531 C 513.035156 62.109375 513.066406 62.089844 513.238281 61.929688 C 513.542969 61.65625 513.75 61.445312 513.960938 61.253906 C 514.058594 61.160156 513.929688 61.03125 513.960938 60.914062 C 514.011719 60.820312 514.171875 60.820312 514.171875 60.703125 C 514.171875 60.644531 514.175781 60.578125 514.171875 60.492188 C 514.167969 60.351562 514.167969 60.292969 514.171875 60.238281 C 514.316406 58.738281 514.371094 57.539062 514.46875 54.855469 C 514.46875 54.824219 514.46875 54.84375 514.46875 54.8125 C 514.558594 52.367188 514.597656 51.226562 514.722656 49.855469 C 515.296875 43.566406 515.515625 37.65625 515.316406 31.976562 C 515.308594 31.769531 515.078125 31.75 514.933594 31.636719 C 514.960938 31.4375 515.117188 31.246094 514.976562 31.085938 L 514.765625 30.832031 C 514.082031 29.8125 513.382812 28.988281 511.84375 27.273438 C 511.816406 27.246094 511.824219 27.257812 511.800781 27.230469 C 509.957031 25.175781 509.171875 24.226562 508.410156 22.910156 C 508.277344 22.679688 508.011719 22.726562 507.773438 22.738281 C 507.667969 22.605469 507.667969 22.378906 507.476562 22.359375 C 507.320312 22.339844 507.171875 22.332031 506.925781 22.316406 C 506.902344 22.3125 506.910156 22.273438 506.882812 22.273438 C 506.714844 22.261719 506.636719 22.28125 506.546875 22.273438 C 502.375 21.914062 500.289062 21.800781 497.816406 21.808594 C 494.550781 21.816406 491.804688 21.804688 489.214844 21.765625 C 489.023438 21.761719 489 21.984375 488.878906 22.105469 C 488.695312 22.0625 488.527344 21.890625 488.371094 22.019531 C 488.34375 22.039062 488.308594 22.082031 488.285156 22.105469 C 488.210938 22.148438 488.136719 22.171875 488.070312 22.230469 C 487.964844 22.328125 487.917969 22.390625 487.820312 22.484375 C 487.726562 22.5625 487.679688 22.601562 487.5625 22.699219 C 487.5 22.75 487.503906 22.730469 487.4375 22.78125 C 485.066406 24.695312 483.953125 25.636719 482.691406 26.851562 C 482.53125 27.003906 482.375 27.132812 482.054688 27.402344 C 481.425781 27.925781 481.175781 28.191406 480.871094 28.585938 C 480.796875 28.679688 480.933594 28.773438 480.910156 28.882812 C 480.898438 28.894531 480.882812 28.917969 480.871094 28.925781 C 480.789062 28.988281 480.871094 29.097656 480.828125 29.179688 C 480.773438 29.265625 480.628906 29.246094 480.617188 29.347656 C 480.285156 31.597656 480.199219 34.359375 480.105469 37.101562 C 480.085938 37.101562 480.085938 37.105469 480.0625 37.101562 C 478.519531 36.976562 477.050781 36.945312 475.65625 37.019531 C 475.496094 37.027344 475.472656 37.210938 475.359375 37.316406 C 475.214844 37.378906 475.023438 37.347656 474.894531 37.484375 C 474.769531 37.621094 474.660156 37.839844 474.554688 37.992188 C 473.722656 37.863281 472.996094 37.738281 471.464844 37.527344 C 471.035156 37.46875 470.851562 37.476562 470.617188 37.441406 C 470.222656 37.386719 469.878906 37.320312 469.558594 37.273438 C 469.324219 37.238281 469.136719 37.203125 468.710938 37.101562 C 468.601562 37.078125 468.605469 37.085938 468.496094 37.0625 C 468.464844 37.054688 468.445312 37.066406 468.414062 37.0625 C 468.480469 36.609375 468.625 36.167969 468.582031 35.703125 C 468.472656 34.539062 467.796875 33.507812 466.804688 32.867188 C 466.125 32.429688 465.347656 32.226562 464.597656 32.273438 C 463.855469 32.320312 463.167969 32.59375 462.609375 33.121094 C 462.40625 33.3125 462.449219 33.496094 462.3125 33.671875 C 462.078125 33.375 461.867188 33.078125 461.550781 32.824219 C 460.941406 32.339844 460.328125 31.996094 459.644531 31.765625 C 458.746094 31.460938 457.9375 31.3125 457.226562 31.382812 C 456.648438 31.441406 456.179688 31.761719 455.746094 32.144531 C 454.273438 31.109375 452.9375 30.441406 451.550781 30.367188 C 450.28125 30.296875 448.996094 30.710938 447.777344 31.425781 C 447.386719 31.457031 447.160156 31.515625 446.890625 31.550781 C 447.292969 30.738281 447.570312 30.097656 447.398438 29.390625 C 447.375 29.296875 447.355469 29.226562 447.3125 29.09375 C 447.230469 28.828125 447.179688 28.734375 447.1875 28.671875 C 447.1875 28.65625 447.214844 28.648438 447.230469 28.628906 C 447.441406 28.28125 447.421875 27.839844 447.058594 27.570312 C 446.882812 27.4375 446.71875 27.410156 446.507812 27.402344 L 446.296875 27.402344 C 445.394531 27.414062 444.773438 27.664062 443.667969 28.417969 C 443.640625 28.4375 443.65625 28.441406 443.628906 28.460938 C 442.933594 28.929688 442.625 29.105469 442.230469 29.222656 C 441.886719 29.324219 441.464844 29.351562 440.957031 29.308594 C 440.707031 29.285156 440.492188 29.285156 440.066406 29.222656 C 440.03125 29.21875 440.019531 29.183594 439.984375 29.179688 C 439.84375 29.160156 439.796875 29.164062 439.433594 29.09375 C 439.085938 29.03125 438.898438 28.996094 438.667969 28.96875 C 437.601562 28.84375 436.785156 29.027344 436.128906 29.6875 C 435.363281 30.457031 435.058594 31.449219 435.027344 32.824219 C 435.019531 33.164062 435.007812 33.457031 435.027344 34.011719 C 435.027344 34.082031 435.023438 34.066406 435.027344 34.136719 C 435.042969 34.59375 435.222656 34.789062 435.324219 35.070312 C 435.140625 35.328125 434.796875 35.441406 434.519531 35.917969 C 434.511719 35.945312 434.523438 35.929688 434.519531 35.960938 C 434.363281 35.972656 434.28125 35.984375 434.050781 36 C 433.855469 36 433.65625 36 433.457031 36 C 433.335938 35.640625 433.230469 35.269531 432.90625 35.070312 C 432.546875 34.84375 432.175781 34.789062 431.636719 34.773438 C 431.550781 34.769531 431.546875 34.773438 431.46875 34.773438 C 431.296875 34.769531 431.25 34.738281 431.167969 34.730469 C 430.5625 34.683594 429.660156 34.707031 429.011719 34.6875 C 429.085938 33.949219 429.113281 33.648438 429.222656 32.613281 C 429.238281 32.464844 429.246094 32.464844 429.265625 32.316406 C 429.519531 29.890625 429.648438 28.609375 429.773438 27.144531 C 429.792969 26.925781 429.550781 26.855469 429.390625 26.722656 C 429.378906 26.691406 429.453125 26.667969 429.433594 26.636719 C 429.222656 26.273438 429.054688 26.035156 428.628906 25.453125 C 428.625 25.445312 428.589844 25.414062 428.585938 25.410156 C 428.351562 25.085938 428.242188 24.953125 428.121094 24.773438 C 427.25 23.484375 426.476562 22.492188 424.773438 20.367188 C 424.726562 20.3125 424.734375 20.296875 424.6875 20.238281 C 423.925781 19.289062 423.554688 18.808594 423.121094 18.25 C 422.996094 18.085938 422.796875 18.175781 422.613281 18.164062 C 422.496094 18.019531 422.472656 17.792969 422.273438 17.78125 C 421.9375 17.761719 421.933594 17.757812 421.59375 17.738281 C 419.207031 17.605469 418.144531 17.554688 416.804688 17.527344 C 414.433594 17.484375 411.964844 17.359375 409.179688 17.148438 C 408.578125 17.101562 407.957031 17.105469 407.148438 17.105469 C 406.949219 17.105469 406.777344 17.105469 406.425781 17.105469 C 404.730469 17.109375 403.988281 17.09375 403.078125 16.976562 Z M 432.570312 47.527344 C 432.578125 47.527344 432.597656 47.527344 432.609375 47.527344 C 432.527344 47.582031 432.507812 47.671875 432.398438 47.652344 C 432.480469 47.667969 432.492188 47.539062 432.570312 47.527344 Z M 480.953125 60.023438 C 480.984375 60.042969 481.007812 60.054688 481.039062 60.066406 C 481.03125 60.082031 481.003906 60.09375 480.996094 60.109375 C 480.980469 60.085938 480.972656 60.046875 480.953125 60.023438 Z M 486.589844 66.464844 C 486.601562 66.457031 486.621094 66.46875 486.632812 66.464844 C 486.738281 66.460938 486.910156 66.507812 487.011719 66.507812 C 487.023438 66.539062 487.054688 66.558594 487.054688 66.59375 C 486.902344 66.578125 486.738281 66.5625 486.589844 66.550781 C 486.609375 66.53125 486.570312 66.488281 486.589844 66.464844 Z M 398.714844 140.527344 C 398.632812 140.558594 398.542969 140.578125 398.460938 140.613281 C 398.246094 140.648438 397.949219 140.65625 397.742188 140.695312 C 398.066406 140.660156 398.390625 140.550781 398.714844 140.527344 Z M 396.003906 140.992188 C 394.277344 141.386719 392.777344 142.050781 391.257812 142.6875 C 391.085938 142.730469 390.953125 142.738281 390.664062 142.8125 C 390.347656 142.898438 390.109375 142.960938 389.859375 143.027344 C 388.832031 143.292969 387.871094 143.773438 386.894531 144.171875 C 389.785156 142.628906 392.847656 141.550781 396.003906 140.992188 Z M 425.238281 142.6875 C 427.195312 143.308594 429.019531 144.085938 430.660156 145.230469 C 433.65625 147.3125 435.679688 149.925781 437.230469 153.578125 C 436.484375 152.523438 435.839844 151.417969 434.984375 150.441406 C 434.855469 150.292969 434.652344 150.203125 434.519531 150.058594 C 431.609375 146.546875 428.816406 144.238281 425.664062 143.027344 C 425.507812 142.929688 425.398438 142.78125 425.238281 142.6875 Z M 423.839844 144.425781 C 424.085938 144.53125 424.277344 144.695312 424.519531 144.804688 C 424.707031 144.929688 424.75 145.050781 424.984375 145.1875 C 424.605469 144.929688 424.226562 144.664062 423.839844 144.425781 Z M 381.765625 148.578125 C 381.28125 148.996094 380.765625 149.355469 380.285156 149.804688 C 380.777344 149.382812 381.265625 148.957031 381.765625 148.578125 Z M 379.691406 150.355469 C 378.953125 151.070312 378.21875 152.191406 377.488281 152.984375 C 377.207031 153.226562 376.921875 153.371094 376.640625 153.617188 C 375.976562 154.207031 375.492188 154.902344 374.902344 155.523438 C 376.457031 153.574219 378.042969 151.835938 379.691406 150.355469 Z M 436.171875 155.355469 C 436.425781 155.6875 436.816406 156.089844 437.058594 156.414062 C 437.140625 156.582031 437.234375 156.753906 437.3125 156.925781 C 436.917969 156.335938 436.546875 155.894531 436.171875 155.355469 Z M 373.632812 159.59375 C 370.328125 164.722656 367.9375 170.402344 365.921875 178.277344 C 365.933594 178.179688 365.949219 178.078125 365.964844 177.980469 C 368.050781 170.324219 369.910156 165.265625 372.277344 161.246094 C 372.75 160.597656 373.167969 160.203125 373.632812 159.59375 Z M 442.1875 167.769531 C 443.3125 170.246094 444.234375 172.964844 444.898438 176.074219 C 445.222656 177.601562 445.304688 179.984375 445.492188 181.667969 C 444.582031 177.925781 443.648438 173.800781 442.609375 170.777344 C 442.445312 169.742188 442.371094 168.855469 442.1875 167.769531 Z M 366.261719 170.226562 C 365.78125 171.988281 365.167969 173.582031 364.820312 175.523438 C 364.621094 176.628906 364.574219 177.820312 364.4375 178.957031 C 363.671875 182.085938 363.160156 185.210938 362.785156 189.886719 C 362.730469 190.605469 362.671875 191.144531 362.574219 192.472656 C 362.53125 193.046875 362.515625 193.296875 362.488281 193.617188 C 362.472656 193.835938 362.710938 193.90625 362.871094 194.039062 C 362.214844 199.859375 362.34375 205.699219 363.421875 211.324219 C 361.453125 203.960938 360.570312 196.578125 361.21875 189.378906 C 361.765625 183.316406 363.585938 176.984375 366.261719 170.226562 Z M 368.25 175.269531 C 367.410156 178.476562 366.773438 181.832031 366.300781 185.351562 C 365.984375 186.855469 365.636719 188.351562 365.371094 189.886719 C 365.34375 189.015625 365.328125 188.148438 365.328125 187.300781 C 365.75 185.253906 366.171875 183.355469 366.597656 181.539062 C 366.855469 181.070312 366.949219 180.628906 366.894531 180.183594 C 367.328125 178.417969 367.796875 176.839844 368.25 175.269531 Z M 445.109375 185.777344 C 445.527344 187.671875 445.953125 189.0625 446.382812 191.203125 C 446.40625 191.554688 446.4375 192.117188 446.464844 192.472656 C 446.621094 194.382812 446.503906 196.179688 446.296875 198.148438 C 446.191406 197.449219 446.21875 196.726562 446.085938 196.03125 C 446.003906 195.609375 445.917969 195.292969 445.703125 194.589844 C 445.289062 193.242188 445.199219 192.691406 445.320312 192.046875 C 445.359375 191.855469 445.136719 191.773438 445.023438 191.625 L 444.898438 190.648438 C 444.886719 190.414062 444.871094 190.164062 444.855469 189.929688 C 444.863281 189.875 444.847656 189.816406 444.855469 189.757812 C 444.867188 189.757812 444.886719 189.761719 444.898438 189.757812 C 445.269531 189.714844 445.535156 189.371094 445.492188 188.996094 Z M 443.414062 197.132812 C 443.421875 197.25 443.40625 197.300781 443.414062 197.429688 C 443.421875 197.546875 443.40625 197.566406 443.414062 197.683594 C 443.453125 198.328125 443.460938 198.695312 443.414062 199.082031 C 443.011719 202.59375 442.515625 205.941406 441.933594 209.207031 C 442.550781 205.648438 442.863281 202.035156 443.117188 198.402344 C 443.214844 197.96875 443.320312 197.570312 443.414062 197.132812 Z M 447.523438 199.757812 C 447.527344 199.84375 447.519531 199.929688 447.523438 200.015625 C 447.371094 201.175781 447.128906 202.359375 446.847656 203.53125 C 446.839844 203.453125 446.8125 203.351562 446.804688 203.277344 C 447.023438 202.171875 447.390625 200.707031 447.523438 199.757812 Z M 444.984375 200.394531 C 445.128906 201.292969 445.347656 202.324219 445.449219 203.148438 C 445.449219 203.164062 445.449219 203.175781 445.449219 203.191406 C 445.109375 204.875 444.898438 206.253906 444.347656 208.53125 C 444.296875 208.738281 444.269531 208.746094 444.21875 208.953125 C 443.75 210.886719 443.15625 212.792969 442.527344 214.714844 C 442.429688 214.894531 442.285156 215.085938 442.1875 215.265625 C 442.1875 215.132812 442.148438 214.929688 442.144531 214.800781 C 443.785156 210.472656 444.683594 205.660156 444.984375 200.394531 Z M 445.023438 212.554688 C 444.789062 214.425781 444.46875 216.34375 444.050781 218.273438 C 443.558594 219.917969 443.09375 221.734375 442.566406 223.273438 C 442.058594 224.546875 441.457031 225.859375 440.832031 227.171875 C 441.234375 225.105469 441.285156 223.175781 441.507812 221.199219 C 442.316406 219.242188 443.074219 217.269531 443.710938 215.351562 C 444.226562 214.398438 444.582031 213.488281 445.023438 212.554688 Z M 440.746094 214.292969 C 440.75 214.359375 440.785156 214.441406 440.789062 214.503906 C 440.738281 214.632812 440.671875 214.753906 440.617188 214.882812 C 440.667969 214.683594 440.699219 214.488281 440.746094 214.292969 Z M 366.386719 219.082031 C 366.761719 220.367188 367.089844 221.667969 367.53125 222.933594 C 367.5 222.960938 367.476562 222.996094 367.445312 223.019531 C 366.878906 221.753906 366.460938 220.480469 365.964844 219.207031 C 366.078125 219.230469 366.140625 219.375 366.261719 219.332031 C 366.367188 219.296875 366.316406 219.152344 366.386719 219.082031 Z M 439.6875 225.308594 C 439.296875 227.539062 438.6875 230 438.078125 232.382812 C 437.492188 233.25 436.84375 234.089844 436.210938 234.925781 C 436.425781 234.113281 436.675781 232.9375 436.890625 232.042969 C 437.511719 230.519531 438.035156 228.925781 438.585938 227.34375 C 438.898438 226.699219 439.390625 225.941406 439.6875 225.308594 Z M 363.296875 228.613281 C 363.328125 228.609375 363.34375 228.664062 363.378906 228.65625 C 363.339844 228.671875 363.335938 228.726562 363.296875 228.738281 C 363.296875 228.707031 363.292969 228.648438 363.296875 228.613281 Z M 436.933594 236.238281 C 436.574219 237.089844 436.183594 237.914062 435.832031 238.824219 C 435.605469 239.21875 435.425781 239.660156 435.195312 240.050781 C 435.152344 240.125 435.253906 240.183594 435.238281 240.265625 C 434.90625 241.148438 434.554688 241.726562 434.222656 242.679688 C 434.082031 243.074219 433.839844 243.652344 433.671875 244.078125 C 433.542969 243.851562 433.421875 243.671875 433.289062 243.441406 C 433.414062 243.210938 433.613281 243.070312 433.710938 242.804688 C 434.21875 241.46875 434.597656 240.023438 435.027344 238.65625 C 435.699219 237.875 436.304688 237.050781 436.933594 236.238281 Z M 360.878906 249.925781 C 360.824219 251.054688 360.773438 252.136719 360.792969 253.652344 C 360.800781 254.03125 360.824219 254.410156 360.835938 255.007812 C 360.730469 255.085938 360.707031 255.089844 360.582031 255.179688 C 359.738281 255.765625 359.421875 256.054688 358.886719 256.449219 C 358.863281 256.464844 358.871094 256.476562 358.847656 256.492188 C 358.824219 256.507812 358.785156 256.515625 358.761719 256.535156 C 357.921875 257.082031 357.484375 257.316406 356.941406 257.464844 C 356.59375 257.5625 356.167969 257.109375 356.09375 256.449219 C 356.085938 256.414062 356.09375 256.402344 356.09375 256.363281 C 355.925781 254.8125 356.117188 253.507812 356.8125 250.644531 C 356.886719 250.339844 356.886719 250.269531 356.941406 250.050781 C 357.175781 250.046875 357.253906 250.058594 357.574219 250.050781 C 357.652344 250.050781 357.664062 250.054688 357.746094 250.050781 C 359.238281 250.011719 360.011719 249.960938 360.878906 249.925781 Z M 355.457031 259.203125 C 355.496094 259.222656 355.496094 259.277344 355.539062 259.289062 C 355.507812 259.316406 355.488281 259.34375 355.457031 259.371094 C 355.464844 259.324219 355.449219 259.25 355.457031 259.203125 Z M 406.890625 491.007812 C 406.96875 491.078125 407.027344 491.148438 407.105469 491.21875 C 406.984375 491.171875 406.824219 491.121094 406.679688 491.089844 C 406.75 491.066406 406.820312 491.050781 406.890625 491.007812 Z M 406.890625 491.007812 " fill-opacity="1" fill-rule="nonzero"/></g></svg>