<svg xmlns="http://www.w3.org/2000/svg" xmlns:xlink="http://www.w3.org/1999/xlink" width="1080" zoomAndPan="magnify" viewBox="0 0 810 809.999993" height="1080" preserveAspectRatio="xMidYMid meet" version="1.0"><defs><clipPath id="a39af665b9"><path d="M 7.085938 0.101562 L 802.835938 0.101562 L 802.835938 809.929688 L 7.085938 809.929688 Z M 7.085938 0.101562 " clip-rule="nonzero"/></clipPath></defs><g clip-path="url(#a39af665b9)"><path fill="#00aaff" d="M 245.238281 117.828125 C 244.007812 116.617188 242.496094 114.734375 241.757812 113.664062 C 242.117188 115.460938 241.566406 115.902344 241.210938 117.460938 C 242.550781 117.585938 243.902344 117.707031 245.238281 117.828125 Z M 249.445312 178.042969 C 252.285156 184.128906 262.019531 207.652344 270.132812 214.953125 C 275.875 220.125 282.429688 229.371094 287.355469 239.515625 C 292.980469 228.1875 303.445312 220.902344 312.324219 218.214844 C 312.535156 212.003906 320.164062 183.539062 329.503906 170.460938 C 337.980469 158.601562 364.929688 154.625 382.183594 153.105469 C 384.164062 152.199219 386.542969 151.402344 388.695312 150.582031 C 346.597656 146.886719 304.503906 143.1875 262.410156 139.492188 C 260.6875 142.578125 258.363281 146.621094 255.9375 150.460938 C 251.066406 158.167969 245.390625 161.820312 244.984375 164.253906 C 244.578125 166.683594 246.605469 171.960938 249.445312 178.042969 Z M 504.984375 166.5625 C 513.898438 169.957031 522.226562 175.464844 526.132812 179.175781 C 533.050781 185.753906 536.808594 195.824219 538.269531 209.652344 C 543.410156 215.722656 548.683594 223.597656 551.9375 230.257812 C 562.074219 235.148438 573.828125 244.082031 577.929688 255.363281 C 582.386719 247.578125 588.269531 240.613281 592.609375 237.71875 C 599.097656 233.394531 606.023438 217.820312 606.882812 213.492188 C 607.75 209.167969 609.480469 203.109375 612.511719 199.21875 C 615.539062 195.320312 613.808594 193.589844 611.644531 190.128906 C 609.480469 186.671875 605.589844 183.640625 600.828125 176.71875 C 597.796875 172.308594 597.046875 170.882812 596.792969 168.859375 C 566.015625 166.15625 535.242188 163.453125 504.460938 160.753906 C 504.523438 162.757812 504.710938 164.664062 504.984375 166.5625 Z M 13.203125 94.441406 C 13.597656 94.351562 15.519531 94.582031 50.625 97.773438 C 53.855469 76.320312 61.753906 49.148438 75.847656 32.746094 C 83.683594 19.011719 96.503906 3.65625 112.238281 4.21875 C 113.640625 4.269531 128.347656 5.851562 128.605469 5.886719 C 137.476562 7.03125 144.671875 13.316406 149.800781 20.574219 C 166.15625 43.550781 169.78125 82.484375 168.417969 110.859375 C 175.136719 111.46875 181.742188 112.066406 188.273438 112.660156 C 189.605469 111.683594 191.046875 110.789062 192.246094 109.765625 C 193.78125 108.457031 195.382812 106.8125 197.398438 106.273438 C 199.046875 105.835938 200.601562 106.515625 202.246094 106.910156 C 204.6875 107.496094 206.46875 107.300781 207.453125 107.507812 C 208.261719 106.625 209.007812 105.710938 210.101562 105.066406 C 211.675781 104.140625 214.226562 103.164062 216.09375 103.285156 C 217.429688 103.371094 218.402344 104.105469 219.355469 104.878906 C 220.445312 103.839844 224.085938 103.304688 226.597656 104.847656 C 227.695312 105.527344 227.710938 106.394531 228.914062 105.65625 C 230.097656 104.925781 230.320312 104.300781 231.8125 104.082031 C 236.453125 103.402344 237.996094 105.101562 240.167969 109.394531 C 239.578125 103.804688 242.632812 99.015625 246.285156 102.324219 C 248.480469 104.304688 250.296875 106.589844 252.464844 108.636719 C 256.023438 112 260.527344 112.546875 260.761719 119.238281 C 325.898438 125.148438 380.3125 130.085938 425.761719 134.214844 C 430.109375 132.140625 433.953125 130.167969 434.636719 129.1875 C 436.191406 126.96875 443.070312 120.535156 443.289062 118.980469 C 443.480469 117.660156 444.136719 110.097656 441.886719 102.679688 C 441.378906 104.011719 441.066406 105.367188 441.511719 106.75 C 440.269531 104.339844 438.480469 100.832031 438.804688 97.828125 C 438.671875 98.027344 437.933594 99.230469 437.652344 99.851562 C 437.433594 96.859375 437.648438 94.304688 437.320312 91.773438 C 433.8125 88.421875 432.417969 83.992188 432.417969 78.8125 C 432.417969 77.328125 432.605469 76.035156 432.917969 74.894531 C 430.257812 68.15625 430.105469 61.078125 431.5 53.371094 C 430.851562 54.230469 430.234375 55.082031 429.648438 55.976562 C 431.363281 42.425781 436.566406 40.652344 438.777344 35.949219 C 436.882812 36.414062 434.945312 36.890625 433.171875 37.777344 C 436.699219 33.929688 441.339844 29.210938 447.007812 29.660156 C 450.914062 20.132812 456.035156 21.390625 465.101562 11.234375 C 467.011719 9.085938 467.839844 6.558594 469.386719 4.394531 C 469.734375 6.851562 468.707031 9.988281 467.625 12.660156 C 468.339844 12.234375 467.699219 12.417969 472.320312 9.511719 C 476.554688 6.84375 481.648438 4.371094 484.539062 0.101562 C 484.03125 2.371094 482.542969 5.835938 480.683594 8.277344 C 486.996094 6.890625 493.136719 5.636719 498.207031 1.015625 C 497.539062 4.277344 494.0625 5.425781 492.765625 8 C 497.164062 7.746094 500.734375 5.347656 504.144531 2.804688 C 502.472656 5.890625 499.882812 8.167969 497.109375 10.039062 C 502.328125 10.585938 505.015625 7.964844 507.617188 4.003906 C 507.058594 6.914062 505.804688 10.636719 503.054688 12.210938 C 504.289062 13.179688 507.285156 12.398438 508.707031 12.007812 C 512.085938 11.082031 514.480469 8.828125 514.230469 5.136719 C 515.167969 8.253906 514.859375 12.976562 512.707031 15.542969 C 514.421875 15.523438 515.285156 13.03125 516.453125 11.949219 C 518.179688 10.363281 520.445312 9.933594 522.398438 8.75 C 518.726562 10.730469 517.542969 13.550781 516.488281 17.328125 C 518.351562 16.117188 523.132812 15.109375 524.109375 12.800781 C 523.351562 15.84375 521.109375 19.441406 518.40625 20.835938 C 523.910156 23.28125 527.46875 14.792969 527.898438 11.019531 C 528.445312 15.554688 527.082031 21.855469 525.308594 26.074219 C 527.230469 24.390625 528.480469 22.117188 528.410156 19.070312 C 528.824219 22.441406 528.9375 26.238281 527.933594 29.433594 C 529.335938 26.585938 531.875 23.148438 530.960938 19.707031 C 532.070312 23.464844 531.667969 27.914062 529.082031 31.335938 C 527.886719 32.910156 525.964844 34.332031 523.78125 35.46875 C 525.421875 39.542969 525.964844 43.175781 526.285156 45.304688 C 527.171875 51.300781 528.5 53.515625 530.496094 57.957031 C 532.5 62.394531 528.5 70.828125 528.058594 72.824219 C 527.613281 74.820312 530.054688 76.597656 530.722656 84.582031 C 531.386719 92.574219 526.949219 95.898438 525.394531 106.554688 C 523.839844 117.203125 521.402344 117.648438 520.957031 121.421875 C 520.53125 125.050781 516.808594 129.285156 510.792969 129.800781 C 505.484375 132.480469 507.007812 131.472656 505.609375 141.460938 C 548.277344 145.335938 578.859375 148.109375 600.742188 150.089844 C 604.34375 145.703125 606.371094 138.128906 613.351562 139.488281 C 614.492188 139.710938 615.53125 140.28125 616.5625 140.828125 C 617.871094 139.390625 619.363281 137.824219 620.917969 137.03125 C 624.546875 135.183594 627.960938 138.167969 628.804688 141.691406 C 631.023438 143.738281 632.628906 142.824219 634.863281 144.652344 C 637.046875 144.046875 638.617188 143.816406 640.714844 145.097656 C 641.261719 145.425781 641.632812 145.828125 641.921875 146.273438 C 643.683594 146.78125 644.476562 148.382812 646.292969 149.492188 C 647.367188 150.148438 649.492188 150.585938 650.28125 151.609375 C 651.082031 152.652344 650.730469 153.734375 649.980469 154.515625 C 656.992188 155.125 655.371094 154.9375 655.378906 154.867188 C 659.507812 126.15625 672.527344 90.894531 696.523438 75.101562 C 711.320312 65.363281 722.089844 68.09375 734.246094 69.476562 C 770.238281 73.601562 784.300781 128.230469 783.933594 164.546875 C 784.5625 164.601562 797.117188 165.746094 797.261719 165.757812 C 804.375 166.589844 804.800781 183.164062 798.078125 187.589844 C 796.105469 188.902344 795.871094 188.492188 781.914062 187.265625 C 776.964844 216.8125 760.605469 257.085938 733.035156 268.933594 C 723.125 273.191406 715.136719 271.953125 715.8125 272.007812 C 705.074219 271.109375 701.332031 271.386719 695.578125 269.46875 C 687.28125 266.699219 680.3125 260.925781 674.941406 254.246094 C 658.175781 233.402344 652.722656 200.9375 653.695312 173.859375 C 650.75 173.597656 647.8125 173.339844 644.871094 173.082031 C 647.582031 178.050781 649.160156 186.421875 646.925781 190.875 C 643.898438 196.9375 641.160156 206.382812 638.996094 215.902344 C 636.832031 225.417969 634.574219 248.535156 632.410156 260.214844 C 630.527344 270.398438 620.425781 294.378906 612.421875 308.105469 C 607.367188 316.769531 610.535156 309.914062 608.515625 315.988281 C 607.105469 320.21875 603.933594 324.621094 600.761719 327.796875 C 597.589844 330.96875 593.714844 331.496094 589.835938 331.316406 C 585.960938 331.140625 579.4375 329.554688 577.503906 327.441406 C 574.953125 324.660156 548.828125 314.730469 539.175781 307.5 C 537.757812 309.925781 536.132812 312.082031 535.222656 314.046875 C 532.953125 318.972656 534.84375 319.730469 532.574219 329.578125 C 530.296875 339.429688 521.964844 356.476562 517.796875 364.054688 C 513.628906 371.632812 512.117188 372.769531 511.734375 387.921875 C 511.355469 403.078125 506.050781 418.988281 506.050781 418.988281 C 506.050781 418.988281 506.808594 422.019531 507.566406 425.425781 C 508.019531 427.453125 507.257812 430.285156 505.785156 434.0625 C 513.804688 430.582031 539.46875 419.8125 545.089844 426.597656 C 561.839844 424.269531 588.09375 431.085938 598.871094 435.65625 C 611.375 440.960938 626.527344 451.570312 626.527344 451.570312 C 626.527344 451.570312 642.441406 455.734375 662.519531 472.40625 C 662.519531 472.40625 676.15625 480.359375 682.597656 484.910156 C 689.035156 489.457031 695.476562 495.894531 696.992188 500.820312 C 698.511719 505.746094 703.054688 506.882812 705.332031 514.839844 C 709.261719 528.605469 701.089844 544.601562 694.722656 558.40625 C 692.445312 563.328125 690.554688 569.769531 689.035156 571.667969 C 687.523438 573.558594 687.144531 582.652344 673.886719 608.414062 C 660.625 634.175781 653.800781 645.917969 644.332031 658.804688 C 634.863281 671.683594 623.875 697.441406 621.222656 706.160156 C 618.574219 714.871094 619.507812 714.753906 620.550781 719.167969 C 626.457031 718 628.523438 717.238281 633.816406 728.175781 C 638.628906 728.425781 640.628906 732.320312 644.824219 735.15625 C 659.472656 745.0625 663.390625 743.421875 666.964844 748.984375 C 668.890625 750.378906 670.765625 751.988281 672.832031 753.214844 C 675.191406 754.609375 677.714844 755.414062 680.167969 756.667969 C 686.601562 759.964844 689.246094 766.8125 685.867188 774.304688 C 688.066406 775.089844 687.722656 779.519531 687.257812 781.277344 C 686.363281 784.65625 682.421875 785.175781 679.175781 785.667969 C 666.355469 787.605469 664.050781 788.617188 647.414062 784.761719 C 634.0625 781.671875 621.859375 774.320312 608.152344 772.707031 C 590.273438 770.605469 579.472656 772.601562 567.972656 766.609375 C 562.789062 763.910156 560.320312 762.8125 560.101562 759.019531 C 560.003906 757.34375 558.386719 751.679688 559.367188 750.21875 C 559.667969 749.765625 560.136719 749.332031 560.699219 748.917969 C 559.671875 745.878906 558.46875 742.894531 558.632812 739.457031 C 558.890625 734.027344 560.570312 730.632812 563.4375 727.664062 C 566.136719 722.226562 564.21875 719.742188 565.875 716.617188 C 566.972656 714.53125 569.683594 712.902344 572.132812 713.035156 C 575.359375 705.570312 578.492188 698.804688 581.820312 687.972656 C 586.367188 673.195312 589.398438 649.328125 590.15625 641.375 C 590.917969 633.417969 594.707031 627.738281 593.1875 618.261719 C 591.675781 608.792969 590.15625 596.292969 592.429688 587.957031 C 594.707031 579.625 602.65625 559.921875 617.054688 546.660156 C 617.054688 546.660156 594.707031 554.617188 561.363281 545.527344 C 535.839844 538.5625 525.859375 533.386719 514.761719 532.183594 C 513.808594 533.5625 512.578125 535.089844 510.976562 536.8125 C 500.75 547.800781 495.820312 552.722656 485.214844 548.9375 C 474.609375 545.148438 471.195312 543.628906 456.804688 545.902344 C 442.40625 548.179688 428.386719 543.25 428.386719 543.25 C 428.386719 543.25 417.78125 545.902344 412.851562 545.148438 C 412.851562 545.148438 394.8125 561.597656 375.222656 545.335938 C 369.496094 550.433594 363.285156 552.652344 358.730469 553.277344 C 357.320312 557.015625 356.148438 560.441406 355.074219 563.539062 C 355.464844 566.273438 356.089844 568.882812 356.785156 571.667969 C 359.058594 580.757812 358.300781 606.898438 353.375 620.917969 C 348.449219 634.9375 345.417969 633.417969 339.359375 647.058594 C 333.292969 660.695312 331.023438 671.683594 328.75 677.742188 C 326.476562 683.804688 323.824219 695.929688 323.824219 697.0625 C 323.824219 698.203125 324.582031 719.796875 324.960938 720.933594 C 325.339844 722.070312 328.75 724.34375 327.992188 731.164062 C 327.335938 737.03125 326.128906 742.054688 325.5625 746.964844 C 327.160156 747.335938 327.003906 745.984375 328.34375 747.515625 C 329.117188 748.398438 329.449219 750.570312 329.722656 751.683594 C 330.625 755.40625 329.566406 755.488281 330.972656 758.769531 C 334.773438 767.644531 343.566406 771.09375 340.613281 779.757812 C 342.660156 783.679688 344.78125 787.4375 343.636719 792.277344 C 343.28125 793.757812 342.777344 795.160156 342.058594 796.371094 C 343.304688 797.667969 342.691406 800.015625 342.589844 802.179688 C 342.496094 804.015625 342.742188 806.851562 341.492188 807.925781 C 339.472656 809.664062 334.597656 808.929688 332.074219 809.160156 C 318.175781 810.425781 310.648438 810.320312 295.332031 807.4375 C 288.449219 806.140625 277.628906 804.929688 276.242188 796.226562 C 276.109375 795.375 276.109375 794.503906 276.167969 793.644531 C 276.328125 791.265625 275.738281 790.210938 276.542969 788.144531 C 275.136719 785.027344 274.4375 780.039062 276.003906 776.324219 C 274.574219 771.984375 275.21875 765.007812 275.980469 760.503906 C 276.527344 757.289062 279.308594 753.714844 280.558594 750.265625 C 276.792969 742.621094 279.890625 736.628906 282.933594 737.566406 C 282.875 726.457031 285.839844 712.078125 283.289062 689.109375 C 281.769531 675.472656 280.257812 647.4375 277.605469 626.597656 C 274.949219 605.761719 279.878906 583.03125 284.425781 569.015625 C 287.074219 560.855469 291.898438 549.488281 295.472656 541.410156 C 295.53125 531.863281 297.519531 523.867188 301.1875 515.339844 C 301.773438 508.152344 304.882812 500.0625 304.882812 500.0625 C 303.867188 491.945312 300.234375 486.765625 306.394531 458.011719 C 309.804688 442.101562 320.035156 436.035156 332.917969 429.214844 C 336.179688 427.492188 339.414062 426.542969 342.425781 426.089844 C 343.210938 422.761719 344.660156 419.847656 344.660156 418.988281 C 344.660156 417.476562 344.28125 415.199219 347.691406 404.589844 C 351.101562 393.988281 355.648438 394.363281 355.648438 394.363281 C 355.648438 394.363281 362.089844 387.542969 360.949219 383.753906 C 359.816406 379.96875 360.195312 376.179688 363.605469 369.734375 C 367.015625 363.296875 368.90625 356.476562 370.425781 347.765625 C 371.9375 339.050781 370.804688 329.957031 367.394531 322 C 364.234375 314.636719 356.464844 286.839844 356.691406 272.53125 C 348.9375 281.769531 336.578125 289.664062 329.886719 292.074219 C 320.414062 295.484375 321.929688 297 303.746094 307.984375 C 299.054688 310.816406 295.023438 310.976562 287.890625 315.941406 C 286.445312 316.941406 285.449219 317.570312 285.136719 317.570312 C 283.921875 317.570312 268.507812 317.976562 261.613281 312.296875 C 254.71875 306.617188 258.371094 303.777344 251.476562 297.289062 C 244.578125 290.796875 233.222656 266.464844 230.382812 252.675781 C 217.195312 188.617188 220.40625 193.457031 212.941406 184.128906 C 209.699219 180.074219 211.726562 174.800781 211.726562 171.148438 C 211.726562 167.496094 209.292969 165.0625 206.453125 161.007812 C 203.617188 156.953125 198.339844 146.808594 194.28125 141.542969 C 192.160156 138.777344 190.933594 135.582031 190.238281 133.15625 C 182.367188 132.464844 174.496094 131.769531 166.621094 131.078125 C 163.449219 155.40625 155.890625 183.410156 142.507812 203.941406 C 137.011719 212.371094 129.496094 221 120.289062 225.058594 C 113 228.273438 108.523438 227.328125 101.066406 226.78125 C 95.289062 226.355469 91.496094 226.472656 86.863281 224.585938 C 69.773438 217.625 62.316406 192.707031 61.359375 191.042969 C 50.589844 172.226562 47.753906 144.785156 48.375 123.09375 C 9.355469 119.679688 11 120.132812 9.839844 119.054688 C 5.0625 114.605469 6.710938 95.871094 13.203125 94.441406 " fill-opacity="1" fill-rule="nonzero"/></g></svg>