<svg xmlns="http://www.w3.org/2000/svg" xmlns:xlink="http://www.w3.org/1999/xlink" width="1080" zoomAndPan="magnify" viewBox="0 0 810 809.999993" height="1080" preserveAspectRatio="xMidYMid meet" version="1.0"><defs><clipPath id="8d6bc82a8b"><path d="M 289 362 L 636.925781 362 L 636.925781 562 L 289 562 Z M 289 362 " clip-rule="nonzero"/></clipPath></defs><path fill="#00aaff" d="M 41.144531 669.84375 C 39.09375 645.613281 48.785156 620.265625 65 602.5625 C 85.875 579.636719 112.339844 574.230469 141.601562 570.875 C 175.148438 566.777344 203.480469 542.359375 212.050781 509.558594 C 216.898438 491.105469 216.710938 471.722656 216.523438 452.710938 C 216.339844 411.335938 221.558594 369.589844 259.207031 345.546875 C 298.90625 320.011719 341.585938 342.75 382.773438 327.464844 C 412.96875 316.285156 431.417969 284.226562 438.6875 254.40625 C 456.953125 178.738281 444.464844 93.75 514.171875 41.375 C 553.3125 11.929688 603.261719 0 650.785156 15.28125 C 693.652344 29.074219 721.050781 69.144531 728.878906 112.199219 C 732.980469 134.9375 732.234375 158.980469 727.015625 181.347656 C 721.050781 206.507812 711.359375 232.414062 722.542969 257.761719 C 732.605469 280.3125 753.109375 297.273438 765.597656 318.707031 C 780.507812 343.867188 791.316406 371.265625 792.621094 400.714844 C 794.855469 453.832031 766.339844 488.3125 724.59375 516.640625 C 701.480469 532.296875 675.015625 548.882812 669.609375 578.332031 C 664.953125 604.050781 674.269531 629.214844 675.015625 654.746094 C 675.761719 674.875 671.289062 695.378906 664.019531 714.015625 C 649.480469 751.851562 620.035156 782.976562 580.707031 794.71875 C 530.386719 810 476.894531 787.449219 430.859375 767.691406 C 408.867188 758.375 384.824219 749.984375 360.597656 751.664062 C 335.433594 753.339844 312.882812 763.40625 288.46875 769.183594 C 229.199219 783.347656 170.675781 783.90625 114.761719 757.628906 C 84.195312 743.277344 54.003906 717.742188 43.9375 684.195312 C 42.449219 679.535156 41.703125 674.6875 41.144531 669.84375 Z M 41.144531 669.84375 " fill-opacity="1" fill-rule="nonzero"/><g clip-path="url(#8d6bc82a8b)"><path fill="#ffffff" d="M 496.925781 379.351562 C 496.714844 376.773438 496.519531 374.21875 496.339844 371.660156 C 496.257812 368.28125 493.4375 365.59375 490.050781 365.660156 C 486.660156 365.746094 483.976562 368.5625 484.058594 371.964844 C 483.914062 378.550781 483.789062 385.136719 483.71875 391.769531 C 474.269531 400.714844 464.816406 409.640625 454.867188 418.070312 C 452.835938 419.824219 450.789062 421.558594 448.730469 423.25 C 447.605469 407.324219 446.0625 391.464844 444.960938 375.519531 C 444.886719 372.136719 442.078125 369.453125 438.6875 369.515625 C 435.300781 369.582031 432.605469 372.398438 432.679688 375.777344 C 432.328125 386.980469 431.953125 398.136719 431.855469 409.339844 C 431.777344 418.4375 431.78125 427.558594 431.925781 436.660156 C 425.347656 441.75 418.695312 446.757812 412.050781 451.761719 C 404.554688 457.414062 397.050781 463.070312 389.601562 468.789062 C 389.609375 467.46875 389.613281 466.148438 389.609375 464.824219 C 389.589844 453.734375 389.414062 442.640625 389.179688 431.589844 C 388.824219 414.796875 388.105469 398.136719 387.921875 381.671875 C 388.046875 378.269531 385.398438 375.410156 382.007812 375.300781 C 378.621094 375.171875 375.769531 377.816406 375.644531 381.214844 C 374.242188 397.769531 372.769531 414.515625 372.09375 431.4375 C 371.652344 442.597656 371.472656 453.796875 371.652344 465 C 371.746094 470.804688 371.988281 476.589844 372.292969 482.375 C 365.496094 487.855469 358.789062 493.46875 352.15625 499.144531 C 344.851562 505.558594 337.652344 512.273438 330.371094 518.949219 C 330.511719 510.671875 330.621094 502.371094 330.660156 494.097656 C 330.699219 485.320312 330.742188 476.570312 330.527344 467.816406 C 330.242188 456.136719 329.695312 444.480469 329.011719 432.824219 C 327.976562 415.339844 326.402344 397.921875 325.207031 380.4375 C 325.132812 377.035156 322.316406 374.347656 318.929688 374.433594 C 315.539062 374.5 312.847656 377.316406 312.925781 380.71875 C 312.519531 398.269531 311.917969 415.773438 311.929688 433.34375 C 311.941406 445.023438 312.128906 456.699219 312.578125 468.378906 C 312.914062 477.132812 313.507812 485.863281 314.085938 494.59375 C 314.898438 506.792969 315.835938 518.96875 316.761719 531.144531 L 316.707031 531.1875 C 308.84375 538.011719 300.820312 544.578125 292.265625 550.277344 C 289.386719 552.074219 288.503906 555.867188 290.296875 558.746094 C 292.085938 561.609375 295.878906 562.496094 298.757812 560.699219 C 305.378906 556.863281 311.773438 552.59375 318.019531 548.066406 C 318.207031 550.625 318.386719 553.179688 318.566406 555.734375 C 318.636719 558.792969 321.171875 561.195312 324.222656 561.132812 C 327.273438 561.066406 329.691406 558.53125 329.617188 555.476562 C 329.734375 549.972656 329.855469 544.46875 329.972656 538.96875 C 341.125 530.125 351.902344 520.746094 362.90625 512.058594 C 366.457031 509.175781 370.042969 506.382812 373.652344 503.585938 C 374.789062 518.753906 376.265625 533.789062 377.828125 548.671875 C 378 551.726562 380.617188 554.046875 383.664062 553.875 C 386.707031 553.699219 389.039062 551.078125 388.863281 548.042969 C 388.675781 529.433594 389.003906 510.628906 389.285156 491.667969 C 390.796875 490.542969 392.304688 489.394531 393.808594 488.246094 C 404.261719 480.316406 414.714844 472.367188 424.996094 464.21875 C 427.550781 462.183594 430.09375 460.144531 432.621094 458.085938 C 432.632812 458.347656 432.644531 458.609375 432.660156 458.867188 C 433.082031 466.882812 433.648438 474.878906 434.253906 482.875 C 435.773438 502.894531 437.632812 522.78125 439.003906 542.800781 C 439.070312 545.855469 441.601562 548.261719 444.652344 548.195312 C 447.699219 548.132812 450.125 545.617188 450.058594 542.5625 C 450.5625 523 450.988281 503.476562 450.957031 483.890625 C 450.941406 475.527344 450.921875 467.164062 450.640625 458.800781 C 450.46875 453.6875 450.246094 448.578125 449.976562 443.460938 C 455.144531 438.957031 460.238281 434.363281 465.257812 429.683594 C 469.273438 425.914062 473.207031 422.078125 477.070312 418.15625 C 479.308594 415.902344 481.523438 413.628906 483.726562 411.332031 C 483.785156 415.664062 483.886719 420 484.042969 424.355469 C 484.464844 435.945312 485.203125 447.578125 486.335938 459.171875 C 487.183594 467.859375 488.363281 476.503906 489.613281 485.148438 C 492.546875 505.40625 496.238281 525.445312 500.085938 545.273438 C 500.527344 548.28125 503.339844 550.386719 506.359375 549.929688 C 509.378906 549.496094 511.46875 546.679688 511.023438 543.667969 C 509.011719 523.734375 507.554688 503.609375 506.09375 483.371094 C 505.476562 474.769531 504.941406 466.148438 504.222656 457.546875 C 503.261719 446.085938 502.179688 434.644531 501.09375 423.226562 C 500.21875 414.0625 499.277344 404.941406 498.402344 395.839844 C 506.164062 387.652344 513.976562 379.503906 522.183594 371.703125 C 524.453125 369.691406 524.648438 366.179688 522.613281 363.90625 C 520.578125 361.628906 517.078125 361.433594 514.808594 363.472656 C 510.609375 367.003906 506.492188 370.621094 502.433594 374.304688 C 500.585938 375.972656 498.753906 377.664062 496.925781 379.351562 Z M 608.949219 373.957031 C 609.347656 388.042969 609.8125 402.058594 610.652344 416.121094 C 611.210938 425.480469 611.882812 434.796875 612.707031 444.113281 C 613.199219 449.703125 613.765625 455.269531 614.402344 460.839844 C 615.355469 469.179688 616.445312 477.5 617.550781 485.820312 C 620.3125 506.597656 623.273438 527.289062 625.425781 548.132812 C 625.601562 551.1875 628.21875 553.503906 631.265625 553.332031 C 634.308594 553.15625 636.640625 550.535156 636.460938 547.503906 C 636.199219 526.964844 635.539062 506.46875 634.289062 485.949219 C 633.753906 477.175781 633.1875 468.445312 632.347656 459.691406 C 631.234375 448.078125 629.84375 436.488281 628.335938 424.9375 C 626.070312 407.585938 623.332031 390.359375 621.199219 373.003906 C 620.941406 369.625 617.984375 367.089844 614.605469 367.351562 C 611.226562 367.609375 608.691406 370.578125 608.949219 373.957031 Z M 608.949219 373.957031 " fill-opacity="1" fill-rule="evenodd"/></g></svg>